<svg width="259" height="184" viewBox="0 0 259 184" fill="none" xmlns="http://www.w3.org/2000/svg">
<g filter="url(#filter0_d_293_897)">
<g clip-path="url(#clip0_293_897)">
<rect x="22" y="22" width="215" height="140" rx="10" fill="white"/>
<path opacity="0.5" d="M197.884 167V81.04H177.584V62.7H219.584V167H197.884Z" fill="#CCEAFF"/>
<path d="M47.386 65V51.59H53.038C53.878 51.59 54.604 51.74 55.216 52.04C55.828 52.328 56.296 52.748 56.62 53.3C56.944 53.84 57.106 54.482 57.106 55.226C57.106 55.874 56.938 56.468 56.602 57.008C56.278 57.536 55.768 57.956 55.072 58.268V57.368C55.684 57.608 56.182 57.914 56.566 58.286C56.95 58.646 57.226 59.054 57.394 59.51C57.574 59.966 57.664 60.446 57.664 60.95C57.664 62.21 57.25 63.2 56.422 63.92C55.606 64.64 54.484 65 53.056 65H47.386ZM49.51 63.11H53.218C53.926 63.11 54.49 62.918 54.91 62.534C55.33 62.138 55.54 61.616 55.54 60.968C55.54 60.308 55.33 59.786 54.91 59.402C54.49 59.006 53.926 58.808 53.218 58.808H49.51V63.11ZM49.51 56.936H53.092C53.668 56.936 54.13 56.774 54.478 56.45C54.826 56.114 55 55.676 55 55.136C55 54.596 54.826 54.176 54.478 53.876C54.13 53.576 53.668 53.426 53.092 53.426H49.51V56.936ZM63.1249 65.216C62.3929 65.216 61.7509 65.054 61.1989 64.73C60.6469 64.394 60.2149 63.932 59.9029 63.344C59.6029 62.744 59.4529 62.054 59.4529 61.274V55.262H61.4869V61.094C61.4869 61.538 61.5769 61.928 61.7569 62.264C61.9369 62.6 62.1889 62.864 62.5129 63.056C62.8369 63.236 63.2089 63.326 63.6289 63.326C64.0609 63.326 64.4389 63.23 64.7629 63.038C65.0869 62.846 65.3389 62.576 65.5189 62.228C65.7109 61.88 65.8069 61.472 65.8069 61.004V55.262H67.8229V65H65.8969V63.092L66.1129 63.344C65.8849 63.944 65.5069 64.406 64.9789 64.73C64.4509 65.054 63.8329 65.216 63.1249 65.216ZM71.0618 68.96C70.8218 68.96 70.5818 68.936 70.3418 68.888C70.1138 68.852 69.9038 68.792 69.7118 68.708V66.962C69.8558 66.998 70.0298 67.028 70.2338 67.052C70.4378 67.088 70.6358 67.106 70.8278 67.106C71.3918 67.106 71.8058 66.98 72.0698 66.728C72.3458 66.488 72.5918 66.116 72.8078 65.612L73.4558 64.136L73.4198 65.846L69.2078 55.262H71.3858L74.4998 63.38H73.7618L76.8578 55.262H79.0538L74.7518 66.062C74.5238 66.638 74.2358 67.142 73.8878 67.574C73.5518 68.018 73.1498 68.36 72.6818 68.6C72.2258 68.84 71.6858 68.96 71.0618 68.96ZM83.1963 65V63.02H83.9703C84.5703 63.02 85.0503 62.846 85.4103 62.498C85.7703 62.138 85.9503 61.658 85.9503 61.058V51.59H88.0563V60.986C88.0563 61.802 87.8883 62.51 87.5523 63.11C87.2283 63.71 86.7543 64.178 86.1303 64.514C85.5183 64.838 84.7983 65 83.9703 65H83.1963ZM90.804 65V51.59H96.456C97.296 51.59 98.022 51.74 98.634 52.04C99.246 52.328 99.714 52.748 100.038 53.3C100.362 53.84 100.524 54.482 100.524 55.226C100.524 55.874 100.356 56.468 100.02 57.008C99.696 57.536 99.186 57.956 98.49 58.268V57.368C99.102 57.608 99.6 57.914 99.984 58.286C100.368 58.646 100.644 59.054 100.812 59.51C100.992 59.966 101.082 60.446 101.082 60.95C101.082 62.21 100.668 63.2 99.84 63.92C99.024 64.64 97.902 65 96.474 65H90.804ZM92.928 63.11H96.636C97.344 63.11 97.908 62.918 98.328 62.534C98.748 62.138 98.958 61.616 98.958 60.968C98.958 60.308 98.748 59.786 98.328 59.402C97.908 59.006 97.344 58.808 96.636 58.808H92.928V63.11ZM92.928 56.936H96.51C97.086 56.936 97.548 56.774 97.896 56.45C98.244 56.114 98.418 55.676 98.418 55.136C98.418 54.596 98.244 54.176 97.896 53.876C97.548 53.576 97.086 53.426 96.51 53.426H92.928V56.936ZM105.291 65V53.48H101.727V51.59H110.907V53.48H107.397V65H105.291ZM118.196 65.216C117.248 65.216 116.366 65.042 115.55 64.694C114.746 64.346 114.044 63.866 113.444 63.254C112.856 62.63 112.394 61.898 112.058 61.058C111.722 60.218 111.554 59.294 111.554 58.286C111.554 57.29 111.716 56.372 112.04 55.532C112.376 54.68 112.844 53.948 113.444 53.336C114.044 52.712 114.746 52.232 115.55 51.896C116.354 51.548 117.236 51.374 118.196 51.374C119.144 51.374 119.99 51.536 120.734 51.86C121.49 52.184 122.126 52.61 122.642 53.138C123.158 53.654 123.53 54.218 123.758 54.83L121.85 55.73C121.562 55.01 121.1 54.428 120.464 53.984C119.84 53.528 119.084 53.3 118.196 53.3C117.308 53.3 116.522 53.51 115.838 53.93C115.154 54.35 114.62 54.932 114.236 55.676C113.864 56.42 113.678 57.29 113.678 58.286C113.678 59.282 113.864 60.158 114.236 60.914C114.62 61.658 115.154 62.24 115.838 62.66C116.522 63.068 117.308 63.272 118.196 63.272C119.084 63.272 119.84 63.05 120.464 62.606C121.1 62.162 121.562 61.58 121.85 60.86L123.758 61.76C123.53 62.36 123.158 62.924 122.642 63.452C122.126 63.98 121.49 64.406 120.734 64.73C119.99 65.054 119.144 65.216 118.196 65.216Z" fill="#00070D"/>
<path d="M47.232 95V84.57H50.816C51.4973 84.57 52.0947 84.7053 52.608 84.976C53.1213 85.2373 53.518 85.6107 53.798 86.096C54.0873 86.572 54.232 87.1273 54.232 87.762C54.232 88.3967 54.0873 88.952 53.798 89.428C53.518 89.904 53.1213 90.2773 52.608 90.548C52.104 90.8093 51.5067 90.94 50.816 90.94H48.352V95H47.232ZM48.352 89.89H50.872C51.32 89.89 51.712 89.806 52.048 89.638C52.384 89.4607 52.6453 89.2133 52.832 88.896C53.0187 88.5693 53.112 88.1867 53.112 87.748C53.112 87.3093 53.0187 86.9313 52.832 86.614C52.6453 86.2967 52.384 86.054 52.048 85.886C51.712 85.7087 51.32 85.62 50.872 85.62H48.352V89.89ZM58.7341 95.168C58.2114 95.168 57.7354 95.0467 57.3061 94.804C56.8768 94.552 56.5361 94.2067 56.2841 93.768C56.0414 93.32 55.9201 92.8067 55.9201 92.228V87.496H56.9701V92.102C56.9701 92.5033 57.0494 92.858 57.2081 93.166C57.3761 93.4647 57.6048 93.698 57.8941 93.866C58.1928 94.034 58.5334 94.118 58.9161 94.118C59.2988 94.118 59.6394 94.034 59.9381 93.866C60.2368 93.6887 60.4701 93.4413 60.6381 93.124C60.8061 92.7973 60.8901 92.41 60.8901 91.962V87.496H61.9401V95H60.8901V93.544L61.1281 93.6C60.9508 94.0853 60.6474 94.468 60.2181 94.748C59.7888 95.028 59.2941 95.168 58.7341 95.168ZM64.0995 95V87.496H65.1495V88.728L65.0095 88.546C65.1868 88.1913 65.4528 87.9113 65.8075 87.706C66.1715 87.5007 66.6102 87.398 67.1235 87.398H67.5995V88.448H66.9415C66.4002 88.448 65.9662 88.616 65.6395 88.952C65.3128 89.288 65.1495 89.764 65.1495 90.38V95H64.0995ZM72.26 95.168C71.5226 95.168 70.874 94.9953 70.314 94.65C69.754 94.3047 69.3153 93.838 68.998 93.25C68.6806 92.6527 68.522 91.9807 68.522 91.234C68.522 90.4873 68.6806 89.82 68.998 89.232C69.3153 88.644 69.754 88.182 70.314 87.846C70.874 87.5007 71.5226 87.328 72.26 87.328C72.7266 87.328 73.1653 87.412 73.576 87.58C73.9866 87.748 74.3506 87.9767 74.668 88.266C74.9853 88.546 75.2233 88.8727 75.382 89.246L74.43 89.736C74.2433 89.3347 73.9586 89.008 73.576 88.756C73.1933 88.504 72.7546 88.378 72.26 88.378C71.7653 88.378 71.3173 88.504 70.916 88.756C70.524 88.9987 70.2113 89.3393 69.978 89.778C69.754 90.2073 69.642 90.6973 69.642 91.248C69.642 91.7893 69.754 92.2793 69.978 92.718C70.2113 93.1473 70.524 93.488 70.916 93.74C71.3173 93.992 71.7653 94.118 72.26 94.118C72.7546 94.118 73.1886 93.992 73.562 93.74C73.9446 93.488 74.234 93.152 74.43 92.732L75.382 93.25C75.2233 93.614 74.9853 93.9407 74.668 94.23C74.3506 94.5193 73.9866 94.748 73.576 94.916C73.1653 95.084 72.7266 95.168 72.26 95.168ZM77.2245 95V84.402H78.2745V88.952L78.0365 88.896C78.2232 88.4107 78.5265 88.028 78.9465 87.748C79.3758 87.468 79.8705 87.328 80.4305 87.328C80.9625 87.328 81.4385 87.4493 81.8585 87.692C82.2878 87.9347 82.6238 88.2707 82.8665 88.7C83.1185 89.12 83.2445 89.596 83.2445 90.128V95H82.1945V90.534C82.1945 90.0767 82.1105 89.6893 81.9425 89.372C81.7745 89.0547 81.5412 88.812 81.2425 88.644C80.9532 88.4667 80.6218 88.378 80.2485 88.378C79.8752 88.378 79.5392 88.4667 79.2405 88.644C78.9418 88.812 78.7038 89.0593 78.5265 89.386C78.3585 89.7033 78.2745 90.086 78.2745 90.534V95H77.2245ZM87.4199 95.168C86.9439 95.168 86.5192 95.0793 86.1459 94.902C85.7725 94.7153 85.4785 94.4633 85.2639 94.146C85.0492 93.8287 84.9419 93.4647 84.9419 93.054C84.9419 92.662 85.0259 92.3073 85.1939 91.99C85.3619 91.6633 85.6232 91.388 85.9779 91.164C86.3325 90.94 86.7852 90.7813 87.3359 90.688L90.2759 90.198V91.15L87.5879 91.598C87.0465 91.6913 86.6545 91.864 86.4119 92.116C86.1785 92.368 86.0619 92.6667 86.0619 93.012C86.0619 93.348 86.1925 93.6327 86.4539 93.866C86.7245 94.0993 87.0699 94.216 87.4899 94.216C88.0032 94.216 88.4512 94.1087 88.8339 93.894C89.2165 93.67 89.5152 93.3713 89.7299 92.998C89.9445 92.6247 90.0519 92.2093 90.0519 91.752V89.848C90.0519 89.4 89.8885 89.036 89.5619 88.756C89.2352 88.476 88.8105 88.336 88.2879 88.336C87.8305 88.336 87.4292 88.4527 87.0839 88.686C86.7385 88.91 86.4819 89.204 86.3139 89.568L85.3619 89.05C85.5019 88.7327 85.7212 88.4433 86.0199 88.182C86.3279 87.9207 86.6779 87.7153 87.0699 87.566C87.4619 87.4073 87.8679 87.328 88.2879 87.328C88.8385 87.328 89.3239 87.4353 89.7439 87.65C90.1732 87.8647 90.5045 88.1633 90.7379 88.546C90.9805 88.9193 91.1019 89.3533 91.1019 89.848V95H90.0519V93.502L90.2059 93.656C90.0752 93.936 89.8699 94.1927 89.5899 94.426C89.3192 94.65 88.9972 94.832 88.6239 94.972C88.2599 95.1027 87.8585 95.168 87.4199 95.168ZM95.8656 95.168C95.1469 95.168 94.5169 94.986 93.9756 94.622C93.4343 94.258 93.0423 93.7633 92.7996 93.138L93.6816 92.718C93.8963 93.1753 94.1949 93.5393 94.5776 93.81C94.9696 94.0807 95.3989 94.216 95.8656 94.216C96.3136 94.216 96.6916 94.1087 96.9996 93.894C97.3076 93.67 97.4616 93.3807 97.4616 93.026C97.4616 92.7647 97.3869 92.5593 97.2376 92.41C97.0883 92.2513 96.9156 92.13 96.7196 92.046C96.5236 91.962 96.3509 91.9013 96.2016 91.864L95.1236 91.556C94.4329 91.36 93.9336 91.0847 93.6256 90.73C93.3176 90.3753 93.1636 89.9647 93.1636 89.498C93.1636 89.0593 93.2756 88.6767 93.4996 88.35C93.7236 88.0233 94.0269 87.7713 94.4096 87.594C94.7923 87.4167 95.2169 87.328 95.6836 87.328C96.3183 87.328 96.8923 87.496 97.4056 87.832C97.9283 88.1587 98.2969 88.616 98.5116 89.204L97.6156 89.624C97.4289 89.204 97.1583 88.8773 96.8036 88.644C96.4583 88.4013 96.0709 88.28 95.6416 88.28C95.2216 88.28 94.8856 88.3873 94.6336 88.602C94.3816 88.8167 94.2556 89.0873 94.2556 89.414C94.2556 89.666 94.3209 89.8667 94.4516 90.016C94.5823 90.1653 94.7316 90.2773 94.8996 90.352C95.0769 90.4267 95.2309 90.4827 95.3616 90.52L96.6076 90.884C97.2143 91.0613 97.6856 91.3367 98.0216 91.71C98.3669 92.0833 98.5396 92.522 98.5396 93.026C98.5396 93.4367 98.4229 93.8053 98.1896 94.132C97.9656 94.4587 97.6529 94.7153 97.2516 94.902C96.8503 95.0793 96.3883 95.168 95.8656 95.168ZM103.801 95.168C103.101 95.168 102.466 95 101.897 94.664C101.337 94.3187 100.893 93.8473 100.567 93.25C100.24 92.6527 100.077 91.976 100.077 91.22C100.077 90.464 100.235 89.7967 100.553 89.218C100.87 88.63 101.299 88.168 101.841 87.832C102.391 87.496 103.007 87.328 103.689 87.328C104.23 87.328 104.711 87.4307 105.131 87.636C105.56 87.832 105.924 88.1027 106.223 88.448C106.521 88.784 106.75 89.1667 106.909 89.596C107.067 90.016 107.147 90.45 107.147 90.898C107.147 90.9913 107.142 91.0987 107.133 91.22C107.123 91.332 107.109 91.4487 107.091 91.57H100.749V90.59H106.489L105.985 91.01C106.069 90.4967 106.008 90.0393 105.803 89.638C105.607 89.2273 105.322 88.9053 104.949 88.672C104.575 88.4293 104.155 88.308 103.689 88.308C103.222 88.308 102.788 88.4293 102.387 88.672C101.995 88.9147 101.687 89.2553 101.463 89.694C101.239 90.1233 101.15 90.6367 101.197 91.234C101.15 91.8313 101.243 92.354 101.477 92.802C101.719 93.2407 102.046 93.5813 102.457 93.824C102.877 94.0667 103.325 94.188 103.801 94.188C104.351 94.188 104.813 94.0573 105.187 93.796C105.56 93.5347 105.863 93.208 106.097 92.816L106.993 93.292C106.843 93.628 106.615 93.9407 106.307 94.23C105.999 94.51 105.63 94.7387 105.201 94.916C104.781 95.084 104.314 95.168 103.801 95.168ZM114.765 95.168C114.065 95.168 113.435 95 112.875 94.664C112.315 94.3187 111.871 93.852 111.545 93.264C111.227 92.6667 111.069 91.9947 111.069 91.248C111.069 90.492 111.227 89.82 111.545 89.232C111.871 88.644 112.31 88.182 112.861 87.846C113.421 87.5007 114.055 87.328 114.765 87.328C115.409 87.328 115.983 87.468 116.487 87.748C116.991 88.028 117.387 88.406 117.677 88.882L117.509 89.176V84.402H118.559V95H117.509V93.32L117.677 93.474C117.415 94.0153 117.023 94.4353 116.501 94.734C115.987 95.0233 115.409 95.168 114.765 95.168ZM114.821 94.118C115.325 94.118 115.777 93.992 116.179 93.74C116.589 93.488 116.911 93.1473 117.145 92.718C117.387 92.2793 117.509 91.7893 117.509 91.248C117.509 90.7067 117.387 90.2213 117.145 89.792C116.911 89.3533 116.589 89.008 116.179 88.756C115.777 88.504 115.325 88.378 114.821 88.378C114.326 88.378 113.878 88.504 113.477 88.756C113.075 89.008 112.758 89.3487 112.525 89.778C112.301 90.2073 112.189 90.6973 112.189 91.248C112.189 91.7893 112.301 92.2793 112.525 92.718C112.758 93.1473 113.071 93.488 113.463 93.74C113.864 93.992 114.317 94.118 114.821 94.118ZM123.375 95.168C122.852 95.168 122.376 95.0467 121.947 94.804C121.517 94.552 121.177 94.2067 120.925 93.768C120.682 93.32 120.561 92.8067 120.561 92.228V87.496H121.611V92.102C121.611 92.5033 121.69 92.858 121.849 93.166C122.017 93.4647 122.245 93.698 122.535 93.866C122.833 94.034 123.174 94.118 123.557 94.118C123.939 94.118 124.28 94.034 124.579 93.866C124.877 93.6887 125.111 93.4413 125.279 93.124C125.447 92.7973 125.531 92.41 125.531 91.962V87.496H126.581V95H125.531V93.544L125.769 93.6C125.591 94.0853 125.288 94.468 124.859 94.748C124.429 95.028 123.935 95.168 123.375 95.168ZM128.74 95V87.496H129.79V88.728L129.65 88.546C129.827 88.1913 130.093 87.9113 130.448 87.706C130.812 87.5007 131.251 87.398 131.764 87.398H132.24V88.448H131.582C131.041 88.448 130.607 88.616 130.28 88.952C129.953 89.288 129.79 89.764 129.79 90.38V95H128.74ZM133.471 95V87.496H134.521V95H133.471ZM133.471 86.11V84.57H134.521V86.11H133.471ZM136.67 95V87.496H137.72V88.952L137.482 88.896C137.668 88.4107 137.972 88.028 138.392 87.748C138.821 87.468 139.316 87.328 139.876 87.328C140.408 87.328 140.884 87.4493 141.304 87.692C141.733 87.9347 142.069 88.2707 142.312 88.7C142.564 89.12 142.69 89.596 142.69 90.128V95H141.64V90.534C141.64 90.0767 141.556 89.6893 141.388 89.372C141.229 89.0547 141 88.812 140.702 88.644C140.412 88.4667 140.076 88.378 139.694 88.378C139.311 88.378 138.97 88.4667 138.672 88.644C138.373 88.812 138.14 89.0593 137.972 89.386C137.804 89.7033 137.72 90.086 137.72 90.534V95H136.67ZM148.251 98.08C147.738 98.08 147.262 98.0007 146.823 97.842C146.394 97.6833 146.021 97.464 145.703 97.184C145.395 96.9133 145.157 96.596 144.989 96.232L145.955 95.714C146.105 96.0687 146.371 96.3767 146.753 96.638C147.136 96.8993 147.626 97.03 148.223 97.03C148.681 97.03 149.101 96.9413 149.483 96.764C149.866 96.5867 150.174 96.3253 150.407 95.98C150.641 95.6347 150.757 95.21 150.757 94.706V93.04L150.925 93.194C150.664 93.7353 150.277 94.1553 149.763 94.454C149.25 94.7433 148.69 94.888 148.083 94.888C147.383 94.888 146.753 94.72 146.193 94.384C145.633 94.048 145.19 93.5953 144.863 93.026C144.546 92.4473 144.387 91.808 144.387 91.108C144.387 90.3987 144.546 89.7593 144.863 89.19C145.19 88.6207 145.629 88.168 146.179 87.832C146.739 87.496 147.374 87.328 148.083 87.328C148.69 87.328 149.241 87.468 149.735 87.748C150.239 88.028 150.636 88.406 150.925 88.882L150.757 89.176V87.496H151.807V94.706C151.807 95.35 151.653 95.924 151.345 96.428C151.047 96.9413 150.627 97.3427 150.085 97.632C149.553 97.9307 148.942 98.08 148.251 98.08ZM148.139 93.838C148.625 93.838 149.063 93.7167 149.455 93.474C149.847 93.222 150.16 92.8907 150.393 92.48C150.636 92.06 150.757 91.6027 150.757 91.108C150.757 90.6133 150.636 90.1607 150.393 89.75C150.16 89.33 149.847 88.9987 149.455 88.756C149.063 88.504 148.625 88.378 148.139 88.378C147.645 88.378 147.197 88.504 146.795 88.756C146.394 88.9987 146.077 89.3253 145.843 89.736C145.619 90.1467 145.507 90.604 145.507 91.108C145.507 91.6027 145.619 92.06 145.843 92.48C146.077 92.8907 146.389 93.222 146.781 93.474C147.183 93.7167 147.635 93.838 148.139 93.838ZM156.344 97.8V87.496H157.394V89.176L157.226 88.882C157.524 88.406 157.921 88.028 158.416 87.748C158.92 87.468 159.494 87.328 160.138 87.328C160.847 87.328 161.477 87.5007 162.028 87.846C162.588 88.182 163.026 88.644 163.344 89.232C163.67 89.82 163.834 90.492 163.834 91.248C163.834 91.9947 163.67 92.6667 163.344 93.264C163.026 93.852 162.588 94.3187 162.028 94.664C161.477 95 160.847 95.168 160.138 95.168C159.494 95.168 158.91 95.0233 158.388 94.734C157.874 94.4353 157.487 94.0153 157.226 93.474L157.394 93.32V97.8H156.344ZM160.082 94.118C160.586 94.118 161.034 93.992 161.426 93.74C161.827 93.488 162.14 93.1473 162.364 92.718C162.597 92.2793 162.714 91.7893 162.714 91.248C162.714 90.6973 162.597 90.2073 162.364 89.778C162.14 89.3487 161.827 89.008 161.426 88.756C161.034 88.504 160.586 88.378 160.082 88.378C159.578 88.378 159.12 88.504 158.71 88.756C158.308 89.008 157.986 89.3533 157.744 89.792C157.51 90.2213 157.394 90.7067 157.394 91.248C157.394 91.7893 157.51 92.2793 157.744 92.718C157.986 93.1473 158.308 93.488 158.71 93.74C159.12 93.992 159.578 94.118 160.082 94.118ZM165.682 95V87.496H166.732V88.728L166.592 88.546C166.769 88.1913 167.035 87.9113 167.39 87.706C167.754 87.5007 168.192 87.398 168.706 87.398H169.182V88.448H168.524C167.982 88.448 167.548 88.616 167.222 88.952C166.895 89.288 166.732 89.764 166.732 90.38V95H165.682ZM173.828 95.168C173.128 95.168 172.493 95 171.924 94.664C171.364 94.3187 170.921 93.8473 170.594 93.25C170.267 92.6527 170.104 91.976 170.104 91.22C170.104 90.464 170.263 89.7967 170.58 89.218C170.897 88.63 171.327 88.168 171.868 87.832C172.419 87.496 173.035 87.328 173.716 87.328C174.257 87.328 174.738 87.4307 175.158 87.636C175.587 87.832 175.951 88.1027 176.25 88.448C176.549 88.784 176.777 89.1667 176.936 89.596C177.095 90.016 177.174 90.45 177.174 90.898C177.174 90.9913 177.169 91.0987 177.16 91.22C177.151 91.332 177.137 91.4487 177.118 91.57H170.776V90.59H176.516L176.012 91.01C176.096 90.4967 176.035 90.0393 175.83 89.638C175.634 89.2273 175.349 88.9053 174.976 88.672C174.603 88.4293 174.183 88.308 173.716 88.308C173.249 88.308 172.815 88.4293 172.414 88.672C172.022 88.9147 171.714 89.2553 171.49 89.694C171.266 90.1233 171.177 90.6367 171.224 91.234C171.177 91.8313 171.271 92.354 171.504 92.802C171.747 93.2407 172.073 93.5813 172.484 93.824C172.904 94.0667 173.352 94.188 173.828 94.188C174.379 94.188 174.841 94.0573 175.214 93.796C175.587 93.5347 175.891 93.208 176.124 92.816L177.02 93.292C176.871 93.628 176.642 93.9407 176.334 94.23C176.026 94.51 175.657 94.7387 175.228 94.916C174.808 95.084 174.341 95.168 173.828 95.168ZM181.629 95.168C180.911 95.168 180.281 94.986 179.739 94.622C179.198 94.258 178.806 93.7633 178.563 93.138L179.445 92.718C179.66 93.1753 179.959 93.5393 180.341 93.81C180.733 94.0807 181.163 94.216 181.629 94.216C182.077 94.216 182.455 94.1087 182.763 93.894C183.071 93.67 183.225 93.3807 183.225 93.026C183.225 92.7647 183.151 92.5593 183.001 92.41C182.852 92.2513 182.679 92.13 182.483 92.046C182.287 91.962 182.115 91.9013 181.965 91.864L180.887 91.556C180.197 91.36 179.697 91.0847 179.389 90.73C179.081 90.3753 178.927 89.9647 178.927 89.498C178.927 89.0593 179.039 88.6767 179.263 88.35C179.487 88.0233 179.791 87.7713 180.173 87.594C180.556 87.4167 180.981 87.328 181.447 87.328C182.082 87.328 182.656 87.496 183.169 87.832C183.692 88.1587 184.061 88.616 184.275 89.204L183.379 89.624C183.193 89.204 182.922 88.8773 182.567 88.644C182.222 88.4013 181.835 88.28 181.405 88.28C180.985 88.28 180.649 88.3873 180.397 88.602C180.145 88.8167 180.019 89.0873 180.019 89.414C180.019 89.666 180.085 89.8667 180.215 90.016C180.346 90.1653 180.495 90.2773 180.663 90.352C180.841 90.4267 180.995 90.4827 181.125 90.52L182.371 90.884C182.978 91.0613 183.449 91.3367 183.785 91.71C184.131 92.0833 184.303 92.522 184.303 93.026C184.303 93.4367 184.187 93.8053 183.953 94.132C183.729 94.4587 183.417 94.7153 183.015 94.902C182.614 95.0793 182.152 95.168 181.629 95.168ZM188.318 95.168C187.842 95.168 187.418 95.0793 187.044 94.902C186.671 94.7153 186.377 94.4633 186.162 94.146C185.948 93.8287 185.84 93.4647 185.84 93.054C185.84 92.662 185.924 92.3073 186.092 91.99C186.26 91.6633 186.522 91.388 186.876 91.164C187.231 90.94 187.684 90.7813 188.234 90.688L191.174 90.198V91.15L188.486 91.598C187.945 91.6913 187.553 91.864 187.31 92.116C187.077 92.368 186.96 92.6667 186.96 93.012C186.96 93.348 187.091 93.6327 187.352 93.866C187.623 94.0993 187.968 94.216 188.388 94.216C188.902 94.216 189.35 94.1087 189.732 93.894C190.115 93.67 190.414 93.3713 190.628 92.998C190.843 92.6247 190.95 92.2093 190.95 91.752V89.848C190.95 89.4 190.787 89.036 190.46 88.756C190.134 88.476 189.709 88.336 189.186 88.336C188.729 88.336 188.328 88.4527 187.982 88.686C187.637 88.91 187.38 89.204 187.212 89.568L186.26 89.05C186.4 88.7327 186.62 88.4433 186.918 88.182C187.226 87.9207 187.576 87.7153 187.968 87.566C188.36 87.4073 188.766 87.328 189.186 87.328C189.737 87.328 190.222 87.4353 190.642 87.65C191.072 87.8647 191.403 88.1633 191.636 88.546C191.879 88.9193 192 89.3533 192 89.848V95H190.95V93.502L191.104 93.656C190.974 93.936 190.768 94.1927 190.488 94.426C190.218 94.65 189.896 94.832 189.522 94.972C189.158 95.1027 188.757 95.168 188.318 95.168ZM194.16 95V84.402H195.21V95H194.16ZM200.775 95.168C200.075 95.168 199.441 95 198.871 94.664C198.311 94.3187 197.868 93.8473 197.541 93.25C197.215 92.6527 197.051 91.976 197.051 91.22C197.051 90.464 197.21 89.7967 197.527 89.218C197.845 88.63 198.274 88.168 198.815 87.832C199.366 87.496 199.982 87.328 200.663 87.328C201.205 87.328 201.685 87.4307 202.105 87.636C202.535 87.832 202.899 88.1027 203.197 88.448C203.496 88.784 203.725 89.1667 203.883 89.596C204.042 90.016 204.121 90.45 204.121 90.898C204.121 90.9913 204.117 91.0987 204.107 91.22C204.098 91.332 204.084 91.4487 204.065 91.57H197.723V90.59H203.463L202.959 91.01C203.043 90.4967 202.983 90.0393 202.777 89.638C202.581 89.2273 202.297 88.9053 201.923 88.672C201.55 88.4293 201.13 88.308 200.663 88.308C200.197 88.308 199.763 88.4293 199.361 88.672C198.969 88.9147 198.661 89.2553 198.437 89.694C198.213 90.1233 198.125 90.6367 198.171 91.234C198.125 91.8313 198.218 92.354 198.451 92.802C198.694 93.2407 199.021 93.5813 199.431 93.824C199.851 94.0667 200.299 94.188 200.775 94.188C201.326 94.188 201.788 94.0573 202.161 93.796C202.535 93.5347 202.838 93.208 203.071 92.816L203.967 93.292C203.818 93.628 203.589 93.9407 203.281 94.23C202.973 94.51 202.605 94.7387 202.175 94.916C201.755 95.084 201.289 95.168 200.775 95.168ZM50.592 119.168C49.8827 119.168 49.2387 119 48.66 118.664C48.0813 118.319 47.6193 117.852 47.274 117.264C46.938 116.667 46.77 115.99 46.77 115.234C46.77 114.487 46.938 113.82 47.274 113.232C47.61 112.644 48.0627 112.182 48.632 111.846C49.2107 111.501 49.864 111.328 50.592 111.328C51.32 111.328 51.9687 111.496 52.538 111.832C53.1167 112.168 53.5693 112.63 53.896 113.218C54.232 113.806 54.4 114.478 54.4 115.234C54.4 115.999 54.2273 116.681 53.882 117.278C53.5367 117.866 53.0747 118.328 52.496 118.664C51.9267 119 51.292 119.168 50.592 119.168ZM50.592 118.118C51.096 118.118 51.5487 117.992 51.95 117.74C52.3607 117.488 52.6827 117.143 52.916 116.704C53.1587 116.265 53.28 115.775 53.28 115.234C53.28 114.693 53.1587 114.207 52.916 113.778C52.6827 113.349 52.3607 113.008 51.95 112.756C51.5487 112.504 51.096 112.378 50.592 112.378C50.088 112.378 49.6307 112.504 49.22 112.756C48.8187 113.008 48.4967 113.349 48.254 113.778C48.0113 114.207 47.89 114.693 47.89 115.234C47.89 115.775 48.0113 116.265 48.254 116.704C48.4967 117.143 48.8187 117.488 49.22 117.74C49.6307 117.992 50.088 118.118 50.592 118.118ZM56.2518 119V111.496H57.3018V112.728L57.1618 112.546C57.3392 112.191 57.6052 111.911 57.9598 111.706C58.3238 111.501 58.7625 111.398 59.2758 111.398H59.7518V112.448H59.0938C58.5525 112.448 58.1185 112.616 57.7918 112.952C57.4652 113.288 57.3018 113.764 57.3018 114.38V119H56.2518ZM66.8752 119.168C66.1659 119.168 65.5219 119 64.9432 118.664C64.3645 118.319 63.9025 117.852 63.5572 117.264C63.2212 116.667 63.0532 115.99 63.0532 115.234C63.0532 114.487 63.2212 113.82 63.5572 113.232C63.8932 112.644 64.3459 112.182 64.9152 111.846C65.4939 111.501 66.1472 111.328 66.8752 111.328C67.6032 111.328 68.2519 111.496 68.8212 111.832C69.3999 112.168 69.8525 112.63 70.1792 113.218C70.5152 113.806 70.6832 114.478 70.6832 115.234C70.6832 115.999 70.5105 116.681 70.1652 117.278C69.8199 117.866 69.3579 118.328 68.7792 118.664C68.2099 119 67.5752 119.168 66.8752 119.168ZM66.8752 118.118C67.3792 118.118 67.8319 117.992 68.2332 117.74C68.6439 117.488 68.9659 117.143 69.1992 116.704C69.4419 116.265 69.5632 115.775 69.5632 115.234C69.5632 114.693 69.4419 114.207 69.1992 113.778C68.9659 113.349 68.6439 113.008 68.2332 112.756C67.8319 112.504 67.3792 112.378 66.8752 112.378C66.3712 112.378 65.9139 112.504 65.5032 112.756C65.1019 113.008 64.7799 113.349 64.5372 113.778C64.2945 114.207 64.1732 114.693 64.1732 115.234C64.1732 115.775 64.2945 116.265 64.5372 116.704C64.7799 117.143 65.1019 117.488 65.5032 117.74C65.9139 117.992 66.3712 118.118 66.8752 118.118ZM72.535 119V111.496H73.585V112.952L73.347 112.896C73.5337 112.411 73.837 112.028 74.257 111.748C74.6864 111.468 75.181 111.328 75.741 111.328C76.273 111.328 76.749 111.449 77.169 111.692C77.5984 111.935 77.9344 112.271 78.177 112.7C78.429 113.12 78.555 113.596 78.555 114.128V119H77.505V114.534C77.505 114.077 77.421 113.689 77.253 113.372C77.0944 113.055 76.8657 112.812 76.567 112.644C76.2777 112.467 75.9417 112.378 75.559 112.378C75.1764 112.378 74.8357 112.467 74.537 112.644C74.2384 112.812 74.005 113.059 73.837 113.386C73.669 113.703 73.585 114.086 73.585 114.534V119H72.535ZM83.0933 119V108.57H86.5233C87.5593 108.57 88.46 108.785 89.2253 109.214C89.9907 109.634 90.5833 110.236 91.0033 111.02C91.4233 111.795 91.6333 112.714 91.6333 113.778C91.6333 114.833 91.4233 115.752 91.0033 116.536C90.5833 117.32 89.9907 117.927 89.2253 118.356C88.46 118.785 87.5593 119 86.5233 119H83.0933ZM84.2133 117.95H86.5233C87.326 117.95 88.0213 117.782 88.6093 117.446C89.1973 117.101 89.65 116.615 89.9673 115.99C90.294 115.365 90.4573 114.627 90.4573 113.778C90.4573 112.929 90.294 112.196 89.9673 111.58C89.6407 110.955 89.1833 110.474 88.5953 110.138C88.0073 109.793 87.3167 109.62 86.5233 109.62H84.2133V117.95ZM93.484 119V108.57H100.204V109.62H94.604V113.246H99.924V114.296H94.604V117.95H100.204V119H93.484ZM100.978 119L104.366 113.68L101.09 108.57H102.35L105.192 113.022H104.814L107.642 108.57H108.902L105.626 113.68L109.028 119H107.768L104.814 114.352H105.192L102.21 119H100.978Z" fill="#596E7F"/>
</g>
</g>
<defs>
<filter id="filter0_d_293_897" x="0" y="0" width="259" height="184" filterUnits="userSpaceOnUse" color-interpolation-filters="sRGB">
<feFlood flood-opacity="0" result="BackgroundImageFix"/>
<feColorMatrix in="SourceAlpha" type="matrix" values="0 0 0 0 0 0 0 0 0 0 0 0 0 0 0 0 0 0 127 0" result="hardAlpha"/>
<feOffset/>
<feGaussianBlur stdDeviation="11"/>
<feComposite in2="hardAlpha" operator="out"/>
<feColorMatrix type="matrix" values="0 0 0 0 0 0 0 0 0 0 0 0 0 0 0 0 0 0 0.1 0"/>
<feBlend mode="normal" in2="BackgroundImageFix" result="effect1_dropShadow_293_897"/>
<feBlend mode="normal" in="SourceGraphic" in2="effect1_dropShadow_293_897" result="shape"/>
</filter>
<clipPath id="clip0_293_897">
<rect x="22" y="22" width="215" height="140" rx="10" fill="white"/>
</clipPath>
</defs>
</svg>
