<svg width="259" height="184" viewBox="0 0 259 184" fill="none" xmlns="http://www.w3.org/2000/svg">
<g filter="url(#filter0_d_293_905)">
<g clip-path="url(#clip0_293_905)">
<rect x="22" y="22" width="215" height="140" rx="10" fill="white"/>
<path opacity="0.5" d="M205.019 168.68C199.232 168.68 193.725 167.607 188.499 165.46C183.272 163.22 178.839 160.093 175.199 156.08C171.559 152.067 169.132 147.353 167.919 141.94L187.099 135.5C188.685 139.98 191.019 143.387 194.099 145.72C197.179 147.96 200.819 149.08 205.019 149.08C208.472 149.08 211.412 148.427 213.839 147.12C216.359 145.813 218.319 143.993 219.719 141.66C221.119 139.233 221.819 136.433 221.819 133.26C221.819 130.087 221.119 127.38 219.719 125.14C218.412 122.807 216.499 121.033 213.979 119.82C211.552 118.513 208.565 117.86 205.019 117.86C202.965 117.86 200.912 118.093 198.859 118.56C196.805 119.027 194.939 119.68 193.259 120.52L188.219 110.02L214.959 80.9H174.219V62.7H239.319V79.5L211.879 110.72L212.579 101.9C218.832 101.9 224.245 103.207 228.819 105.82C233.485 108.34 237.079 111.887 239.599 116.46C242.212 121.033 243.519 126.353 243.519 132.42C243.519 139.327 241.839 145.533 238.479 151.04C235.119 156.547 230.545 160.887 224.759 164.06C218.972 167.14 212.392 168.68 205.019 168.68Z" fill="#CCEAFF"/>
<path d="M49.888 65L46.198 51.59H48.448L51.436 63.2H50.878L53.974 51.59H56.188L59.284 63.2H58.708L61.714 51.59H63.946L60.274 65H57.88L54.766 53.57H55.396L52.264 65H49.888ZM67.5239 65.216C66.8639 65.216 66.2819 65.102 65.7779 64.874C65.2859 64.634 64.9019 64.31 64.6259 63.902C64.3499 63.482 64.2119 62.99 64.2119 62.426C64.2119 61.898 64.3259 61.424 64.5539 61.004C64.7939 60.584 65.1599 60.23 65.6519 59.942C66.1439 59.654 66.7619 59.45 67.5059 59.33L70.8899 58.772V60.374L67.9019 60.896C67.3619 60.992 66.9659 61.166 66.7139 61.418C66.4619 61.658 66.3359 61.97 66.3359 62.354C66.3359 62.726 66.4739 63.032 66.7499 63.272C67.0379 63.5 67.4039 63.614 67.8479 63.614C68.3999 63.614 68.8799 63.494 69.2879 63.254C69.7079 63.014 70.0319 62.696 70.2599 62.3C70.4879 61.892 70.6019 61.442 70.6019 60.95V58.448C70.6019 57.968 70.4219 57.578 70.0619 57.278C69.7139 56.966 69.2459 56.81 68.6579 56.81C68.1179 56.81 67.6439 56.954 67.2359 57.242C66.8399 57.518 66.5459 57.878 66.3539 58.322L64.6619 57.476C64.8419 56.996 65.1359 56.576 65.5439 56.216C65.9519 55.844 66.4259 55.556 66.9659 55.352C67.5179 55.148 68.0999 55.046 68.7119 55.046C69.4799 55.046 70.1579 55.19 70.7459 55.478C71.3459 55.766 71.8079 56.168 72.1319 56.684C72.4679 57.188 72.6359 57.776 72.6359 58.448V65H70.6919V63.236L71.1059 63.29C70.8779 63.686 70.5839 64.028 70.2239 64.316C69.8759 64.604 69.4739 64.826 69.0179 64.982C68.5739 65.138 68.0759 65.216 67.5239 65.216ZM75.0142 65V55.262H77.0482V65H75.0142ZM75.0142 53.93V51.59H77.0482V53.93H75.0142ZM83.6383 65.108C82.6183 65.108 81.8263 64.82 81.2623 64.244C80.6983 63.668 80.4163 62.858 80.4163 61.814V57.098H78.7063V55.262H78.9763C79.4323 55.262 79.7863 55.13 80.0383 54.866C80.2903 54.602 80.4163 54.242 80.4163 53.786V53.03H82.4503V55.262H84.6643V57.098H82.4503V61.724C82.4503 62.06 82.5043 62.348 82.6123 62.588C82.7203 62.816 82.8943 62.996 83.1343 63.128C83.3743 63.248 83.6863 63.308 84.0703 63.308C84.1663 63.308 84.2743 63.302 84.3943 63.29C84.5143 63.278 84.6283 63.266 84.7363 63.254V65C84.5683 65.024 84.3823 65.048 84.1783 65.072C83.9743 65.096 83.7943 65.108 83.6383 65.108ZM89.5797 65V63.47L93.2517 59.546C93.9717 58.778 94.5357 58.16 94.9437 57.692C95.3637 57.212 95.6637 56.792 95.8437 56.432C96.0357 56.072 96.1317 55.694 96.1317 55.298C96.1317 54.65 95.9337 54.152 95.5377 53.804C95.1417 53.444 94.6317 53.264 94.0077 53.264C93.3597 53.264 92.8017 53.45 92.3337 53.822C91.8657 54.182 91.5417 54.71 91.3617 55.406L89.4897 54.866C89.6337 54.158 89.9217 53.546 90.3537 53.03C90.7857 52.502 91.3137 52.094 91.9377 51.806C92.5737 51.518 93.2577 51.374 93.9897 51.374C94.8417 51.374 95.5857 51.536 96.2217 51.86C96.8577 52.172 97.3497 52.61 97.6977 53.174C98.0577 53.738 98.2377 54.392 98.2377 55.136C98.2377 55.628 98.1417 56.108 97.9497 56.576C97.7697 57.032 97.4877 57.518 97.1037 58.034C96.7197 58.538 96.2277 59.108 95.6277 59.744L92.3877 63.2H98.4897V65H89.5797ZM106.354 65V61.976H99.9637V60.212L106.264 51.59H108.37V60.212H110.224V61.976H108.37V65H106.354ZM101.53 60.986L101.188 60.212H106.354V53.282L106.93 53.462L101.53 60.986ZM115.431 65V51.59H117.555V57.494H123.765V51.59H125.871V65H123.765V59.384H117.555V65H115.431ZM133.15 65.216C132.214 65.216 131.356 64.994 130.576 64.55C129.808 64.106 129.196 63.5 128.74 62.732C128.284 61.964 128.056 61.094 128.056 60.122C128.056 59.138 128.284 58.268 128.74 57.512C129.196 56.744 129.808 56.144 130.576 55.712C131.344 55.268 132.202 55.046 133.15 55.046C134.11 55.046 134.968 55.268 135.724 55.712C136.492 56.144 137.098 56.744 137.542 57.512C137.998 58.268 138.226 59.138 138.226 60.122C138.226 61.106 137.998 61.982 137.542 62.75C137.086 63.518 136.474 64.124 135.706 64.568C134.938 65 134.086 65.216 133.15 65.216ZM133.15 63.326C133.726 63.326 134.236 63.188 134.68 62.912C135.124 62.636 135.472 62.258 135.724 61.778C135.988 61.286 136.12 60.734 136.12 60.122C136.12 59.51 135.988 58.964 135.724 58.484C135.472 58.004 135.124 57.626 134.68 57.35C134.236 57.074 133.726 56.936 133.15 56.936C132.586 56.936 132.076 57.074 131.62 57.35C131.176 57.626 130.822 58.004 130.558 58.484C130.306 58.964 130.18 59.51 130.18 60.122C130.18 60.734 130.306 61.286 130.558 61.778C130.822 62.258 131.176 62.636 131.62 62.912C132.076 63.188 132.586 63.326 133.15 63.326ZM143.685 65.216C142.953 65.216 142.311 65.054 141.759 64.73C141.207 64.394 140.775 63.932 140.463 63.344C140.163 62.744 140.013 62.054 140.013 61.274V55.262H142.047V61.094C142.047 61.538 142.137 61.928 142.317 62.264C142.497 62.6 142.749 62.864 143.073 63.056C143.397 63.236 143.769 63.326 144.189 63.326C144.621 63.326 144.999 63.23 145.323 63.038C145.647 62.846 145.899 62.576 146.079 62.228C146.271 61.88 146.367 61.472 146.367 61.004V55.262H148.383V65H146.457V63.092L146.673 63.344C146.445 63.944 146.067 64.406 145.539 64.73C145.011 65.054 144.393 65.216 143.685 65.216ZM150.758 65V55.262H152.702V57.224L152.522 56.936C152.738 56.3 153.086 55.844 153.566 55.568C154.046 55.28 154.622 55.136 155.294 55.136H155.888V56.99H155.042C154.37 56.99 153.824 57.2 153.404 57.62C152.996 58.028 152.792 58.616 152.792 59.384V65H150.758ZM160.88 65.216C159.884 65.216 159.008 64.97 158.252 64.478C157.508 63.986 156.986 63.326 156.686 62.498L158.252 61.76C158.516 62.312 158.876 62.75 159.332 63.074C159.8 63.398 160.316 63.56 160.88 63.56C161.36 63.56 161.75 63.452 162.05 63.236C162.35 63.02 162.5 62.726 162.5 62.354C162.5 62.114 162.434 61.922 162.302 61.778C162.17 61.622 162.002 61.496 161.798 61.4C161.606 61.304 161.408 61.232 161.204 61.184L159.674 60.752C158.834 60.512 158.204 60.152 157.784 59.672C157.376 59.18 157.172 58.61 157.172 57.962C157.172 57.374 157.322 56.864 157.622 56.432C157.922 55.988 158.336 55.646 158.864 55.406C159.392 55.166 159.986 55.046 160.646 55.046C161.534 55.046 162.326 55.268 163.022 55.712C163.718 56.144 164.21 56.75 164.498 57.53L162.932 58.268C162.74 57.8 162.434 57.428 162.014 57.152C161.606 56.876 161.144 56.738 160.628 56.738C160.184 56.738 159.83 56.846 159.566 57.062C159.302 57.266 159.17 57.536 159.17 57.872C159.17 58.1 159.23 58.292 159.35 58.448C159.47 58.592 159.626 58.712 159.818 58.808C160.01 58.892 160.208 58.964 160.412 59.024L161.996 59.492C162.8 59.72 163.418 60.08 163.85 60.572C164.282 61.052 164.498 61.628 164.498 62.3C164.498 62.876 164.342 63.386 164.03 63.83C163.73 64.262 163.31 64.604 162.77 64.856C162.23 65.096 161.6 65.216 160.88 65.216Z" fill="#00070D"/>
<path d="M47.232 95V84.57H48.352V95H47.232ZM50.66 95V87.496H51.71V88.952L51.472 88.896C51.6587 88.4107 51.962 88.028 52.382 87.748C52.8114 87.468 53.306 87.328 53.866 87.328C54.398 87.328 54.874 87.4493 55.294 87.692C55.7234 87.9347 56.0594 88.2707 56.302 88.7C56.554 89.12 56.68 89.596 56.68 90.128V95H55.63V90.534C55.63 90.0767 55.546 89.6893 55.378 89.372C55.2194 89.0547 54.9907 88.812 54.692 88.644C54.4027 88.4667 54.0667 88.378 53.684 88.378C53.3014 88.378 52.9607 88.4667 52.662 88.644C52.3634 88.812 52.13 89.0593 51.962 89.386C51.794 89.7033 51.71 90.086 51.71 90.534V95H50.66ZM58.6854 95V87.496H59.7354V95H58.6854ZM58.6854 86.11V84.57H59.7354V86.11H58.6854ZM64.7546 95.084C64.0826 95.084 63.5646 94.888 63.2006 94.496C62.8366 94.104 62.6546 93.544 62.6546 92.816V88.546H61.2686V87.496H61.6186C61.936 87.496 62.188 87.3933 62.3746 87.188C62.5613 86.9733 62.6546 86.7073 62.6546 86.39V85.76H63.7046V87.496H65.3566V88.546H63.7046V92.816C63.7046 93.068 63.742 93.292 63.8166 93.488C63.8913 93.6747 64.0173 93.824 64.1946 93.936C64.3813 94.048 64.6286 94.104 64.9366 94.104C65.0113 94.104 65.1 94.0993 65.2026 94.09C65.3053 94.0807 65.394 94.0713 65.4686 94.062V95C65.3566 95.028 65.2306 95.0467 65.0906 95.056C64.9506 95.0747 64.8386 95.084 64.7546 95.084ZM67.3124 95V87.496H68.3624V95H67.3124ZM67.3124 86.11V84.57H68.3624V86.11H67.3124ZM72.6816 95.168C72.2056 95.168 71.7809 95.0793 71.4076 94.902C71.0343 94.7153 70.7403 94.4633 70.5256 94.146C70.3109 93.8287 70.2036 93.4647 70.2036 93.054C70.2036 92.662 70.2876 92.3073 70.4556 91.99C70.6236 91.6633 70.8849 91.388 71.2396 91.164C71.5943 90.94 72.0469 90.7813 72.5976 90.688L75.5376 90.198V91.15L72.8496 91.598C72.3083 91.6913 71.9163 91.864 71.6736 92.116C71.4403 92.368 71.3236 92.6667 71.3236 93.012C71.3236 93.348 71.4543 93.6327 71.7156 93.866C71.9863 94.0993 72.3316 94.216 72.7516 94.216C73.2649 94.216 73.7129 94.1087 74.0956 93.894C74.4783 93.67 74.7769 93.3713 74.9916 92.998C75.2063 92.6247 75.3136 92.2093 75.3136 91.752V89.848C75.3136 89.4 75.1503 89.036 74.8236 88.756C74.4969 88.476 74.0723 88.336 73.5496 88.336C73.0923 88.336 72.6909 88.4527 72.3456 88.686C72.0003 88.91 71.7436 89.204 71.5756 89.568L70.6236 89.05C70.7636 88.7327 70.9829 88.4433 71.2816 88.182C71.5896 87.9207 71.9396 87.7153 72.3316 87.566C72.7236 87.4073 73.1296 87.328 73.5496 87.328C74.1003 87.328 74.5856 87.4353 75.0056 87.65C75.4349 87.8647 75.7663 88.1633 75.9996 88.546C76.2423 88.9193 76.3636 89.3533 76.3636 89.848V95H75.3136V93.502L75.4676 93.656C75.3369 93.936 75.1316 94.1927 74.8516 94.426C74.5809 94.65 74.2589 94.832 73.8856 94.972C73.5216 95.1027 73.1203 95.168 72.6816 95.168ZM78.5233 95V84.402H79.5733V95H78.5233ZM84.1014 95V84.402H85.1514V88.952L84.9134 88.896C85.1001 88.4107 85.4034 88.028 85.8234 87.748C86.2528 87.468 86.7474 87.328 87.3074 87.328C87.8394 87.328 88.3154 87.4493 88.7354 87.692C89.1648 87.9347 89.5008 88.2707 89.7434 88.7C89.9954 89.12 90.1214 89.596 90.1214 90.128V95H89.0714V90.534C89.0714 90.0767 88.9874 89.6893 88.8194 89.372C88.6514 89.0547 88.4181 88.812 88.1194 88.644C87.8301 88.4667 87.4988 88.378 87.1254 88.378C86.7521 88.378 86.4161 88.4667 86.1174 88.644C85.8188 88.812 85.5808 89.0593 85.4034 89.386C85.2354 89.7033 85.1514 90.086 85.1514 90.534V95H84.1014ZM95.6408 95.168C94.9315 95.168 94.2875 95 93.7088 94.664C93.1302 94.3187 92.6682 93.852 92.3228 93.264C91.9868 92.6667 91.8188 91.99 91.8188 91.234C91.8188 90.4873 91.9868 89.82 92.3228 89.232C92.6588 88.644 93.1115 88.182 93.6808 87.846C94.2595 87.5007 94.9128 87.328 95.6408 87.328C96.3688 87.328 97.0175 87.496 97.5868 87.832C98.1655 88.168 98.6182 88.63 98.9448 89.218C99.2808 89.806 99.4488 90.478 99.4488 91.234C99.4488 91.9993 99.2762 92.6807 98.9308 93.278C98.5855 93.866 98.1235 94.328 97.5448 94.664C96.9755 95 96.3408 95.168 95.6408 95.168ZM95.6408 94.118C96.1448 94.118 96.5975 93.992 96.9988 93.74C97.4095 93.488 97.7315 93.1427 97.9648 92.704C98.2075 92.2653 98.3288 91.7753 98.3288 91.234C98.3288 90.6927 98.2075 90.2073 97.9648 89.778C97.7315 89.3487 97.4095 89.008 96.9988 88.756C96.5975 88.504 96.1448 88.378 95.6408 88.378C95.1368 88.378 94.6795 88.504 94.2688 88.756C93.8675 89.008 93.5455 89.3487 93.3028 89.778C93.0602 90.2073 92.9388 90.6927 92.9388 91.234C92.9388 91.7753 93.0602 92.2653 93.3028 92.704C93.5455 93.1427 93.8675 93.488 94.2688 93.74C94.6795 93.992 95.1368 94.118 95.6408 94.118ZM101.301 95V84.402H102.351V95H101.301ZM107.888 95.168C107.188 95.168 106.558 95 105.998 94.664C105.438 94.3187 104.995 93.852 104.668 93.264C104.351 92.6667 104.192 91.9947 104.192 91.248C104.192 90.492 104.351 89.82 104.668 89.232C104.995 88.644 105.433 88.182 105.984 87.846C106.544 87.5007 107.179 87.328 107.888 87.328C108.532 87.328 109.106 87.468 109.61 87.748C110.114 88.028 110.511 88.406 110.8 88.882L110.632 89.176V84.402H111.682V95H110.632V93.32L110.8 93.474C110.539 94.0153 110.147 94.4353 109.624 94.734C109.111 95.0233 108.532 95.168 107.888 95.168ZM107.944 94.118C108.448 94.118 108.901 93.992 109.302 93.74C109.713 93.488 110.035 93.1473 110.268 92.718C110.511 92.2793 110.632 91.7893 110.632 91.248C110.632 90.7067 110.511 90.2213 110.268 89.792C110.035 89.3533 109.713 89.008 109.302 88.756C108.901 88.504 108.448 88.378 107.944 88.378C107.449 88.378 107.001 88.504 106.6 88.756C106.199 89.008 105.881 89.3487 105.648 89.778C105.424 90.2073 105.312 90.6973 105.312 91.248C105.312 91.7893 105.424 92.2793 105.648 92.718C105.881 93.1473 106.194 93.488 106.586 93.74C106.987 93.992 107.44 94.118 107.944 94.118ZM113.838 95V87.496H114.888V95H113.838ZM113.838 86.11V84.57H114.888V86.11H113.838ZM117.037 95V87.496H118.087V88.952L117.849 88.896C118.036 88.4107 118.339 88.028 118.759 87.748C119.188 87.468 119.683 87.328 120.243 87.328C120.775 87.328 121.251 87.4493 121.671 87.692C122.1 87.9347 122.436 88.2707 122.679 88.7C122.931 89.12 123.057 89.596 123.057 90.128V95H122.007V90.534C122.007 90.0767 121.923 89.6893 121.755 89.372C121.596 89.0547 121.368 88.812 121.069 88.644C120.78 88.4667 120.444 88.378 120.061 88.378C119.678 88.378 119.338 88.4667 119.039 88.644C118.74 88.812 118.507 89.0593 118.339 89.386C118.171 89.7033 118.087 90.086 118.087 90.534V95H117.037ZM128.618 98.08C128.105 98.08 127.629 98.0007 127.19 97.842C126.761 97.6833 126.388 97.464 126.07 97.184C125.762 96.9133 125.524 96.596 125.356 96.232L126.322 95.714C126.472 96.0687 126.738 96.3767 127.12 96.638C127.503 96.8993 127.993 97.03 128.59 97.03C129.048 97.03 129.468 96.9413 129.85 96.764C130.233 96.5867 130.541 96.3253 130.774 95.98C131.008 95.6347 131.124 95.21 131.124 94.706V93.04L131.292 93.194C131.031 93.7353 130.644 94.1553 130.13 94.454C129.617 94.7433 129.057 94.888 128.45 94.888C127.75 94.888 127.12 94.72 126.56 94.384C126 94.048 125.557 93.5953 125.23 93.026C124.913 92.4473 124.754 91.808 124.754 91.108C124.754 90.3987 124.913 89.7593 125.23 89.19C125.557 88.6207 125.996 88.168 126.546 87.832C127.106 87.496 127.741 87.328 128.45 87.328C129.057 87.328 129.608 87.468 130.102 87.748C130.606 88.028 131.003 88.406 131.292 88.882L131.124 89.176V87.496H132.174V94.706C132.174 95.35 132.02 95.924 131.712 96.428C131.414 96.9413 130.994 97.3427 130.452 97.632C129.92 97.9307 129.309 98.08 128.618 98.08ZM128.506 93.838C128.992 93.838 129.43 93.7167 129.822 93.474C130.214 93.222 130.527 92.8907 130.76 92.48C131.003 92.06 131.124 91.6027 131.124 91.108C131.124 90.6133 131.003 90.1607 130.76 89.75C130.527 89.33 130.214 88.9987 129.822 88.756C129.43 88.504 128.992 88.378 128.506 88.378C128.012 88.378 127.564 88.504 127.162 88.756C126.761 88.9987 126.444 89.3253 126.21 89.736C125.986 90.1467 125.874 90.604 125.874 91.108C125.874 91.6027 125.986 92.06 126.21 92.48C126.444 92.8907 126.756 93.222 127.148 93.474C127.55 93.7167 128.002 93.838 128.506 93.838ZM136.711 97.8V87.496H137.761V89.176L137.593 88.882C137.891 88.406 138.288 88.028 138.783 87.748C139.287 87.468 139.861 87.328 140.505 87.328C141.214 87.328 141.844 87.5007 142.395 87.846C142.955 88.182 143.393 88.644 143.711 89.232C144.037 89.82 144.201 90.492 144.201 91.248C144.201 91.9947 144.037 92.6667 143.711 93.264C143.393 93.852 142.955 94.3187 142.395 94.664C141.844 95 141.214 95.168 140.505 95.168C139.861 95.168 139.277 95.0233 138.755 94.734C138.241 94.4353 137.854 94.0153 137.593 93.474L137.761 93.32V97.8H136.711ZM140.449 94.118C140.953 94.118 141.401 93.992 141.793 93.74C142.194 93.488 142.507 93.1473 142.731 92.718C142.964 92.2793 143.081 91.7893 143.081 91.248C143.081 90.6973 142.964 90.2073 142.731 89.778C142.507 89.3487 142.194 89.008 141.793 88.756C141.401 88.504 140.953 88.378 140.449 88.378C139.945 88.378 139.487 88.504 139.077 88.756C138.675 89.008 138.353 89.3533 138.111 89.792C137.877 90.2213 137.761 90.7067 137.761 91.248C137.761 91.7893 137.877 92.2793 138.111 92.718C138.353 93.1473 138.675 93.488 139.077 93.74C139.487 93.992 139.945 94.118 140.449 94.118ZM149.465 95.168C148.765 95.168 148.13 95 147.561 94.664C147.001 94.3187 146.557 93.8473 146.231 93.25C145.904 92.6527 145.741 91.976 145.741 91.22C145.741 90.464 145.899 89.7967 146.217 89.218C146.534 88.63 146.963 88.168 147.505 87.832C148.055 87.496 148.671 87.328 149.353 87.328C149.894 87.328 150.375 87.4307 150.795 87.636C151.224 87.832 151.588 88.1027 151.887 88.448C152.185 88.784 152.414 89.1667 152.573 89.596C152.731 90.016 152.811 90.45 152.811 90.898C152.811 90.9913 152.806 91.0987 152.797 91.22C152.787 91.332 152.773 91.4487 152.755 91.57H146.413V90.59H152.153L151.649 91.01C151.733 90.4967 151.672 90.0393 151.467 89.638C151.271 89.2273 150.986 88.9053 150.613 88.672C150.239 88.4293 149.819 88.308 149.353 88.308C148.886 88.308 148.452 88.4293 148.051 88.672C147.659 88.9147 147.351 89.2553 147.127 89.694C146.903 90.1233 146.814 90.6367 146.861 91.234C146.814 91.8313 146.907 92.354 147.141 92.802C147.383 93.2407 147.71 93.5813 148.121 93.824C148.541 94.0667 148.989 94.188 149.465 94.188C150.015 94.188 150.477 94.0573 150.851 93.796C151.224 93.5347 151.527 93.208 151.761 92.816L152.657 93.292C152.507 93.628 152.279 93.9407 151.971 94.23C151.663 94.51 151.294 94.7387 150.865 94.916C150.445 95.084 149.978 95.168 149.465 95.168ZM154.662 95V87.496H155.712V88.728L155.572 88.546C155.749 88.1913 156.015 87.9113 156.37 87.706C156.734 87.5007 157.173 87.398 157.686 87.398H158.162V88.448H157.504C156.963 88.448 156.529 88.616 156.202 88.952C155.875 89.288 155.712 89.764 155.712 90.38V95H154.662ZM159.392 95V87.496H160.442V95H159.392ZM159.392 86.11V84.57H160.442V86.11H159.392ZM166.106 95.168C165.396 95.168 164.752 95 164.174 94.664C163.595 94.3187 163.133 93.852 162.788 93.264C162.452 92.6667 162.284 91.99 162.284 91.234C162.284 90.4873 162.452 89.82 162.788 89.232C163.124 88.644 163.576 88.182 164.146 87.846C164.724 87.5007 165.378 87.328 166.106 87.328C166.834 87.328 167.482 87.496 168.052 87.832C168.63 88.168 169.083 88.63 169.41 89.218C169.746 89.806 169.914 90.478 169.914 91.234C169.914 91.9993 169.741 92.6807 169.396 93.278C169.05 93.866 168.588 94.328 168.01 94.664C167.44 95 166.806 95.168 166.106 95.168ZM166.106 94.118C166.61 94.118 167.062 93.992 167.464 93.74C167.874 93.488 168.196 93.1427 168.43 92.704C168.672 92.2653 168.794 91.7753 168.794 91.234C168.794 90.6927 168.672 90.2073 168.43 89.778C168.196 89.3487 167.874 89.008 167.464 88.756C167.062 88.504 166.61 88.378 166.106 88.378C165.602 88.378 165.144 88.504 164.734 88.756C164.332 89.008 164.01 89.3487 163.768 89.778C163.525 90.2073 163.404 90.6927 163.404 91.234C163.404 91.7753 163.525 92.2653 163.768 92.704C164.01 93.1427 164.332 93.488 164.734 93.74C165.144 93.992 165.602 94.118 166.106 94.118ZM175.154 95.168C174.454 95.168 173.824 95 173.264 94.664C172.704 94.3187 172.26 93.852 171.934 93.264C171.616 92.6667 171.458 91.9947 171.458 91.248C171.458 90.492 171.616 89.82 171.934 89.232C172.26 88.644 172.699 88.182 173.25 87.846C173.81 87.5007 174.444 87.328 175.154 87.328C175.798 87.328 176.372 87.468 176.876 87.748C177.38 88.028 177.776 88.406 178.066 88.882L177.898 89.176V84.402H178.948V95H177.898V93.32L178.066 93.474C177.804 94.0153 177.412 94.4353 176.89 94.734C176.376 95.0233 175.798 95.168 175.154 95.168ZM175.21 94.118C175.714 94.118 176.166 93.992 176.568 93.74C176.978 93.488 177.3 93.1473 177.534 92.718C177.776 92.2793 177.898 91.7893 177.898 91.248C177.898 90.7067 177.776 90.2213 177.534 89.792C177.3 89.3533 176.978 89.008 176.568 88.756C176.166 88.504 175.714 88.378 175.21 88.378C174.715 88.378 174.267 88.504 173.866 88.756C173.464 89.008 173.147 89.3487 172.914 89.778C172.69 90.2073 172.578 90.6973 172.578 91.248C172.578 91.7893 172.69 92.2793 172.914 92.718C173.147 93.1473 173.46 93.488 173.852 93.74C174.253 93.992 174.706 94.118 175.21 94.118ZM47.078 119V111.496H48.128V112.728L47.988 112.546C48.1653 112.191 48.4313 111.911 48.786 111.706C49.15 111.501 49.5887 111.398 50.102 111.398H50.578V112.448H49.92C49.3787 112.448 48.9447 112.616 48.618 112.952C48.2913 113.288 48.128 113.764 48.128 114.38V119H47.078ZM55.2245 119.168C54.5245 119.168 53.8898 119 53.3205 118.664C52.7605 118.319 52.3171 117.847 51.9905 117.25C51.6638 116.653 51.5005 115.976 51.5005 115.22C51.5005 114.464 51.6591 113.797 51.9765 113.218C52.2938 112.63 52.7231 112.168 53.2645 111.832C53.8151 111.496 54.4311 111.328 55.1125 111.328C55.6538 111.328 56.1345 111.431 56.5545 111.636C56.9838 111.832 57.3478 112.103 57.6465 112.448C57.9451 112.784 58.1738 113.167 58.3325 113.596C58.4911 114.016 58.5705 114.45 58.5705 114.898C58.5705 114.991 58.5658 115.099 58.5565 115.22C58.5471 115.332 58.5331 115.449 58.5145 115.57H52.1725V114.59H57.9125L57.4085 115.01C57.4925 114.497 57.4318 114.039 57.2265 113.638C57.0305 113.227 56.7458 112.905 56.3725 112.672C55.9991 112.429 55.5791 112.308 55.1125 112.308C54.6458 112.308 54.2118 112.429 53.8105 112.672C53.4185 112.915 53.1105 113.255 52.8865 113.694C52.6625 114.123 52.5738 114.637 52.6205 115.234C52.5738 115.831 52.6671 116.354 52.9005 116.802C53.1431 117.241 53.4698 117.581 53.8805 117.824C54.3005 118.067 54.7485 118.188 55.2245 118.188C55.7751 118.188 56.2371 118.057 56.6105 117.796C56.9838 117.535 57.2871 117.208 57.5205 116.816L58.4165 117.292C58.2671 117.628 58.0385 117.941 57.7305 118.23C57.4225 118.51 57.0538 118.739 56.6245 118.916C56.2045 119.084 55.7378 119.168 55.2245 119.168ZM66.5538 121.8V117.32L66.7218 117.474C66.4604 118.015 66.0684 118.435 65.5458 118.734C65.0324 119.023 64.4538 119.168 63.8098 119.168C63.1098 119.168 62.4798 119 61.9198 118.664C61.3598 118.319 60.9164 117.852 60.5898 117.264C60.2724 116.667 60.1138 115.995 60.1138 115.248C60.1138 114.492 60.2724 113.82 60.5898 113.232C60.9164 112.644 61.3551 112.182 61.9058 111.846C62.4658 111.501 63.1004 111.328 63.8098 111.328C64.4538 111.328 65.0278 111.468 65.5318 111.748C66.0358 112.028 66.4324 112.406 66.7218 112.882L66.5538 113.176V111.496H67.6038V121.8H66.5538ZM63.8658 118.118C64.3698 118.118 64.8224 117.992 65.2238 117.74C65.6344 117.488 65.9564 117.147 66.1898 116.718C66.4324 116.279 66.5538 115.789 66.5538 115.248C66.5538 114.707 66.4324 114.221 66.1898 113.792C65.9564 113.353 65.6344 113.008 65.2238 112.756C64.8224 112.504 64.3698 112.378 63.8658 112.378C63.3711 112.378 62.9231 112.504 62.5218 112.756C62.1204 113.008 61.8031 113.349 61.5698 113.778C61.3458 114.207 61.2338 114.697 61.2338 115.248C61.2338 115.789 61.3458 116.279 61.5698 116.718C61.8031 117.147 62.1158 117.488 62.5078 117.74C62.9091 117.992 63.3618 118.118 63.8658 118.118ZM72.4196 119.168C71.897 119.168 71.421 119.047 70.9916 118.804C70.5623 118.552 70.2216 118.207 69.9696 117.768C69.727 117.32 69.6056 116.807 69.6056 116.228V111.496H70.6556V116.102C70.6556 116.503 70.735 116.858 70.8936 117.166C71.0616 117.465 71.2903 117.698 71.5796 117.866C71.8783 118.034 72.219 118.118 72.6016 118.118C72.9843 118.118 73.325 118.034 73.6236 117.866C73.9223 117.689 74.1556 117.441 74.3236 117.124C74.4916 116.797 74.5756 116.41 74.5756 115.962V111.496H75.6256V119H74.5756V117.544L74.8136 117.6C74.6363 118.085 74.333 118.468 73.9036 118.748C73.4743 119.028 72.9796 119.168 72.4196 119.168ZM77.785 119V111.496H78.835V119H77.785ZM77.785 110.11V108.57H78.835V110.11H77.785ZM80.9843 119V111.496H82.0343V112.728L81.8943 112.546C82.0716 112.191 82.3376 111.911 82.6923 111.706C83.0563 111.501 83.4949 111.398 84.0083 111.398H84.4843V112.448H83.8263C83.2849 112.448 82.8509 112.616 82.5243 112.952C82.1976 113.288 82.0343 113.764 82.0343 114.38V119H80.9843ZM89.1307 119.168C88.4307 119.168 87.7961 119 87.2267 118.664C86.6667 118.319 86.2234 117.847 85.8967 117.25C85.5701 116.653 85.4067 115.976 85.4067 115.22C85.4067 114.464 85.5654 113.797 85.8827 113.218C86.2001 112.63 86.6294 112.168 87.1707 111.832C87.7214 111.496 88.3374 111.328 89.0187 111.328C89.5601 111.328 90.0407 111.431 90.4607 111.636C90.8901 111.832 91.2541 112.103 91.5527 112.448C91.8514 112.784 92.0801 113.167 92.2387 113.596C92.3974 114.016 92.4767 114.45 92.4767 114.898C92.4767 114.991 92.4721 115.099 92.4627 115.22C92.4534 115.332 92.4394 115.449 92.4207 115.57H86.0787V114.59H91.8187L91.3147 115.01C91.3987 114.497 91.3381 114.039 91.1327 113.638C90.9367 113.227 90.6521 112.905 90.2787 112.672C89.9054 112.429 89.4854 112.308 89.0187 112.308C88.5521 112.308 88.1181 112.429 87.7167 112.672C87.3247 112.915 87.0167 113.255 86.7927 113.694C86.5687 114.123 86.4801 114.637 86.5267 115.234C86.4801 115.831 86.5734 116.354 86.8067 116.802C87.0494 117.241 87.3761 117.581 87.7867 117.824C88.2067 118.067 88.6547 118.188 89.1307 118.188C89.6814 118.188 90.1434 118.057 90.5167 117.796C90.8901 117.535 91.1934 117.208 91.4267 116.816L92.3227 117.292C92.1734 117.628 91.9447 117.941 91.6367 118.23C91.3287 118.51 90.9601 118.739 90.5307 118.916C90.1107 119.084 89.6441 119.168 89.1307 119.168ZM97.716 119.168C97.016 119.168 96.386 119 95.826 118.664C95.266 118.319 94.8227 117.852 94.496 117.264C94.1787 116.667 94.02 115.995 94.02 115.248C94.02 114.492 94.1787 113.82 94.496 113.232C94.8227 112.644 95.2613 112.182 95.812 111.846C96.372 111.501 97.0067 111.328 97.716 111.328C98.36 111.328 98.934 111.468 99.438 111.748C99.942 112.028 100.339 112.406 100.628 112.882L100.46 113.176V108.402H101.51V119H100.46V117.32L100.628 117.474C100.367 118.015 99.9747 118.435 99.452 118.734C98.9387 119.023 98.36 119.168 97.716 119.168ZM97.772 118.118C98.276 118.118 98.7287 117.992 99.13 117.74C99.5407 117.488 99.8627 117.147 100.096 116.718C100.339 116.279 100.46 115.789 100.46 115.248C100.46 114.707 100.339 114.221 100.096 113.792C99.8627 113.353 99.5407 113.008 99.13 112.756C98.7287 112.504 98.276 112.378 97.772 112.378C97.2773 112.378 96.8293 112.504 96.428 112.756C96.0267 113.008 95.7093 113.349 95.476 113.778C95.252 114.207 95.14 114.697 95.14 115.248C95.14 115.789 95.252 116.279 95.476 116.718C95.7093 117.147 96.022 117.488 96.414 117.74C96.8153 117.992 97.268 118.118 97.772 118.118Z" fill="#596E7F"/>
</g>
</g>
<defs>
<filter id="filter0_d_293_905" x="0" y="0" width="259" height="184" filterUnits="userSpaceOnUse" color-interpolation-filters="sRGB">
<feFlood flood-opacity="0" result="BackgroundImageFix"/>
<feColorMatrix in="SourceAlpha" type="matrix" values="0 0 0 0 0 0 0 0 0 0 0 0 0 0 0 0 0 0 127 0" result="hardAlpha"/>
<feOffset/>
<feGaussianBlur stdDeviation="11"/>
<feComposite in2="hardAlpha" operator="out"/>
<feColorMatrix type="matrix" values="0 0 0 0 0 0 0 0 0 0 0 0 0 0 0 0 0 0 0.1 0"/>
<feBlend mode="normal" in2="BackgroundImageFix" result="effect1_dropShadow_293_905"/>
<feBlend mode="normal" in="SourceGraphic" in2="effect1_dropShadow_293_905" result="shape"/>
</filter>
<clipPath id="clip0_293_905">
<rect x="22" y="22" width="215" height="140" rx="10" fill="white"/>
</clipPath>
</defs>
</svg>
