<svg width="259" height="184" viewBox="0 0 259 184" fill="none" xmlns="http://www.w3.org/2000/svg">
<g filter="url(#filter0_d_293_910)">
<g clip-path="url(#clip0_293_910)">
<rect x="22" y="22" width="215" height="140" rx="10" fill="white"/>
<path opacity="0.5" d="M203.832 167V144.6H157.632V126.4L202.432 62.7H225.532V126.4H241.632V144.6H225.532V167H203.832ZM173.452 134.24L169.392 126.4H203.832V79.5L209.292 81.18L173.452 134.24Z" fill="#CCEAFF"/>
<path d="M53.632 65.216C52.684 65.216 51.802 65.042 50.986 64.694C50.182 64.346 49.48 63.866 48.88 63.254C48.292 62.63 47.83 61.898 47.494 61.058C47.158 60.218 46.99 59.294 46.99 58.286C46.99 57.29 47.152 56.372 47.476 55.532C47.812 54.68 48.28 53.948 48.88 53.336C49.48 52.712 50.182 52.232 50.986 51.896C51.79 51.548 52.672 51.374 53.632 51.374C54.58 51.374 55.426 51.536 56.17 51.86C56.926 52.184 57.562 52.61 58.078 53.138C58.594 53.654 58.966 54.218 59.194 54.83L57.286 55.73C56.998 55.01 56.536 54.428 55.9 53.984C55.276 53.528 54.52 53.3 53.632 53.3C52.744 53.3 51.958 53.51 51.274 53.93C50.59 54.35 50.056 54.932 49.672 55.676C49.3 56.42 49.114 57.29 49.114 58.286C49.114 59.282 49.3 60.158 49.672 60.914C50.056 61.658 50.59 62.24 51.274 62.66C51.958 63.068 52.744 63.272 53.632 63.272C54.52 63.272 55.276 63.05 55.9 62.606C56.536 62.162 56.998 61.58 57.286 60.86L59.194 61.76C58.966 62.36 58.594 62.924 58.078 63.452C57.562 63.98 56.926 64.406 56.17 64.73C55.426 65.054 54.58 65.216 53.632 65.216ZM61.1802 65V51.374H63.2142V65H61.1802ZM68.5083 65.216C67.8483 65.216 67.2663 65.102 66.7623 64.874C66.2703 64.634 65.8863 64.31 65.6103 63.902C65.3343 63.482 65.1963 62.99 65.1963 62.426C65.1963 61.898 65.3103 61.424 65.5383 61.004C65.7783 60.584 66.1443 60.23 66.6363 59.942C67.1283 59.654 67.7463 59.45 68.4903 59.33L71.8743 58.772V60.374L68.8863 60.896C68.3463 60.992 67.9503 61.166 67.6983 61.418C67.4463 61.658 67.3203 61.97 67.3203 62.354C67.3203 62.726 67.4583 63.032 67.7343 63.272C68.0223 63.5 68.3883 63.614 68.8323 63.614C69.3843 63.614 69.8643 63.494 70.2723 63.254C70.6923 63.014 71.0163 62.696 71.2443 62.3C71.4723 61.892 71.5863 61.442 71.5863 60.95V58.448C71.5863 57.968 71.4063 57.578 71.0463 57.278C70.6983 56.966 70.2303 56.81 69.6423 56.81C69.1023 56.81 68.6283 56.954 68.2203 57.242C67.8243 57.518 67.5303 57.878 67.3383 58.322L65.6463 57.476C65.8263 56.996 66.1203 56.576 66.5283 56.216C66.9363 55.844 67.4103 55.556 67.9503 55.352C68.5023 55.148 69.0843 55.046 69.6963 55.046C70.4643 55.046 71.1423 55.19 71.7303 55.478C72.3303 55.766 72.7923 56.168 73.1163 56.684C73.4523 57.188 73.6203 57.776 73.6203 58.448V65H71.6763V63.236L72.0903 63.29C71.8623 63.686 71.5683 64.028 71.2083 64.316C70.8603 64.604 70.4583 64.826 70.0023 64.982C69.5583 65.138 69.0603 65.216 68.5083 65.216ZM75.9985 65V55.262H78.0325V65H75.9985ZM75.9985 53.93V51.59H78.0325V53.93H75.9985ZM80.4107 65V55.262H82.3547V57.368L82.1027 57.044C82.3067 56.384 82.6787 55.886 83.2187 55.55C83.7587 55.214 84.3767 55.046 85.0727 55.046C85.8527 55.046 86.5427 55.256 87.1427 55.676C87.7547 56.084 88.1627 56.63 88.3667 57.314L87.7907 57.368C88.0787 56.588 88.5167 56.006 89.1047 55.622C89.7047 55.238 90.3887 55.046 91.1567 55.046C91.8287 55.046 92.4347 55.202 92.9747 55.514C93.5267 55.826 93.9647 56.258 94.2887 56.81C94.6127 57.362 94.7747 57.992 94.7747 58.7V65H92.7407V59.258C92.7407 58.766 92.6507 58.352 92.4707 58.016C92.3027 57.668 92.0627 57.404 91.7507 57.224C91.4507 57.032 91.0967 56.936 90.6887 56.936C90.2807 56.936 89.9207 57.032 89.6087 57.224C89.2967 57.404 89.0507 57.668 88.8707 58.016C88.6907 58.364 88.6007 58.778 88.6007 59.258V65H86.5847V59.258C86.5847 58.766 86.4947 58.352 86.3147 58.016C86.1467 57.668 85.9067 57.404 85.5947 57.224C85.2947 57.032 84.9347 56.936 84.5147 56.936C84.1067 56.936 83.7467 57.032 83.4347 57.224C83.1227 57.404 82.8767 57.668 82.6967 58.016C82.5287 58.364 82.4447 58.778 82.4447 59.258V65H80.4107ZM100.296 65V51.59H104.688C106.08 51.59 107.286 51.872 108.306 52.436C109.338 52.988 110.136 53.768 110.7 54.776C111.264 55.784 111.546 56.954 111.546 58.286C111.546 59.606 111.264 60.776 110.7 61.796C110.136 62.804 109.338 63.59 108.306 64.154C107.286 64.718 106.08 65 104.688 65H100.296ZM102.42 63.11H104.724C105.672 63.11 106.494 62.912 107.19 62.516C107.898 62.12 108.444 61.562 108.828 60.842C109.212 60.122 109.404 59.27 109.404 58.286C109.404 57.302 109.206 56.456 108.81 55.748C108.426 55.028 107.886 54.47 107.19 54.074C106.494 53.678 105.672 53.48 104.724 53.48H102.42V63.11ZM116.268 65.216C115.608 65.216 115.026 65.102 114.522 64.874C114.03 64.634 113.646 64.31 113.37 63.902C113.094 63.482 112.956 62.99 112.956 62.426C112.956 61.898 113.07 61.424 113.298 61.004C113.538 60.584 113.904 60.23 114.396 59.942C114.888 59.654 115.506 59.45 116.25 59.33L119.634 58.772V60.374L116.646 60.896C116.106 60.992 115.71 61.166 115.458 61.418C115.206 61.658 115.08 61.97 115.08 62.354C115.08 62.726 115.218 63.032 115.494 63.272C115.782 63.5 116.148 63.614 116.592 63.614C117.144 63.614 117.624 63.494 118.032 63.254C118.452 63.014 118.776 62.696 119.004 62.3C119.232 61.892 119.346 61.442 119.346 60.95V58.448C119.346 57.968 119.166 57.578 118.806 57.278C118.458 56.966 117.99 56.81 117.402 56.81C116.862 56.81 116.388 56.954 115.98 57.242C115.584 57.518 115.29 57.878 115.098 58.322L113.406 57.476C113.586 56.996 113.88 56.576 114.288 56.216C114.696 55.844 115.17 55.556 115.71 55.352C116.262 55.148 116.844 55.046 117.456 55.046C118.224 55.046 118.902 55.19 119.49 55.478C120.09 55.766 120.552 56.168 120.876 56.684C121.212 57.188 121.38 57.776 121.38 58.448V65H119.436V63.236L119.85 63.29C119.622 63.686 119.328 64.028 118.968 64.316C118.62 64.604 118.218 64.826 117.762 64.982C117.318 65.138 116.82 65.216 116.268 65.216ZM123.758 65V55.262H125.792V65H123.758ZM123.758 53.93V51.59H125.792V53.93H123.758ZM128.17 65V51.374H130.204V65H128.17ZM133.447 68.96C133.207 68.96 132.967 68.936 132.727 68.888C132.499 68.852 132.289 68.792 132.097 68.708V66.962C132.241 66.998 132.415 67.028 132.619 67.052C132.823 67.088 133.021 67.106 133.213 67.106C133.777 67.106 134.191 66.98 134.455 66.728C134.731 66.488 134.977 66.116 135.193 65.612L135.841 64.136L135.805 65.846L131.593 55.262H133.771L136.885 63.38H136.147L139.243 55.262H141.439L137.137 66.062C136.909 66.638 136.621 67.142 136.273 67.574C135.937 68.018 135.535 68.36 135.067 68.6C134.611 68.84 134.071 68.96 133.447 68.96Z" fill="#00070D"/>
<path d="M50.9 95.168C50.1627 95.168 49.514 95.014 48.954 94.706C48.394 94.398 47.96 93.978 47.652 93.446C47.344 92.9047 47.19 92.2887 47.19 91.598V84.57H48.31V91.598C48.31 92.102 48.4173 92.5453 48.632 92.928C48.856 93.3013 49.1593 93.5953 49.542 93.81C49.934 94.0153 50.3867 94.118 50.9 94.118C51.4133 94.118 51.8613 94.0153 52.244 93.81C52.636 93.5953 52.9393 93.3013 53.154 92.928C53.378 92.5453 53.49 92.102 53.49 91.598V84.57H54.61V91.598C54.61 92.2887 54.456 92.9047 54.148 93.446C53.84 93.978 53.406 94.398 52.846 94.706C52.2953 95.014 51.6467 95.168 50.9 95.168ZM56.8807 97.8V87.496H57.9307V89.176L57.7627 88.882C58.0614 88.406 58.4581 88.028 58.9527 87.748C59.4567 87.468 60.0307 87.328 60.6747 87.328C61.3841 87.328 62.0141 87.5007 62.5647 87.846C63.1247 88.182 63.5634 88.644 63.8807 89.232C64.2074 89.82 64.3707 90.492 64.3707 91.248C64.3707 91.9947 64.2074 92.6667 63.8807 93.264C63.5634 93.852 63.1247 94.3187 62.5647 94.664C62.0141 95 61.3841 95.168 60.6747 95.168C60.0307 95.168 59.4474 95.0233 58.9247 94.734C58.4114 94.4353 58.0241 94.0153 57.7627 93.474L57.9307 93.32V97.8H56.8807ZM60.6187 94.118C61.1227 94.118 61.5707 93.992 61.9627 93.74C62.3641 93.488 62.6767 93.1473 62.9007 92.718C63.1341 92.2793 63.2507 91.7893 63.2507 91.248C63.2507 90.6973 63.1341 90.2073 62.9007 89.778C62.6767 89.3487 62.3641 89.008 61.9627 88.756C61.5707 88.504 61.1227 88.378 60.6187 88.378C60.1147 88.378 59.6574 88.504 59.2467 88.756C58.8454 89.008 58.5234 89.3533 58.2807 89.792C58.0474 90.2213 57.9307 90.7067 57.9307 91.248C57.9307 91.7893 58.0474 92.2793 58.2807 92.718C58.5234 93.1473 58.8454 93.488 59.2467 93.74C59.6574 93.992 60.1147 94.118 60.6187 94.118ZM71.4675 95.084C70.7955 95.084 70.2775 94.888 69.9135 94.496C69.5495 94.104 69.3675 93.544 69.3675 92.816V88.546H67.9815V87.496H68.3315C68.6489 87.496 68.9009 87.3933 69.0875 87.188C69.2742 86.9733 69.3675 86.7073 69.3675 86.39V85.76H70.4175V87.496H72.0695V88.546H70.4175V92.816C70.4175 93.068 70.4549 93.292 70.5295 93.488C70.6042 93.6747 70.7302 93.824 70.9075 93.936C71.0942 94.048 71.3415 94.104 71.6495 94.104C71.7242 94.104 71.8129 94.0993 71.9155 94.09C72.0182 94.0807 72.1069 94.0713 72.1815 94.062V95C72.0695 95.028 71.9435 95.0467 71.8035 95.056C71.6635 95.0747 71.5515 95.084 71.4675 95.084ZM77.2658 95.168C76.5565 95.168 75.9125 95 75.3338 94.664C74.7552 94.3187 74.2932 93.852 73.9478 93.264C73.6118 92.6667 73.4438 91.99 73.4438 91.234C73.4438 90.4873 73.6118 89.82 73.9478 89.232C74.2838 88.644 74.7365 88.182 75.3058 87.846C75.8845 87.5007 76.5378 87.328 77.2658 87.328C77.9938 87.328 78.6425 87.496 79.2118 87.832C79.7905 88.168 80.2432 88.63 80.5698 89.218C80.9058 89.806 81.0738 90.478 81.0738 91.234C81.0738 91.9993 80.9012 92.6807 80.5558 93.278C80.2105 93.866 79.7485 94.328 79.1698 94.664C78.6005 95 77.9658 95.168 77.2658 95.168ZM77.2658 94.118C77.7698 94.118 78.2225 93.992 78.6238 93.74C79.0345 93.488 79.3565 93.1427 79.5898 92.704C79.8325 92.2653 79.9538 91.7753 79.9538 91.234C79.9538 90.6927 79.8325 90.2073 79.5898 89.778C79.3565 89.3487 79.0345 89.008 78.6238 88.756C78.2225 88.504 77.7698 88.378 77.2658 88.378C76.7618 88.378 76.3045 88.504 75.8938 88.756C75.4925 89.008 75.1705 89.3487 74.9278 89.778C74.6852 90.2073 74.5638 90.6927 74.5638 91.234C74.5638 91.7753 74.6852 92.2653 74.9278 92.704C75.1705 93.1427 75.4925 93.488 75.8938 93.74C76.3045 93.992 76.7618 94.118 77.2658 94.118ZM89.3646 95.168C88.5432 95.168 87.8199 94.944 87.1946 94.496C86.5786 94.0387 86.0979 93.4087 85.7526 92.606C85.4072 91.794 85.2346 90.8513 85.2346 89.778C85.2346 88.7047 85.4072 87.7667 85.7526 86.964C86.0979 86.152 86.5786 85.522 87.1946 85.074C87.8106 84.626 88.5292 84.402 89.3506 84.402C90.1719 84.402 90.8906 84.626 91.5066 85.074C92.1226 85.522 92.6032 86.152 92.9486 86.964C93.2939 87.7667 93.4666 88.7047 93.4666 89.778C93.4666 90.8513 93.2939 91.794 92.9486 92.606C92.6126 93.418 92.1366 94.048 91.5206 94.496C90.9046 94.944 90.1859 95.168 89.3646 95.168ZM89.3646 94.118C89.9619 94.118 90.4846 93.936 90.9326 93.572C91.3806 93.208 91.7306 92.704 91.9826 92.06C92.2346 91.4067 92.3606 90.646 92.3606 89.778C92.3606 88.91 92.2346 88.154 91.9826 87.51C91.7306 86.8567 91.3806 86.3527 90.9326 85.998C90.4846 85.634 89.9572 85.452 89.3506 85.452C88.7532 85.452 88.2306 85.634 87.7826 85.998C87.3346 86.3527 86.9846 86.8567 86.7326 87.51C86.4806 88.154 86.3546 88.91 86.3546 89.778C86.3546 90.6367 86.4806 91.3927 86.7326 92.046C86.9846 92.6993 87.3346 93.208 87.7826 93.572C88.2399 93.936 88.7672 94.118 89.3646 94.118ZM95.9225 95V93.46H97.0425V95H95.9225ZM102.714 95.168C102.173 95.168 101.669 95.0747 101.202 94.888C100.745 94.7013 100.344 94.4353 99.9983 94.09C99.653 93.7447 99.3917 93.334 99.2143 92.858L100.068 92.438C100.283 92.9793 100.633 93.4087 101.118 93.726C101.613 94.034 102.145 94.188 102.714 94.188C103.172 94.188 103.578 94.0807 103.932 93.866C104.296 93.6513 104.581 93.362 104.786 92.998C104.992 92.6247 105.094 92.2093 105.094 91.752C105.094 91.276 104.987 90.856 104.772 90.492C104.567 90.128 104.287 89.8433 103.932 89.638C103.578 89.4233 103.176 89.316 102.728 89.316C102.271 89.316 101.846 89.4233 101.454 89.638C101.072 89.8433 100.792 90.0953 100.614 90.394L99.7323 90.226L100.516 84.57H105.794V85.55H100.922L101.356 85.172L100.726 89.624L100.292 89.428C100.619 89.0267 101.002 88.742 101.44 88.574C101.879 88.3967 102.327 88.308 102.784 88.308C103.456 88.308 104.049 88.4667 104.562 88.784C105.076 89.092 105.477 89.5073 105.766 90.03C106.065 90.5433 106.214 91.1173 106.214 91.752C106.214 92.396 106.06 92.9793 105.752 93.502C105.454 94.0153 105.038 94.4213 104.506 94.72C103.984 95.0187 103.386 95.168 102.714 95.168ZM109.045 95L117.585 84.57H118.943L110.403 95H109.045ZM110.571 89.862C110.067 89.862 109.61 89.7407 109.199 89.498C108.789 89.246 108.457 88.9147 108.205 88.504C107.963 88.0933 107.841 87.636 107.841 87.132C107.841 86.628 107.963 86.1707 108.205 85.76C108.457 85.34 108.789 85.0087 109.199 84.766C109.61 84.5233 110.067 84.402 110.571 84.402C111.075 84.402 111.533 84.5233 111.943 84.766C112.354 85.0087 112.681 85.34 112.923 85.76C113.166 86.1707 113.287 86.628 113.287 87.132C113.287 87.636 113.166 88.0933 112.923 88.504C112.681 88.9147 112.354 89.246 111.943 89.498C111.533 89.7407 111.075 89.862 110.571 89.862ZM110.571 88.854C110.898 88.854 111.183 88.7747 111.425 88.616C111.677 88.448 111.873 88.2333 112.013 87.972C112.163 87.7013 112.237 87.4213 112.237 87.132C112.237 86.8333 112.163 86.5533 112.013 86.292C111.873 86.0307 111.677 85.8207 111.425 85.662C111.183 85.494 110.898 85.41 110.571 85.41C110.254 85.41 109.965 85.494 109.703 85.662C109.451 85.8207 109.251 86.0307 109.101 86.292C108.961 86.5533 108.891 86.8333 108.891 87.132C108.891 87.4213 108.961 87.7013 109.101 87.972C109.251 88.2333 109.451 88.448 109.703 88.616C109.965 88.7747 110.254 88.854 110.571 88.854ZM117.291 95.168C116.787 95.168 116.33 95.0467 115.919 94.804C115.509 94.552 115.177 94.2207 114.925 93.81C114.683 93.3993 114.561 92.942 114.561 92.438C114.561 91.934 114.683 91.4767 114.925 91.066C115.177 90.646 115.509 90.3147 115.919 90.072C116.33 89.8293 116.787 89.708 117.291 89.708C117.795 89.708 118.253 89.8293 118.663 90.072C119.074 90.3147 119.401 90.646 119.643 91.066C119.886 91.4767 120.007 91.934 120.007 92.438C120.007 92.942 119.886 93.3993 119.643 93.81C119.401 94.2207 119.074 94.552 118.663 94.804C118.253 95.0467 117.795 95.168 117.291 95.168ZM117.291 94.16C117.618 94.16 117.903 94.0807 118.145 93.922C118.397 93.754 118.593 93.5393 118.733 93.278C118.883 93.0073 118.957 92.7273 118.957 92.438C118.957 92.1393 118.883 91.8593 118.733 91.598C118.593 91.3367 118.397 91.1267 118.145 90.968C117.903 90.8 117.618 90.716 117.291 90.716C116.974 90.716 116.685 90.8 116.423 90.968C116.171 91.1267 115.971 91.3367 115.821 91.598C115.681 91.8593 115.611 92.1393 115.611 92.438C115.611 92.7273 115.681 93.0073 115.821 93.278C115.971 93.5393 116.171 93.754 116.423 93.922C116.685 94.0807 116.974 94.16 117.291 94.16ZM127.715 95.168C127.006 95.168 126.362 95 125.783 94.664C125.204 94.3187 124.742 93.852 124.397 93.264C124.061 92.6667 123.893 91.99 123.893 91.234C123.893 90.4873 124.061 89.82 124.397 89.232C124.733 88.644 125.186 88.182 125.755 87.846C126.334 87.5007 126.987 87.328 127.715 87.328C128.443 87.328 129.092 87.496 129.661 87.832C130.24 88.168 130.692 88.63 131.019 89.218C131.355 89.806 131.523 90.478 131.523 91.234C131.523 91.9993 131.35 92.6807 131.005 93.278C130.66 93.866 130.198 94.328 129.619 94.664C129.05 95 128.415 95.168 127.715 95.168ZM127.715 94.118C128.219 94.118 128.672 93.992 129.073 93.74C129.484 93.488 129.806 93.1427 130.039 92.704C130.282 92.2653 130.403 91.7753 130.403 91.234C130.403 90.6927 130.282 90.2073 130.039 89.778C129.806 89.3487 129.484 89.008 129.073 88.756C128.672 88.504 128.219 88.378 127.715 88.378C127.211 88.378 126.754 88.504 126.343 88.756C125.942 89.008 125.62 89.3487 125.377 89.778C125.134 90.2073 125.013 90.6927 125.013 91.234C125.013 91.7753 125.134 92.2653 125.377 92.704C125.62 93.1427 125.942 93.488 126.343 93.74C126.754 93.992 127.211 94.118 127.715 94.118ZM133.871 95V88.546H132.373V87.496H133.871V86.824C133.871 86.3013 133.988 85.8627 134.221 85.508C134.455 85.144 134.763 84.8687 135.145 84.682C135.528 84.4953 135.939 84.402 136.377 84.402C136.471 84.402 136.578 84.4113 136.699 84.43C136.821 84.4393 136.919 84.4533 136.993 84.472V85.424C136.928 85.4053 136.839 85.396 136.727 85.396C136.615 85.3867 136.536 85.382 136.489 85.382C136.041 85.382 135.668 85.4893 135.369 85.704C135.071 85.9187 134.921 86.292 134.921 86.824V87.496H136.755V88.546H134.921V95H133.871ZM141.13 98.08C140.981 98.08 140.827 98.066 140.668 98.038C140.519 98.0193 140.37 97.982 140.22 97.926V96.946C140.314 96.9553 140.43 96.9693 140.57 96.988C140.72 97.016 140.869 97.03 141.018 97.03C141.476 97.03 141.826 96.932 142.068 96.736C142.311 96.5493 142.549 96.1853 142.782 95.644L143.258 94.524L143.23 95.448L140.052 87.496H141.186L143.79 94.062H143.496L146.086 87.496H147.248L143.818 95.952C143.669 96.316 143.478 96.6613 143.244 96.988C143.02 97.3147 142.736 97.576 142.39 97.772C142.045 97.9773 141.625 98.08 141.13 98.08ZM151.86 95.168C151.15 95.168 150.506 95 149.928 94.664C149.349 94.3187 148.887 93.852 148.542 93.264C148.206 92.6667 148.038 91.99 148.038 91.234C148.038 90.4873 148.206 89.82 148.542 89.232C148.878 88.644 149.33 88.182 149.9 87.846C150.478 87.5007 151.132 87.328 151.86 87.328C152.588 87.328 153.236 87.496 153.806 87.832C154.384 88.168 154.837 88.63 155.164 89.218C155.5 89.806 155.668 90.478 155.668 91.234C155.668 91.9993 155.495 92.6807 155.15 93.278C154.804 93.866 154.342 94.328 153.764 94.664C153.194 95 152.56 95.168 151.86 95.168ZM151.86 94.118C152.364 94.118 152.816 93.992 153.218 93.74C153.628 93.488 153.95 93.1427 154.184 92.704C154.426 92.2653 154.548 91.7753 154.548 91.234C154.548 90.6927 154.426 90.2073 154.184 89.778C153.95 89.3487 153.628 89.008 153.218 88.756C152.816 88.504 152.364 88.378 151.86 88.378C151.356 88.378 150.898 88.504 150.488 88.756C150.086 89.008 149.764 89.3487 149.522 89.778C149.279 90.2073 149.158 90.6927 149.158 91.234C149.158 91.7753 149.279 92.2653 149.522 92.704C149.764 93.1427 150.086 93.488 150.488 93.74C150.898 93.992 151.356 94.118 151.86 94.118ZM160.179 95.168C159.657 95.168 159.181 95.0467 158.751 94.804C158.322 94.552 157.981 94.2067 157.729 93.768C157.487 93.32 157.365 92.8067 157.365 92.228V87.496H158.415V92.102C158.415 92.5033 158.495 92.858 158.653 93.166C158.821 93.4647 159.05 93.698 159.339 93.866C159.638 94.034 159.979 94.118 160.361 94.118C160.744 94.118 161.085 94.034 161.383 93.866C161.682 93.6887 161.915 93.4413 162.083 93.124C162.251 92.7973 162.335 92.41 162.335 91.962V87.496H163.385V95H162.335V93.544L162.573 93.6C162.396 94.0853 162.093 94.468 161.663 94.748C161.234 95.028 160.739 95.168 160.179 95.168ZM165.545 95V87.496H166.595V88.728L166.455 88.546C166.632 88.1913 166.898 87.9113 167.253 87.706C167.617 87.5007 168.055 87.398 168.569 87.398H169.045V88.448H168.387C167.845 88.448 167.411 88.616 167.085 88.952C166.758 89.288 166.595 89.764 166.595 90.38V95H165.545ZM50.872 119.168C50.228 119.168 49.6447 119.023 49.122 118.734C48.6087 118.435 48.2213 118.015 47.96 117.474L48.128 117.32V119H47.078V108.402H48.128V113.176L47.96 112.882C48.2587 112.406 48.6553 112.028 49.15 111.748C49.654 111.468 50.228 111.328 50.872 111.328C51.5813 111.328 52.2113 111.501 52.762 111.846C53.322 112.182 53.7607 112.644 54.078 113.232C54.4047 113.82 54.568 114.492 54.568 115.248C54.568 115.995 54.4047 116.667 54.078 117.264C53.7607 117.852 53.322 118.319 52.762 118.664C52.2113 119 51.5813 119.168 50.872 119.168ZM50.816 118.118C51.32 118.118 51.768 117.992 52.16 117.74C52.5613 117.488 52.874 117.147 53.098 116.718C53.3313 116.279 53.448 115.789 53.448 115.248C53.448 114.697 53.3313 114.207 53.098 113.778C52.874 113.349 52.5613 113.008 52.16 112.756C51.768 112.504 51.32 112.378 50.816 112.378C50.312 112.378 49.8547 112.504 49.444 112.756C49.0427 113.008 48.7207 113.353 48.478 113.792C48.2447 114.221 48.128 114.707 48.128 115.248C48.128 115.789 48.2447 116.279 48.478 116.718C48.7207 117.147 49.0427 117.488 49.444 117.74C49.8547 117.992 50.312 118.118 50.816 118.118ZM58.5859 119.168C58.1099 119.168 57.6852 119.079 57.3119 118.902C56.9386 118.715 56.6446 118.463 56.4299 118.146C56.2152 117.829 56.1079 117.465 56.1079 117.054C56.1079 116.662 56.1919 116.307 56.3599 115.99C56.5279 115.663 56.7892 115.388 57.1439 115.164C57.4986 114.94 57.9512 114.781 58.5019 114.688L61.4419 114.198V115.15L58.7539 115.598C58.2126 115.691 57.8206 115.864 57.5779 116.116C57.3446 116.368 57.2279 116.667 57.2279 117.012C57.2279 117.348 57.3586 117.633 57.6199 117.866C57.8906 118.099 58.2359 118.216 58.6559 118.216C59.1692 118.216 59.6172 118.109 59.9999 117.894C60.3826 117.67 60.6812 117.371 60.8959 116.998C61.1106 116.625 61.2179 116.209 61.2179 115.752V113.848C61.2179 113.4 61.0546 113.036 60.7279 112.756C60.4012 112.476 59.9766 112.336 59.4539 112.336C58.9966 112.336 58.5952 112.453 58.2499 112.686C57.9046 112.91 57.6479 113.204 57.4799 113.568L56.5279 113.05C56.6679 112.733 56.8872 112.443 57.1859 112.182C57.4939 111.921 57.8439 111.715 58.2359 111.566C58.6279 111.407 59.0339 111.328 59.4539 111.328C60.0046 111.328 60.4899 111.435 60.9099 111.65C61.3392 111.865 61.6706 112.163 61.9039 112.546C62.1466 112.919 62.2679 113.353 62.2679 113.848V119H61.2179V117.502L61.3719 117.656C61.2412 117.936 61.0359 118.193 60.7559 118.426C60.4852 118.65 60.1632 118.832 59.7899 118.972C59.4259 119.103 59.0246 119.168 58.5859 119.168ZM64.4276 119V108.402H65.4776V119H64.4276ZM69.7968 119.168C69.3208 119.168 68.8962 119.079 68.5228 118.902C68.1495 118.715 67.8555 118.463 67.6408 118.146C67.4262 117.829 67.3188 117.465 67.3188 117.054C67.3188 116.662 67.4028 116.307 67.5708 115.99C67.7388 115.663 68.0002 115.388 68.3548 115.164C68.7095 114.94 69.1622 114.781 69.7128 114.688L72.6528 114.198V115.15L69.9648 115.598C69.4235 115.691 69.0315 115.864 68.7888 116.116C68.5555 116.368 68.4388 116.667 68.4388 117.012C68.4388 117.348 68.5695 117.633 68.8308 117.866C69.1015 118.099 69.4468 118.216 69.8668 118.216C70.3802 118.216 70.8282 118.109 71.2108 117.894C71.5935 117.67 71.8922 117.371 72.1068 116.998C72.3215 116.625 72.4288 116.209 72.4288 115.752V113.848C72.4288 113.4 72.2655 113.036 71.9388 112.756C71.6122 112.476 71.1875 112.336 70.6648 112.336C70.2075 112.336 69.8062 112.453 69.4608 112.686C69.1155 112.91 68.8588 113.204 68.6908 113.568L67.7388 113.05C67.8788 112.733 68.0982 112.443 68.3968 112.182C68.7048 111.921 69.0548 111.715 69.4468 111.566C69.8388 111.407 70.2448 111.328 70.6648 111.328C71.2155 111.328 71.7008 111.435 72.1208 111.65C72.5502 111.865 72.8815 112.163 73.1148 112.546C73.3575 112.919 73.4788 113.353 73.4788 113.848V119H72.4288V117.502L72.5828 117.656C72.4522 117.936 72.2468 118.193 71.9668 118.426C71.6962 118.65 71.3742 118.832 71.0008 118.972C70.6368 119.103 70.2355 119.168 69.7968 119.168ZM75.6385 119V111.496H76.6885V112.952L76.4505 112.896C76.6372 112.411 76.9405 112.028 77.3605 111.748C77.7899 111.468 78.2845 111.328 78.8445 111.328C79.3765 111.328 79.8525 111.449 80.2725 111.692C80.7019 111.935 81.0379 112.271 81.2805 112.7C81.5325 113.12 81.6585 113.596 81.6585 114.128V119H80.6085V114.534C80.6085 114.077 80.5245 113.689 80.3565 113.372C80.1979 113.055 79.9692 112.812 79.6705 112.644C79.3812 112.467 79.0452 112.378 78.6625 112.378C78.2799 112.378 77.9392 112.467 77.6405 112.644C77.3419 112.812 77.1085 113.059 76.9405 113.386C76.7725 113.703 76.6885 114.086 76.6885 114.534V119H75.6385ZM87.0939 119.168C86.3566 119.168 85.7079 118.995 85.1479 118.65C84.5879 118.305 84.1493 117.838 83.8319 117.25C83.5146 116.653 83.3559 115.981 83.3559 115.234C83.3559 114.487 83.5146 113.82 83.8319 113.232C84.1493 112.644 84.5879 112.182 85.1479 111.846C85.7079 111.501 86.3566 111.328 87.0939 111.328C87.5606 111.328 87.9993 111.412 88.4099 111.58C88.8206 111.748 89.1846 111.977 89.5019 112.266C89.8193 112.546 90.0573 112.873 90.2159 113.246L89.2639 113.736C89.0773 113.335 88.7926 113.008 88.4099 112.756C88.0273 112.504 87.5886 112.378 87.0939 112.378C86.5993 112.378 86.1513 112.504 85.7499 112.756C85.3579 112.999 85.0453 113.339 84.8119 113.778C84.5879 114.207 84.4759 114.697 84.4759 115.248C84.4759 115.789 84.5879 116.279 84.8119 116.718C85.0453 117.147 85.3579 117.488 85.7499 117.74C86.1513 117.992 86.5993 118.118 87.0939 118.118C87.5886 118.118 88.0226 117.992 88.3959 117.74C88.7786 117.488 89.0679 117.152 89.2639 116.732L90.2159 117.25C90.0573 117.614 89.8193 117.941 89.5019 118.23C89.1846 118.519 88.8206 118.748 88.4099 118.916C87.9993 119.084 87.5606 119.168 87.0939 119.168ZM95.4745 119.168C94.7745 119.168 94.1398 119 93.5705 118.664C93.0105 118.319 92.5671 117.847 92.2405 117.25C91.9138 116.653 91.7505 115.976 91.7505 115.22C91.7505 114.464 91.9091 113.797 92.2265 113.218C92.5438 112.63 92.9731 112.168 93.5145 111.832C94.0651 111.496 94.6811 111.328 95.3625 111.328C95.9038 111.328 96.3845 111.431 96.8045 111.636C97.2338 111.832 97.5978 112.103 97.8965 112.448C98.1951 112.784 98.4238 113.167 98.5825 113.596C98.7411 114.016 98.8205 114.45 98.8205 114.898C98.8205 114.991 98.8158 115.099 98.8065 115.22C98.7971 115.332 98.7831 115.449 98.7645 115.57H92.4225V114.59H98.1625L97.6585 115.01C97.7425 114.497 97.6818 114.039 97.4765 113.638C97.2805 113.227 96.9958 112.905 96.6225 112.672C96.2491 112.429 95.8291 112.308 95.3625 112.308C94.8958 112.308 94.4618 112.429 94.0605 112.672C93.6685 112.915 93.3605 113.255 93.1365 113.694C92.9125 114.123 92.8238 114.637 92.8705 115.234C92.8238 115.831 92.9171 116.354 93.1505 116.802C93.3931 117.241 93.7198 117.581 94.1305 117.824C94.5505 118.067 94.9985 118.188 95.4745 118.188C96.0251 118.188 96.4871 118.057 96.8605 117.796C97.2338 117.535 97.5371 117.208 97.7705 116.816L98.6665 117.292C98.5171 117.628 98.2885 117.941 97.9805 118.23C97.6725 118.51 97.3038 118.739 96.8745 118.916C96.4545 119.084 95.9878 119.168 95.4745 119.168Z" fill="#596E7F"/>
</g>
</g>
<defs>
<filter id="filter0_d_293_910" x="0" y="0" width="259" height="184" filterUnits="userSpaceOnUse" color-interpolation-filters="sRGB">
<feFlood flood-opacity="0" result="BackgroundImageFix"/>
<feColorMatrix in="SourceAlpha" type="matrix" values="0 0 0 0 0 0 0 0 0 0 0 0 0 0 0 0 0 0 127 0" result="hardAlpha"/>
<feOffset/>
<feGaussianBlur stdDeviation="11"/>
<feComposite in2="hardAlpha" operator="out"/>
<feColorMatrix type="matrix" values="0 0 0 0 0 0 0 0 0 0 0 0 0 0 0 0 0 0 0.1 0"/>
<feBlend mode="normal" in2="BackgroundImageFix" result="effect1_dropShadow_293_910"/>
<feBlend mode="normal" in="SourceGraphic" in2="effect1_dropShadow_293_910" result="shape"/>
</filter>
<clipPath id="clip0_293_910">
<rect x="22" y="22" width="215" height="140" rx="10" fill="white"/>
</clipPath>
</defs>
</svg>
