<svg width="259" height="184" viewBox="0 0 259 184" fill="none" xmlns="http://www.w3.org/2000/svg">
<g filter="url(#filter0_d_293_901)">
<g clip-path="url(#clip0_293_901)">
<rect x="22" y="22" width="215" height="140" rx="10" fill="white"/>
<path opacity="0.5" d="M164.681 167V150.2L192.681 121.36C198.187 115.667 202.341 111.187 205.141 107.92C208.034 104.56 209.994 101.76 211.021 99.52C212.141 97.28 212.701 95.0867 212.701 92.94C212.701 89.1133 211.441 86.1267 208.921 83.98C206.494 81.74 203.414 80.62 199.681 80.62C195.854 80.62 192.447 81.74 189.461 83.98C186.474 86.1267 184.281 89.44 182.881 93.92L163.981 87.76C165.101 82.3467 167.434 77.6333 170.981 73.62C174.527 69.6067 178.821 66.5267 183.861 64.38C188.901 62.14 194.174 61.02 199.681 61.02C206.587 61.02 212.654 62.2333 217.881 64.66C223.107 67.0867 227.167 70.4933 230.061 74.88C232.954 79.2667 234.401 84.4 234.401 90.28C234.401 94.0133 233.747 97.7 232.441 101.34C231.134 104.887 229.127 108.527 226.421 112.26C223.807 115.9 220.401 119.867 216.201 124.16L192.261 148.8H235.381V167H164.681Z" fill="#CCEAFF"/>
<path d="M47.386 65V51.59H49.51V57.494H55.72V51.59H57.826V65H55.72V59.384H49.51V65H47.386ZM65.1048 65.216C64.1688 65.216 63.3108 64.994 62.5308 64.55C61.7628 64.106 61.1508 63.5 60.6948 62.732C60.2388 61.964 60.0108 61.094 60.0108 60.122C60.0108 59.138 60.2388 58.268 60.6948 57.512C61.1508 56.744 61.7628 56.144 62.5308 55.712C63.2988 55.268 64.1568 55.046 65.1048 55.046C66.0648 55.046 66.9228 55.268 67.6788 55.712C68.4468 56.144 69.0528 56.744 69.4968 57.512C69.9528 58.268 70.1808 59.138 70.1808 60.122C70.1808 61.106 69.9528 61.982 69.4968 62.75C69.0408 63.518 68.4288 64.124 67.6608 64.568C66.8928 65 66.0408 65.216 65.1048 65.216ZM65.1048 63.326C65.6808 63.326 66.1908 63.188 66.6348 62.912C67.0788 62.636 67.4268 62.258 67.6788 61.778C67.9428 61.286 68.0748 60.734 68.0748 60.122C68.0748 59.51 67.9428 58.964 67.6788 58.484C67.4268 58.004 67.0788 57.626 66.6348 57.35C66.1908 57.074 65.6808 56.936 65.1048 56.936C64.5408 56.936 64.0308 57.074 63.5748 57.35C63.1308 57.626 62.7768 58.004 62.5128 58.484C62.2608 58.964 62.1348 59.51 62.1348 60.122C62.1348 60.734 62.2608 61.286 62.5128 61.778C62.7768 62.258 63.1308 62.636 63.5748 62.912C64.0308 63.188 64.5408 63.326 65.1048 63.326ZM72.1665 65V51.374H74.2005V65H72.1665ZM81.0786 65.216C80.1426 65.216 79.3026 64.994 78.5586 64.55C77.8266 64.094 77.2446 63.482 76.8126 62.714C76.3926 61.946 76.1826 61.082 76.1826 60.122C76.1826 59.162 76.3986 58.298 76.8306 57.53C77.2626 56.762 77.8446 56.156 78.5766 55.712C79.3086 55.268 80.1366 55.046 81.0606 55.046C81.8406 55.046 82.5306 55.202 83.1306 55.514C83.7306 55.826 84.2046 56.258 84.5526 56.81L84.2466 57.278V51.374H86.2626V65H84.3366V63.02L84.5706 63.398C84.2346 63.986 83.7546 64.436 83.1306 64.748C82.5066 65.06 81.8226 65.216 81.0786 65.216ZM81.2766 63.326C81.8406 63.326 82.3446 63.188 82.7886 62.912C83.2446 62.636 83.5986 62.258 83.8506 61.778C84.1146 61.286 84.2466 60.734 84.2466 60.122C84.2466 59.51 84.1146 58.964 83.8506 58.484C83.5986 58.004 83.2446 57.626 82.7886 57.35C82.3446 57.074 81.8406 56.936 81.2766 56.936C80.7126 56.936 80.2026 57.074 79.7466 57.35C79.2906 57.626 78.9366 58.004 78.6846 58.484C78.4326 58.964 78.3066 59.51 78.3066 60.122C78.3066 60.734 78.4326 61.286 78.6846 61.778C78.9366 62.258 79.2846 62.636 79.7286 62.912C80.1846 63.188 80.7006 63.326 81.2766 63.326ZM91.7837 65V55.262H93.8177V65H91.7837ZM91.7837 53.93V51.59H93.8177V53.93H91.7837ZM96.1958 65V55.262H98.1398V57.17L97.9058 56.918C98.1458 56.306 98.5298 55.844 99.0578 55.532C99.5858 55.208 100.198 55.046 100.894 55.046C101.614 55.046 102.25 55.202 102.802 55.514C103.354 55.826 103.786 56.258 104.098 56.81C104.41 57.362 104.566 57.998 104.566 58.718V65H102.55V59.258C102.55 58.766 102.46 58.352 102.28 58.016C102.1 57.668 101.842 57.404 101.506 57.224C101.182 57.032 100.81 56.936 100.39 56.936C99.9698 56.936 99.5918 57.032 99.2558 57.224C98.9318 57.404 98.6798 57.668 98.4998 58.016C98.3198 58.364 98.2298 58.778 98.2298 59.258V65H96.1958ZM110.087 65V51.59H114.479C115.871 51.59 117.077 51.872 118.097 52.436C119.129 52.988 119.927 53.768 120.491 54.776C121.055 55.784 121.337 56.954 121.337 58.286C121.337 59.606 121.055 60.776 120.491 61.796C119.927 62.804 119.129 63.59 118.097 64.154C117.077 64.718 115.871 65 114.479 65H110.087ZM112.211 63.11H114.515C115.463 63.11 116.285 62.912 116.981 62.516C117.689 62.12 118.235 61.562 118.619 60.842C119.003 60.122 119.195 59.27 119.195 58.286C119.195 57.302 118.997 56.456 118.601 55.748C118.217 55.028 117.677 54.47 116.981 54.074C116.285 53.678 115.463 53.48 114.515 53.48H112.211V63.11ZM127.803 65.216C126.831 65.216 125.967 64.994 125.211 64.55C124.467 64.094 123.885 63.482 123.465 62.714C123.045 61.934 122.835 61.064 122.835 60.104C122.835 59.12 123.045 58.25 123.465 57.494C123.897 56.738 124.473 56.144 125.193 55.712C125.913 55.268 126.729 55.046 127.641 55.046C128.373 55.046 129.027 55.172 129.603 55.424C130.179 55.676 130.665 56.024 131.061 56.468C131.457 56.9 131.757 57.398 131.961 57.962C132.177 58.526 132.285 59.126 132.285 59.762C132.285 59.918 132.279 60.08 132.267 60.248C132.255 60.416 132.231 60.572 132.195 60.716H124.437V59.096H131.043L130.071 59.834C130.191 59.246 130.149 58.724 129.945 58.268C129.753 57.8 129.453 57.434 129.045 57.17C128.649 56.894 128.181 56.756 127.641 56.756C127.101 56.756 126.621 56.894 126.201 57.17C125.781 57.434 125.457 57.818 125.229 58.322C125.001 58.814 124.911 59.414 124.959 60.122C124.899 60.782 124.989 61.358 125.229 61.85C125.481 62.342 125.829 62.726 126.273 63.002C126.729 63.278 127.245 63.416 127.821 63.416C128.409 63.416 128.907 63.284 129.315 63.02C129.735 62.756 130.065 62.414 130.305 61.994L131.961 62.804C131.769 63.26 131.469 63.674 131.061 64.046C130.665 64.406 130.185 64.694 129.621 64.91C129.069 65.114 128.463 65.216 127.803 65.216ZM134.468 65V51.59H143.198V53.48H136.592V57.512H142.478V59.402H136.592V65H134.468ZM144.782 65V55.262H146.816V65H144.782ZM144.782 53.93V51.59H146.816V53.93H144.782ZM155.04 65L151.35 51.59H153.6L156.588 63.2H156.03L159.126 51.59H161.34L164.436 63.2H163.86L166.866 51.59H169.098L165.426 65H163.032L159.918 53.57H160.548L157.416 65H155.04ZM172.676 65.216C172.016 65.216 171.434 65.102 170.93 64.874C170.438 64.634 170.054 64.31 169.778 63.902C169.502 63.482 169.364 62.99 169.364 62.426C169.364 61.898 169.478 61.424 169.706 61.004C169.946 60.584 170.312 60.23 170.804 59.942C171.296 59.654 171.914 59.45 172.658 59.33L176.042 58.772V60.374L173.054 60.896C172.514 60.992 172.118 61.166 171.866 61.418C171.614 61.658 171.488 61.97 171.488 62.354C171.488 62.726 171.626 63.032 171.902 63.272C172.19 63.5 172.556 63.614 173 63.614C173.552 63.614 174.032 63.494 174.44 63.254C174.86 63.014 175.184 62.696 175.412 62.3C175.64 61.892 175.754 61.442 175.754 60.95V58.448C175.754 57.968 175.574 57.578 175.214 57.278C174.866 56.966 174.398 56.81 173.81 56.81C173.27 56.81 172.796 56.954 172.388 57.242C171.992 57.518 171.698 57.878 171.506 58.322L169.814 57.476C169.994 56.996 170.288 56.576 170.696 56.216C171.104 55.844 171.578 55.556 172.118 55.352C172.67 55.148 173.252 55.046 173.864 55.046C174.632 55.046 175.31 55.19 175.898 55.478C176.498 55.766 176.96 56.168 177.284 56.684C177.62 57.188 177.788 57.776 177.788 58.448V65H175.844V63.236L176.258 63.29C176.03 63.686 175.736 64.028 175.376 64.316C175.028 64.604 174.626 64.826 174.17 64.982C173.726 65.138 173.228 65.216 172.676 65.216ZM180.167 65V51.374H182.201V65H180.167ZM184.579 65V51.374H186.613V65H184.579ZM193.563 65.216C192.591 65.216 191.727 64.994 190.971 64.55C190.227 64.094 189.645 63.482 189.225 62.714C188.805 61.934 188.595 61.064 188.595 60.104C188.595 59.12 188.805 58.25 189.225 57.494C189.657 56.738 190.233 56.144 190.953 55.712C191.673 55.268 192.489 55.046 193.401 55.046C194.133 55.046 194.787 55.172 195.363 55.424C195.939 55.676 196.425 56.024 196.821 56.468C197.217 56.9 197.517 57.398 197.721 57.962C197.937 58.526 198.045 59.126 198.045 59.762C198.045 59.918 198.039 60.08 198.027 60.248C198.015 60.416 197.991 60.572 197.955 60.716H190.197V59.096H196.803L195.831 59.834C195.951 59.246 195.909 58.724 195.705 58.268C195.513 57.8 195.213 57.434 194.805 57.17C194.409 56.894 193.941 56.756 193.401 56.756C192.861 56.756 192.381 56.894 191.961 57.17C191.541 57.434 191.217 57.818 190.989 58.322C190.761 58.814 190.671 59.414 190.719 60.122C190.659 60.782 190.749 61.358 190.989 61.85C191.241 62.342 191.589 62.726 192.033 63.002C192.489 63.278 193.005 63.416 193.581 63.416C194.169 63.416 194.667 63.284 195.075 63.02C195.495 62.756 195.825 62.414 196.065 61.994L197.721 62.804C197.529 63.26 197.229 63.674 196.821 64.046C196.425 64.406 195.945 64.694 195.381 64.91C194.829 65.114 194.223 65.216 193.563 65.216ZM204.242 65.108C203.222 65.108 202.43 64.82 201.866 64.244C201.302 63.668 201.02 62.858 201.02 61.814V57.098H199.31V55.262H199.58C200.036 55.262 200.39 55.13 200.642 54.866C200.894 54.602 201.02 54.242 201.02 53.786V53.03H203.054V55.262H205.268V57.098H203.054V61.724C203.054 62.06 203.108 62.348 203.216 62.588C203.324 62.816 203.498 62.996 203.738 63.128C203.978 63.248 204.29 63.308 204.674 63.308C204.77 63.308 204.878 63.302 204.998 63.29C205.118 63.278 205.232 63.266 205.34 63.254V65C205.172 65.024 204.986 65.048 204.782 65.072C204.578 65.096 204.398 65.108 204.242 65.108Z" fill="#00070D"/>
<path d="M50.746 95.168C50.0833 95.168 49.4813 95.042 48.94 94.79C48.3987 94.538 47.9413 94.202 47.568 93.782C47.1947 93.3527 46.9287 92.8813 46.77 92.368L47.778 91.99C48.0207 92.6993 48.3987 93.2407 48.912 93.614C49.4253 93.978 50.0367 94.16 50.746 94.16C51.194 94.16 51.586 94.09 51.922 93.95C52.2673 93.8007 52.5333 93.5953 52.72 93.334C52.9067 93.0727 53 92.7693 53 92.424C53 91.9107 52.86 91.514 52.58 91.234C52.3 90.954 51.8987 90.7393 51.376 90.59L49.5 90.03C48.7627 89.8153 48.1933 89.456 47.792 88.952C47.4 88.448 47.204 87.874 47.204 87.23C47.204 86.6793 47.3393 86.194 47.61 85.774C47.8807 85.3447 48.2493 85.0087 48.716 84.766C49.192 84.5233 49.7287 84.402 50.326 84.402C50.9513 84.402 51.5113 84.5187 52.006 84.752C52.51 84.976 52.9347 85.2747 53.28 85.648C53.6253 86.0213 53.8727 86.4367 54.022 86.894L53.042 87.286C52.818 86.67 52.468 86.2033 51.992 85.886C51.5253 85.5687 50.9747 85.41 50.34 85.41C49.9387 85.41 49.584 85.48 49.276 85.62C48.9773 85.76 48.744 85.9607 48.576 86.222C48.408 86.4833 48.324 86.7913 48.324 87.146C48.324 87.5753 48.4593 87.9627 48.73 88.308C49.0007 88.644 49.416 88.896 49.976 89.064L51.628 89.554C52.4493 89.7967 53.07 90.1467 53.49 90.604C53.91 91.0613 54.12 91.6353 54.12 92.326C54.12 92.886 53.9753 93.3807 53.686 93.81C53.406 94.23 53.0093 94.5613 52.496 94.804C51.992 95.0467 51.4087 95.168 50.746 95.168ZM58.9988 95.084C58.3268 95.084 57.8088 94.888 57.4448 94.496C57.0808 94.104 56.8988 93.544 56.8988 92.816V88.546H55.5128V87.496H55.8628C56.1801 87.496 56.4321 87.3933 56.6188 87.188C56.8054 86.9733 56.8988 86.7073 56.8988 86.39V85.76H57.9488V87.496H59.6008V88.546H57.9488V92.816C57.9488 93.068 57.9861 93.292 58.0608 93.488C58.1354 93.6747 58.2614 93.824 58.4388 93.936C58.6254 94.048 58.8728 94.104 59.1808 94.104C59.2554 94.104 59.3441 94.0993 59.4468 94.09C59.5494 94.0807 59.6381 94.0713 59.7128 94.062V95C59.6008 95.028 59.4748 95.0467 59.3348 95.056C59.1948 95.0747 59.0828 95.084 58.9988 95.084ZM64.7971 95.168C64.0877 95.168 63.4437 95 62.8651 94.664C62.2864 94.3187 61.8244 93.852 61.4791 93.264C61.1431 92.6667 60.9751 91.99 60.9751 91.234C60.9751 90.4873 61.1431 89.82 61.4791 89.232C61.8151 88.644 62.2677 88.182 62.8371 87.846C63.4157 87.5007 64.0691 87.328 64.7971 87.328C65.5251 87.328 66.1737 87.496 66.7431 87.832C67.3217 88.168 67.7744 88.63 68.1011 89.218C68.4371 89.806 68.6051 90.478 68.6051 91.234C68.6051 91.9993 68.4324 92.6807 68.0871 93.278C67.7417 93.866 67.2797 94.328 66.7011 94.664C66.1317 95 65.4971 95.168 64.7971 95.168ZM64.7971 94.118C65.3011 94.118 65.7537 93.992 66.1551 93.74C66.5657 93.488 66.8877 93.1427 67.1211 92.704C67.3637 92.2653 67.4851 91.7753 67.4851 91.234C67.4851 90.6927 67.3637 90.2073 67.1211 89.778C66.8877 89.3487 66.5657 89.008 66.1551 88.756C65.7537 88.504 65.3011 88.378 64.7971 88.378C64.2931 88.378 63.8357 88.504 63.4251 88.756C63.0237 89.008 62.7017 89.3487 62.4591 89.778C62.2164 90.2073 62.0951 90.6927 62.0951 91.234C62.0951 91.7753 62.2164 92.2653 62.4591 92.704C62.7017 93.1427 63.0237 93.488 63.4251 93.74C63.8357 93.992 64.2931 94.118 64.7971 94.118ZM70.4569 95V87.496H71.5069V88.728L71.3669 88.546C71.5442 88.1913 71.8102 87.9113 72.1649 87.706C72.5289 87.5007 72.9676 87.398 73.4809 87.398H73.9569V88.448H73.2989C72.7576 88.448 72.3236 88.616 71.9969 88.952C71.6702 89.288 71.5069 89.764 71.5069 90.38V95H70.4569ZM78.6034 95.168C77.9034 95.168 77.2687 95 76.6994 94.664C76.1394 94.3187 75.696 93.8473 75.3694 93.25C75.0427 92.6527 74.8794 91.976 74.8794 91.22C74.8794 90.464 75.038 89.7967 75.3554 89.218C75.6727 88.63 76.102 88.168 76.6434 87.832C77.194 87.496 77.81 87.328 78.4914 87.328C79.0327 87.328 79.5134 87.4307 79.9334 87.636C80.3627 87.832 80.7267 88.1027 81.0254 88.448C81.324 88.784 81.5527 89.1667 81.7114 89.596C81.87 90.016 81.9494 90.45 81.9494 90.898C81.9494 90.9913 81.9447 91.0987 81.9354 91.22C81.926 91.332 81.912 91.4487 81.8934 91.57H75.5514V90.59H81.2914L80.7874 91.01C80.8714 90.4967 80.8107 90.0393 80.6054 89.638C80.4094 89.2273 80.1247 88.9053 79.7514 88.672C79.378 88.4293 78.958 88.308 78.4914 88.308C78.0247 88.308 77.5907 88.4293 77.1894 88.672C76.7974 88.9147 76.4894 89.2553 76.2654 89.694C76.0414 90.1233 75.9527 90.6367 75.9994 91.234C75.9527 91.8313 76.046 92.354 76.2794 92.802C76.522 93.2407 76.8487 93.5813 77.2594 93.824C77.6794 94.0667 78.1274 94.188 78.6034 94.188C79.154 94.188 79.616 94.0573 79.9894 93.796C80.3627 93.5347 80.666 93.208 80.8994 92.816L81.7954 93.292C81.646 93.628 81.4174 93.9407 81.1094 94.23C80.8014 94.51 80.4327 94.7387 80.0034 94.916C79.5834 95.084 79.1167 95.168 78.6034 95.168ZM86.1796 95V87.496H87.2296V95H86.1796ZM86.1796 86.11V84.57H87.2296V86.11H86.1796ZM89.3788 95V87.496H90.4288V88.952L90.1908 88.896C90.3774 88.4107 90.6808 88.028 91.1008 87.748C91.5301 87.468 92.0248 87.328 92.5848 87.328C93.1168 87.328 93.5928 87.4493 94.0128 87.692C94.4421 87.9347 94.7781 88.2707 95.0208 88.7C95.2728 89.12 95.3988 89.596 95.3988 90.128V95H94.3488V90.534C94.3488 90.0767 94.2648 89.6893 94.0968 89.372C93.9381 89.0547 93.7094 88.812 93.4108 88.644C93.1214 88.4667 92.7854 88.378 92.4028 88.378C92.0201 88.378 91.6794 88.4667 91.3808 88.644C91.0821 88.812 90.8488 89.0593 90.6808 89.386C90.5128 89.7033 90.4288 90.086 90.4288 90.534V95H89.3788ZM99.9371 95V84.57H100.917L104.837 90.254H104.291L108.197 84.57H109.177V95H108.057V86.082L108.421 86.222L104.585 91.78H104.529L100.707 86.222L101.057 86.082V95H99.9371ZM114.902 95.168C114.202 95.168 113.568 95 112.998 94.664C112.438 94.3187 111.995 93.8473 111.668 93.25C111.342 92.6527 111.178 91.976 111.178 91.22C111.178 90.464 111.337 89.7967 111.654 89.218C111.972 88.63 112.401 88.168 112.942 87.832C113.493 87.496 114.109 87.328 114.79 87.328C115.332 87.328 115.812 87.4307 116.232 87.636C116.662 87.832 117.026 88.1027 117.324 88.448C117.623 88.784 117.852 89.1667 118.01 89.596C118.169 90.016 118.248 90.45 118.248 90.898C118.248 90.9913 118.244 91.0987 118.234 91.22C118.225 91.332 118.211 91.4487 118.192 91.57H111.85V90.59H117.59L117.086 91.01C117.17 90.4967 117.11 90.0393 116.904 89.638C116.708 89.2273 116.424 88.9053 116.05 88.672C115.677 88.4293 115.257 88.308 114.79 88.308C114.324 88.308 113.89 88.4293 113.488 88.672C113.096 88.9147 112.788 89.2553 112.564 89.694C112.34 90.1233 112.252 90.6367 112.298 91.234C112.252 91.8313 112.345 92.354 112.578 92.802C112.821 93.2407 113.148 93.5813 113.558 93.824C113.978 94.0667 114.426 94.188 114.902 94.188C115.453 94.188 115.915 94.0573 116.288 93.796C116.662 93.5347 116.965 93.208 117.198 92.816L118.094 93.292C117.945 93.628 117.716 93.9407 117.408 94.23C117.1 94.51 116.732 94.7387 116.302 94.916C115.882 95.084 115.416 95.168 114.902 95.168ZM122.969 95.084C122.297 95.084 121.779 94.888 121.415 94.496C121.051 94.104 120.869 93.544 120.869 92.816V88.546H119.483V87.496H119.833C120.151 87.496 120.403 87.3933 120.589 87.188C120.776 86.9733 120.869 86.7073 120.869 86.39V85.76H121.919V87.496H123.571V88.546H121.919V92.816C121.919 93.068 121.957 93.292 122.031 93.488C122.106 93.6747 122.232 93.824 122.409 93.936C122.596 94.048 122.843 94.104 123.151 94.104C123.226 94.104 123.315 94.0993 123.417 94.09C123.52 94.0807 123.609 94.0713 123.683 94.062V95C123.571 95.028 123.445 95.0467 123.305 95.056C123.165 95.0747 123.053 95.084 122.969 95.084ZM127.561 95.168C127.085 95.168 126.66 95.0793 126.287 94.902C125.913 94.7153 125.619 94.4633 125.405 94.146C125.19 93.8287 125.083 93.4647 125.083 93.054C125.083 92.662 125.167 92.3073 125.335 91.99C125.503 91.6633 125.764 91.388 126.119 91.164C126.473 90.94 126.926 90.7813 127.477 90.688L130.417 90.198V91.15L127.729 91.598C127.187 91.6913 126.795 91.864 126.553 92.116C126.319 92.368 126.203 92.6667 126.203 93.012C126.203 93.348 126.333 93.6327 126.595 93.866C126.865 94.0993 127.211 94.216 127.631 94.216C128.144 94.216 128.592 94.1087 128.975 93.894C129.357 93.67 129.656 93.3713 129.871 92.998C130.085 92.6247 130.193 92.2093 130.193 91.752V89.848C130.193 89.4 130.029 89.036 129.703 88.756C129.376 88.476 128.951 88.336 128.428 88.336C127.971 88.336 127.57 88.4527 127.225 88.686C126.879 88.91 126.623 89.204 126.455 89.568L125.503 89.05C125.643 88.7327 125.862 88.4433 126.16 88.182C126.469 87.9207 126.819 87.7153 127.211 87.566C127.603 87.4073 128.009 87.328 128.428 87.328C128.979 87.328 129.465 87.4353 129.885 87.65C130.314 87.8647 130.645 88.1633 130.879 88.546C131.121 88.9193 131.243 89.3533 131.243 89.848V95H130.193V93.502L130.347 93.656C130.216 93.936 130.011 94.1927 129.731 94.426C129.46 94.65 129.138 94.832 128.765 94.972C128.401 95.1027 127.999 95.168 127.561 95.168ZM133.556 95V84.57H134.536L138.456 90.254H137.91L141.816 84.57H142.796V95H141.676V86.082L142.04 86.222L138.204 91.78H138.148L134.326 86.222L134.676 86.082V95H133.556ZM147.275 95.168C146.799 95.168 146.375 95.0793 146.001 94.902C145.628 94.7153 145.334 94.4633 145.119 94.146C144.905 93.8287 144.797 93.4647 144.797 93.054C144.797 92.662 144.881 92.3073 145.049 91.99C145.217 91.6633 145.479 91.388 145.833 91.164C146.188 90.94 146.641 90.7813 147.191 90.688L150.131 90.198V91.15L147.443 91.598C146.902 91.6913 146.51 91.864 146.267 92.116C146.034 92.368 145.917 92.6667 145.917 93.012C145.917 93.348 146.048 93.6327 146.309 93.866C146.58 94.0993 146.925 94.216 147.345 94.216C147.859 94.216 148.307 94.1087 148.689 93.894C149.072 93.67 149.371 93.3713 149.585 92.998C149.8 92.6247 149.907 92.2093 149.907 91.752V89.848C149.907 89.4 149.744 89.036 149.417 88.756C149.091 88.476 148.666 88.336 148.143 88.336C147.686 88.336 147.285 88.4527 146.939 88.686C146.594 88.91 146.337 89.204 146.169 89.568L145.217 89.05C145.357 88.7327 145.577 88.4433 145.875 88.182C146.183 87.9207 146.533 87.7153 146.925 87.566C147.317 87.4073 147.723 87.328 148.143 87.328C148.694 87.328 149.179 87.4353 149.599 87.65C150.029 87.8647 150.36 88.1633 150.593 88.546C150.836 88.9193 150.957 89.3533 150.957 89.848V95H149.907V93.502L150.061 93.656C149.931 93.936 149.725 94.1927 149.445 94.426C149.175 94.65 148.853 94.832 148.479 94.972C148.115 95.1027 147.714 95.168 147.275 95.168ZM155.721 95.168C155.002 95.168 154.372 94.986 153.831 94.622C153.29 94.258 152.898 93.7633 152.655 93.138L153.537 92.718C153.752 93.1753 154.05 93.5393 154.433 93.81C154.825 94.0807 155.254 94.216 155.721 94.216C156.169 94.216 156.547 94.1087 156.855 93.894C157.163 93.67 157.317 93.3807 157.317 93.026C157.317 92.7647 157.242 92.5593 157.093 92.41C156.944 92.2513 156.771 92.13 156.575 92.046C156.379 91.962 156.206 91.9013 156.057 91.864L154.979 91.556C154.288 91.36 153.789 91.0847 153.481 90.73C153.173 90.3753 153.019 89.9647 153.019 89.498C153.019 89.0593 153.131 88.6767 153.355 88.35C153.579 88.0233 153.882 87.7713 154.265 87.594C154.648 87.4167 155.072 87.328 155.539 87.328C156.174 87.328 156.748 87.496 157.261 87.832C157.784 88.1587 158.152 88.616 158.367 89.204L157.471 89.624C157.284 89.204 157.014 88.8773 156.659 88.644C156.314 88.4013 155.926 88.28 155.497 88.28C155.077 88.28 154.741 88.3873 154.489 88.602C154.237 88.8167 154.111 89.0873 154.111 89.414C154.111 89.666 154.176 89.8667 154.307 90.016C154.438 90.1653 154.587 90.2773 154.755 90.352C154.932 90.4267 155.086 90.4827 155.217 90.52L156.463 90.884C157.07 91.0613 157.541 91.3367 157.877 91.71C158.222 92.0833 158.395 92.522 158.395 93.026C158.395 93.4367 158.278 93.8053 158.045 94.132C157.821 94.4587 157.508 94.7153 157.107 94.902C156.706 95.0793 156.244 95.168 155.721 95.168ZM160.24 95V84.402H161.29V91.822L160.842 91.752L165.056 87.496H166.414L163.474 90.506L166.68 95H165.42L162.41 90.842L163.082 90.898L160.94 93.11L161.29 92.242V95H160.24ZM167.952 96.82V96.33C168.232 96.2553 168.437 96.1107 168.568 95.896C168.699 95.6813 168.764 95.3827 168.764 95H168.232V93.46H169.352V94.636C169.352 95.2427 169.235 95.728 169.002 96.092C168.769 96.4653 168.419 96.708 167.952 96.82ZM49.038 119V109.62H46.154V108.57H53.014V109.62H50.158V119H49.038ZM53.4081 119V111.496H54.4581V112.728L54.3181 112.546C54.4954 112.191 54.7614 111.911 55.1161 111.706C55.4801 111.501 55.9187 111.398 56.4321 111.398H56.9081V112.448H56.2501C55.7087 112.448 55.2747 112.616 54.9481 112.952C54.6214 113.288 54.4581 113.764 54.4581 114.38V119H53.4081ZM60.7985 119.168C60.2759 119.168 59.7999 119.047 59.3705 118.804C58.9412 118.552 58.6005 118.207 58.3485 117.768C58.1059 117.32 57.9845 116.807 57.9845 116.228V111.496H59.0345V116.102C59.0345 116.503 59.1139 116.858 59.2725 117.166C59.4405 117.465 59.6692 117.698 59.9585 117.866C60.2572 118.034 60.5979 118.118 60.9805 118.118C61.3632 118.118 61.7039 118.034 62.0025 117.866C62.3012 117.689 62.5345 117.441 62.7025 117.124C62.8705 116.797 62.9545 116.41 62.9545 115.962V111.496H64.0045V119H62.9545V117.544L63.1925 117.6C63.0152 118.085 62.7119 118.468 62.2825 118.748C61.8532 119.028 61.3585 119.168 60.7985 119.168ZM68.7679 119.168C68.0493 119.168 67.4193 118.986 66.8779 118.622C66.3366 118.258 65.9446 117.763 65.7019 117.138L66.5839 116.718C66.7986 117.175 67.0973 117.539 67.4799 117.81C67.8719 118.081 68.3013 118.216 68.7679 118.216C69.2159 118.216 69.5939 118.109 69.9019 117.894C70.2099 117.67 70.3639 117.381 70.3639 117.026C70.3639 116.765 70.2893 116.559 70.1399 116.41C69.9906 116.251 69.8179 116.13 69.6219 116.046C69.4259 115.962 69.2533 115.901 69.1039 115.864L68.0259 115.556C67.3353 115.36 66.8359 115.085 66.5279 114.73C66.2199 114.375 66.0659 113.965 66.0659 113.498C66.0659 113.059 66.1779 112.677 66.4019 112.35C66.6259 112.023 66.9293 111.771 67.3119 111.594C67.6946 111.417 68.1193 111.328 68.5859 111.328C69.2206 111.328 69.7946 111.496 70.3079 111.832C70.8306 112.159 71.1993 112.616 71.4139 113.204L70.5179 113.624C70.3313 113.204 70.0606 112.877 69.7059 112.644C69.3606 112.401 68.9733 112.28 68.5439 112.28C68.1239 112.28 67.7879 112.387 67.5359 112.602C67.2839 112.817 67.1579 113.087 67.1579 113.414C67.1579 113.666 67.2233 113.867 67.3539 114.016C67.4846 114.165 67.6339 114.277 67.8019 114.352C67.9793 114.427 68.1333 114.483 68.2639 114.52L69.5099 114.884C70.1166 115.061 70.5879 115.337 70.9239 115.71C71.2693 116.083 71.4419 116.522 71.4419 117.026C71.4419 117.437 71.3253 117.805 71.0919 118.132C70.8679 118.459 70.5553 118.715 70.1539 118.902C69.7526 119.079 69.2906 119.168 68.7679 119.168ZM76.157 119.084C75.485 119.084 74.967 118.888 74.603 118.496C74.239 118.104 74.057 117.544 74.057 116.816V112.546H72.671V111.496H73.021C73.3383 111.496 73.5903 111.393 73.777 111.188C73.9637 110.973 74.057 110.707 74.057 110.39V109.76H75.107V111.496H76.759V112.546H75.107V116.816C75.107 117.068 75.1443 117.292 75.219 117.488C75.2937 117.675 75.4197 117.824 75.597 117.936C75.7837 118.048 76.031 118.104 76.339 118.104C76.4137 118.104 76.5023 118.099 76.605 118.09C76.7077 118.081 76.7963 118.071 76.871 118.062V119C76.759 119.028 76.633 119.047 76.493 119.056C76.353 119.075 76.241 119.084 76.157 119.084ZM80.7867 119L77.7907 108.57H78.9247L81.5147 117.908H81.2767L83.9367 108.57H85.1267L87.7727 117.908H87.5207L90.1247 108.57H91.2587L88.2627 119H87.0727L84.3987 109.62H84.6507L81.9767 119H80.7867ZM94.1054 119.168C93.6294 119.168 93.2048 119.079 92.8314 118.902C92.4581 118.715 92.1641 118.463 91.9494 118.146C91.7348 117.829 91.6274 117.465 91.6274 117.054C91.6274 116.662 91.7114 116.307 91.8794 115.99C92.0474 115.663 92.3088 115.388 92.6634 115.164C93.0181 114.94 93.4708 114.781 94.0214 114.688L96.9614 114.198V115.15L94.2734 115.598C93.7321 115.691 93.3401 115.864 93.0974 116.116C92.8641 116.368 92.7474 116.667 92.7474 117.012C92.7474 117.348 92.8781 117.633 93.1394 117.866C93.4101 118.099 93.7554 118.216 94.1754 118.216C94.6888 118.216 95.1368 118.109 95.5194 117.894C95.9021 117.67 96.2008 117.371 96.4154 116.998C96.6301 116.625 96.7374 116.209 96.7374 115.752V113.848C96.7374 113.4 96.5741 113.036 96.2474 112.756C95.9208 112.476 95.4961 112.336 94.9734 112.336C94.5161 112.336 94.1148 112.453 93.7694 112.686C93.4241 112.91 93.1674 113.204 92.9994 113.568L92.0474 113.05C92.1874 112.733 92.4068 112.443 92.7054 112.182C93.0134 111.921 93.3634 111.715 93.7554 111.566C94.1474 111.407 94.5534 111.328 94.9734 111.328C95.5241 111.328 96.0094 111.435 96.4294 111.65C96.8588 111.865 97.1901 112.163 97.4234 112.546C97.6661 112.919 97.7874 113.353 97.7874 113.848V119H96.7374V117.502L96.8914 117.656C96.7608 117.936 96.5554 118.193 96.2754 118.426C96.0048 118.65 95.6828 118.832 95.3094 118.972C94.9454 119.103 94.5441 119.168 94.1054 119.168ZM99.9471 119V108.402H100.997V119H99.9471ZM103.146 119V108.402H104.196V119H103.146ZM109.762 119.168C109.062 119.168 108.427 119 107.858 118.664C107.298 118.319 106.854 117.847 106.528 117.25C106.201 116.653 106.038 115.976 106.038 115.22C106.038 114.464 106.196 113.797 106.514 113.218C106.831 112.63 107.26 112.168 107.802 111.832C108.352 111.496 108.968 111.328 109.65 111.328C110.191 111.328 110.672 111.431 111.092 111.636C111.521 111.832 111.885 112.103 112.184 112.448C112.482 112.784 112.711 113.167 112.87 113.596C113.028 114.016 113.108 114.45 113.108 114.898C113.108 114.991 113.103 115.099 113.094 115.22C113.084 115.332 113.07 115.449 113.052 115.57H106.71V114.59H112.45L111.946 115.01C112.03 114.497 111.969 114.039 111.764 113.638C111.568 113.227 111.283 112.905 110.91 112.672C110.536 112.429 110.116 112.308 109.65 112.308C109.183 112.308 108.749 112.429 108.348 112.672C107.956 112.915 107.648 113.255 107.424 113.694C107.2 114.123 107.111 114.637 107.158 115.234C107.111 115.831 107.204 116.354 107.438 116.802C107.68 117.241 108.007 117.581 108.418 117.824C108.838 118.067 109.286 118.188 109.762 118.188C110.312 118.188 110.774 118.057 111.148 117.796C111.521 117.535 111.824 117.208 112.058 116.816L112.954 117.292C112.804 117.628 112.576 117.941 112.268 118.23C111.96 118.51 111.591 118.739 111.162 118.916C110.742 119.084 110.275 119.168 109.762 119.168ZM117.829 119.084C117.157 119.084 116.639 118.888 116.275 118.496C115.911 118.104 115.729 117.544 115.729 116.816V112.546H114.343V111.496H114.693C115.01 111.496 115.262 111.393 115.449 111.188C115.636 110.973 115.729 110.707 115.729 110.39V109.76H116.779V111.496H118.431V112.546H116.779V116.816C116.779 117.068 116.816 117.292 116.891 117.488C116.966 117.675 117.092 117.824 117.269 117.936C117.456 118.048 117.703 118.104 118.011 118.104C118.086 118.104 118.174 118.099 118.277 118.09C118.38 118.081 118.468 118.071 118.543 118.062V119C118.431 119.028 118.305 119.047 118.165 119.056C118.025 119.075 117.913 119.084 117.829 119.084ZM120.429 120.82V120.33C120.709 120.255 120.914 120.111 121.045 119.896C121.175 119.681 121.241 119.383 121.241 119H120.709V117.46H121.829V118.636C121.829 119.243 121.712 119.728 121.479 120.092C121.245 120.465 120.895 120.708 120.429 120.82ZM129.955 119.168C129.255 119.168 128.62 119 128.051 118.664C127.491 118.319 127.048 117.847 126.721 117.25C126.394 116.653 126.231 115.976 126.231 115.22C126.231 114.464 126.39 113.797 126.707 113.218C127.024 112.63 127.454 112.168 127.995 111.832C128.546 111.496 129.162 111.328 129.843 111.328C130.384 111.328 130.865 111.431 131.285 111.636C131.714 111.832 132.078 112.103 132.377 112.448C132.676 112.784 132.904 113.167 133.063 113.596C133.222 114.016 133.301 114.45 133.301 114.898C133.301 114.991 133.296 115.099 133.287 115.22C133.278 115.332 133.264 115.449 133.245 115.57H126.903V114.59H132.643L132.139 115.01C132.223 114.497 132.162 114.039 131.957 113.638C131.761 113.227 131.476 112.905 131.103 112.672C130.73 112.429 130.31 112.308 129.843 112.308C129.376 112.308 128.942 112.429 128.541 112.672C128.149 112.915 127.841 113.255 127.617 113.694C127.393 114.123 127.304 114.637 127.351 115.234C127.304 115.831 127.398 116.354 127.631 116.802C127.874 117.241 128.2 117.581 128.611 117.824C129.031 118.067 129.479 118.188 129.955 118.188C130.506 118.188 130.968 118.057 131.341 117.796C131.714 117.535 132.018 117.208 132.251 116.816L133.147 117.292C132.998 117.628 132.769 117.941 132.461 118.23C132.153 118.51 131.784 118.739 131.355 118.916C130.935 119.084 130.468 119.168 129.955 119.168ZM138.022 119.084C137.35 119.084 136.832 118.888 136.468 118.496C136.104 118.104 135.922 117.544 135.922 116.816V112.546H134.536V111.496H134.886C135.204 111.496 135.456 111.393 135.642 111.188C135.829 110.973 135.922 110.707 135.922 110.39V109.76H136.972V111.496H138.624V112.546H136.972V116.816C136.972 117.068 137.01 117.292 137.084 117.488C137.159 117.675 137.285 117.824 137.462 117.936C137.649 118.048 137.896 118.104 138.204 118.104C138.279 118.104 138.368 118.099 138.47 118.09C138.573 118.081 138.662 118.071 138.736 118.062V119C138.624 119.028 138.498 119.047 138.358 119.056C138.218 119.075 138.106 119.084 138.022 119.084ZM143.737 119.168C142.999 119.168 142.351 118.995 141.791 118.65C141.231 118.305 140.792 117.838 140.475 117.25C140.157 116.653 139.999 115.981 139.999 115.234C139.999 114.487 140.157 113.82 140.475 113.232C140.792 112.644 141.231 112.182 141.791 111.846C142.351 111.501 142.999 111.328 143.737 111.328C144.203 111.328 144.642 111.412 145.053 111.58C145.463 111.748 145.827 111.977 146.145 112.266C146.462 112.546 146.7 112.873 146.859 113.246L145.907 113.736C145.72 113.335 145.435 113.008 145.053 112.756C144.67 112.504 144.231 112.378 143.737 112.378C143.242 112.378 142.794 112.504 142.393 112.756C142.001 112.999 141.688 113.339 141.455 113.778C141.231 114.207 141.119 114.697 141.119 115.248C141.119 115.789 141.231 116.279 141.455 116.718C141.688 117.147 142.001 117.488 142.393 117.74C142.794 117.992 143.242 118.118 143.737 118.118C144.231 118.118 144.665 117.992 145.039 117.74C145.421 117.488 145.711 117.152 145.907 116.732L146.859 117.25C146.7 117.614 146.462 117.941 146.145 118.23C145.827 118.519 145.463 118.748 145.053 118.916C144.642 119.084 144.203 119.168 143.737 119.168ZM149.065 119V117.46H150.185V119H149.065Z" fill="#596E7F"/>
</g>
</g>
<defs>
<filter id="filter0_d_293_901" x="0" y="0" width="259" height="184" filterUnits="userSpaceOnUse" color-interpolation-filters="sRGB">
<feFlood flood-opacity="0" result="BackgroundImageFix"/>
<feColorMatrix in="SourceAlpha" type="matrix" values="0 0 0 0 0 0 0 0 0 0 0 0 0 0 0 0 0 0 127 0" result="hardAlpha"/>
<feOffset/>
<feGaussianBlur stdDeviation="11"/>
<feComposite in2="hardAlpha" operator="out"/>
<feColorMatrix type="matrix" values="0 0 0 0 0 0 0 0 0 0 0 0 0 0 0 0 0 0 0.1 0"/>
<feBlend mode="normal" in2="BackgroundImageFix" result="effect1_dropShadow_293_901"/>
<feBlend mode="normal" in="SourceGraphic" in2="effect1_dropShadow_293_901" result="shape"/>
</filter>
<clipPath id="clip0_293_901">
<rect x="22" y="22" width="215" height="140" rx="10" fill="white"/>
</clipPath>
</defs>
</svg>
