<svg width="259" height="184" viewBox="0 0 259 184" fill="none" xmlns="http://www.w3.org/2000/svg">
<g filter="url(#filter0_d_293_918)">
<g clip-path="url(#clip0_293_918)">
<rect x="22" y="22" width="215" height="140" rx="10" fill="white"/>
<path opacity="0.5" d="M201.034 168.68C193.847 168.68 187.454 167.187 181.854 164.2C176.254 161.12 171.867 156.967 168.694 151.74C165.521 146.513 163.934 140.633 163.934 134.1C163.934 130.833 164.261 127.567 164.914 124.3C165.567 121.033 166.874 117.44 168.834 113.52C170.794 109.6 173.734 105.12 177.654 100.08L206.634 62.7H232.534L197.394 107.64L193.894 102.74C195.201 102.087 196.461 101.573 197.674 101.2C198.887 100.827 200.054 100.547 201.174 100.36C202.387 100.173 203.647 100.08 204.954 100.08C211.394 100.08 217.087 101.527 222.034 104.42C227.074 107.313 230.994 111.28 233.794 116.32C236.687 121.267 238.134 126.867 238.134 133.12C238.134 139.933 236.547 146.047 233.374 151.46C230.201 156.78 225.814 160.98 220.214 164.06C214.707 167.14 208.314 168.68 201.034 168.68ZM201.034 149.08C203.927 149.08 206.494 148.427 208.734 147.12C211.067 145.813 212.934 143.993 214.334 141.66C215.734 139.233 216.434 136.48 216.434 133.4C216.434 130.227 215.734 127.52 214.334 125.28C212.934 122.947 211.067 121.127 208.734 119.82C206.494 118.513 203.927 117.86 201.034 117.86C198.234 117.86 195.667 118.513 193.334 119.82C191.001 121.127 189.134 122.947 187.734 125.28C186.334 127.52 185.634 130.227 185.634 133.4C185.634 136.48 186.334 139.233 187.734 141.66C189.134 143.993 191.001 145.813 193.334 147.12C195.667 148.427 198.234 149.08 201.034 149.08Z" fill="#CCEAFF"/>
<path d="M47.386 65V51.59H51.778C53.17 51.59 54.376 51.872 55.396 52.436C56.428 52.988 57.226 53.768 57.79 54.776C58.354 55.784 58.636 56.954 58.636 58.286C58.636 59.606 58.354 60.776 57.79 61.796C57.226 62.804 56.428 63.59 55.396 64.154C54.376 64.718 53.17 65 51.778 65H47.386ZM49.51 63.11H51.814C52.762 63.11 53.584 62.912 54.28 62.516C54.988 62.12 55.534 61.562 55.918 60.842C56.302 60.122 56.494 59.27 56.494 58.286C56.494 57.302 56.296 56.456 55.9 55.748C55.516 55.028 54.976 54.47 54.28 54.074C53.584 53.678 52.762 53.48 51.814 53.48H49.51V63.11ZM65.2278 65.216C64.2918 65.216 63.4338 64.994 62.6538 64.55C61.8858 64.106 61.2738 63.5 60.8178 62.732C60.3618 61.964 60.1338 61.094 60.1338 60.122C60.1338 59.138 60.3618 58.268 60.8178 57.512C61.2738 56.744 61.8858 56.144 62.6538 55.712C63.4218 55.268 64.2798 55.046 65.2278 55.046C66.1878 55.046 67.0458 55.268 67.8018 55.712C68.5698 56.144 69.1758 56.744 69.6198 57.512C70.0758 58.268 70.3038 59.138 70.3038 60.122C70.3038 61.106 70.0758 61.982 69.6198 62.75C69.1638 63.518 68.5518 64.124 67.7838 64.568C67.0158 65 66.1638 65.216 65.2278 65.216ZM65.2278 63.326C65.8038 63.326 66.3138 63.188 66.7578 62.912C67.2018 62.636 67.5498 62.258 67.8018 61.778C68.0658 61.286 68.1978 60.734 68.1978 60.122C68.1978 59.51 68.0658 58.964 67.8018 58.484C67.5498 58.004 67.2018 57.626 66.7578 57.35C66.3138 57.074 65.8038 56.936 65.2278 56.936C64.6638 56.936 64.1538 57.074 63.6978 57.35C63.2538 57.626 62.8998 58.004 62.6358 58.484C62.3838 58.964 62.2578 59.51 62.2578 60.122C62.2578 60.734 62.3838 61.286 62.6358 61.778C62.8998 62.258 63.2538 62.636 63.6978 62.912C64.1538 63.188 64.6638 63.326 65.2278 63.326ZM72.2896 65V55.262H74.2336V57.17L73.9996 56.918C74.2396 56.306 74.6236 55.844 75.1516 55.532C75.6796 55.208 76.2916 55.046 76.9876 55.046C77.7076 55.046 78.3436 55.202 78.8956 55.514C79.4476 55.826 79.8796 56.258 80.1916 56.81C80.5036 57.362 80.6596 57.998 80.6596 58.718V65H78.6436V59.258C78.6436 58.766 78.5536 58.352 78.3736 58.016C78.1936 57.668 77.9356 57.404 77.5996 57.224C77.2756 57.032 76.9036 56.936 76.4836 56.936C76.0636 56.936 75.6856 57.032 75.3496 57.224C75.0256 57.404 74.7736 57.668 74.5936 58.016C74.4136 58.364 74.3236 58.778 74.3236 59.258V65H72.2896ZM83.5744 56.288L83.3044 51.59H85.1944L84.9244 56.288H83.5744ZM92.2516 65.108C91.2316 65.108 90.4396 64.82 89.8756 64.244C89.3116 63.668 89.0296 62.858 89.0296 61.814V57.098H87.3196V55.262H87.5896C88.0456 55.262 88.3996 55.13 88.6516 54.866C88.9036 54.602 89.0296 54.242 89.0296 53.786V53.03H91.0636V55.262H93.2776V57.098H91.0636V61.724C91.0636 62.06 91.1176 62.348 91.2256 62.588C91.3336 62.816 91.5076 62.996 91.7476 63.128C91.9876 63.248 92.2996 63.308 92.6836 63.308C92.7796 63.308 92.8876 63.302 93.0076 63.29C93.1276 63.278 93.2416 63.266 93.3496 63.254V65C93.1816 65.024 92.9956 65.048 92.7916 65.072C92.5876 65.096 92.4076 65.108 92.2516 65.108ZM98.679 65V51.59H100.659L105.699 58.574H104.709L109.659 51.59H111.639V65H109.533V54.092L110.325 54.308L105.267 61.22H105.051L100.101 54.308L100.803 54.092V65H98.679ZM114.213 65V55.262H116.247V65H114.213ZM114.213 53.93V51.59H116.247V53.93H114.213ZM122.226 65.216C121.23 65.216 120.354 64.97 119.598 64.478C118.854 63.986 118.332 63.326 118.031 62.498L119.598 61.76C119.862 62.312 120.222 62.75 120.678 63.074C121.146 63.398 121.662 63.56 122.226 63.56C122.706 63.56 123.096 63.452 123.396 63.236C123.696 63.02 123.846 62.726 123.846 62.354C123.846 62.114 123.78 61.922 123.648 61.778C123.516 61.622 123.348 61.496 123.144 61.4C122.952 61.304 122.754 61.232 122.55 61.184L121.02 60.752C120.18 60.512 119.55 60.152 119.13 59.672C118.722 59.18 118.518 58.61 118.518 57.962C118.518 57.374 118.668 56.864 118.968 56.432C119.268 55.988 119.682 55.646 120.21 55.406C120.738 55.166 121.332 55.046 121.992 55.046C122.88 55.046 123.672 55.268 124.368 55.712C125.064 56.144 125.556 56.75 125.844 57.53L124.278 58.268C124.086 57.8 123.78 57.428 123.36 57.152C122.952 56.876 122.49 56.738 121.974 56.738C121.53 56.738 121.176 56.846 120.912 57.062C120.648 57.266 120.516 57.536 120.516 57.872C120.516 58.1 120.576 58.292 120.696 58.448C120.816 58.592 120.972 58.712 121.164 58.808C121.356 58.892 121.554 58.964 121.758 59.024L123.342 59.492C124.146 59.72 124.764 60.08 125.196 60.572C125.628 61.052 125.844 61.628 125.844 62.3C125.844 62.876 125.688 63.386 125.376 63.83C125.076 64.262 124.656 64.604 124.116 64.856C123.576 65.096 122.946 65.216 122.226 65.216ZM131.436 65.216C130.44 65.216 129.564 64.97 128.808 64.478C128.064 63.986 127.542 63.326 127.242 62.498L128.808 61.76C129.072 62.312 129.432 62.75 129.888 63.074C130.356 63.398 130.872 63.56 131.436 63.56C131.916 63.56 132.306 63.452 132.606 63.236C132.906 63.02 133.056 62.726 133.056 62.354C133.056 62.114 132.99 61.922 132.858 61.778C132.726 61.622 132.558 61.496 132.354 61.4C132.162 61.304 131.964 61.232 131.76 61.184L130.23 60.752C129.39 60.512 128.76 60.152 128.34 59.672C127.932 59.18 127.728 58.61 127.728 57.962C127.728 57.374 127.878 56.864 128.178 56.432C128.478 55.988 128.892 55.646 129.42 55.406C129.948 55.166 130.542 55.046 131.202 55.046C132.09 55.046 132.882 55.268 133.578 55.712C134.274 56.144 134.766 56.75 135.054 57.53L133.488 58.268C133.296 57.8 132.99 57.428 132.57 57.152C132.162 56.876 131.7 56.738 131.184 56.738C130.74 56.738 130.386 56.846 130.122 57.062C129.858 57.266 129.726 57.536 129.726 57.872C129.726 58.1 129.786 58.292 129.906 58.448C130.026 58.592 130.182 58.712 130.374 58.808C130.566 58.892 130.764 58.964 130.968 59.024L132.552 59.492C133.356 59.72 133.974 60.08 134.406 60.572C134.838 61.052 135.054 61.628 135.054 62.3C135.054 62.876 134.898 63.386 134.586 63.83C134.286 64.262 133.866 64.604 133.326 64.856C132.786 65.096 132.156 65.216 131.436 65.216ZM140.392 65V51.59H144.784C146.176 51.59 147.382 51.872 148.402 52.436C149.434 52.988 150.232 53.768 150.796 54.776C151.36 55.784 151.642 56.954 151.642 58.286C151.642 59.606 151.36 60.776 150.796 61.796C150.232 62.804 149.434 63.59 148.402 64.154C147.382 64.718 146.176 65 144.784 65H140.392ZM142.516 63.11H144.82C145.768 63.11 146.59 62.912 147.286 62.516C147.994 62.12 148.54 61.562 148.924 60.842C149.308 60.122 149.5 59.27 149.5 58.286C149.5 57.302 149.302 56.456 148.906 55.748C148.522 55.028 147.982 54.47 147.286 54.074C146.59 53.678 145.768 53.48 144.82 53.48H142.516V63.11ZM156.364 65.216C155.704 65.216 155.122 65.102 154.618 64.874C154.126 64.634 153.742 64.31 153.466 63.902C153.19 63.482 153.052 62.99 153.052 62.426C153.052 61.898 153.166 61.424 153.394 61.004C153.634 60.584 154 60.23 154.492 59.942C154.984 59.654 155.602 59.45 156.346 59.33L159.73 58.772V60.374L156.742 60.896C156.202 60.992 155.806 61.166 155.554 61.418C155.302 61.658 155.176 61.97 155.176 62.354C155.176 62.726 155.314 63.032 155.59 63.272C155.878 63.5 156.244 63.614 156.688 63.614C157.24 63.614 157.72 63.494 158.128 63.254C158.548 63.014 158.872 62.696 159.1 62.3C159.328 61.892 159.442 61.442 159.442 60.95V58.448C159.442 57.968 159.262 57.578 158.902 57.278C158.554 56.966 158.086 56.81 157.498 56.81C156.958 56.81 156.484 56.954 156.076 57.242C155.68 57.518 155.386 57.878 155.194 58.322L153.502 57.476C153.682 56.996 153.976 56.576 154.384 56.216C154.792 55.844 155.266 55.556 155.806 55.352C156.358 55.148 156.94 55.046 157.552 55.046C158.32 55.046 158.998 55.19 159.586 55.478C160.186 55.766 160.648 56.168 160.972 56.684C161.308 57.188 161.476 57.776 161.476 58.448V65H159.532V63.236L159.946 63.29C159.718 63.686 159.424 64.028 159.064 64.316C158.716 64.604 158.314 64.826 157.858 64.982C157.414 65.138 156.916 65.216 156.364 65.216ZM164.718 68.96C164.478 68.96 164.238 68.936 163.998 68.888C163.77 68.852 163.56 68.792 163.368 68.708V66.962C163.512 66.998 163.686 67.028 163.89 67.052C164.094 67.088 164.292 67.106 164.484 67.106C165.048 67.106 165.462 66.98 165.726 66.728C166.002 66.488 166.248 66.116 166.464 65.612L167.112 64.136L167.076 65.846L162.864 55.262H165.042L168.156 63.38H167.418L170.514 55.262H172.71L168.408 66.062C168.18 66.638 167.892 67.142 167.544 67.574C167.208 68.018 166.806 68.36 166.338 68.6C165.882 68.84 165.342 68.96 164.718 68.96ZM177.702 65.216C176.706 65.216 175.83 64.97 175.074 64.478C174.33 63.986 173.808 63.326 173.508 62.498L175.074 61.76C175.338 62.312 175.698 62.75 176.154 63.074C176.622 63.398 177.138 63.56 177.702 63.56C178.182 63.56 178.572 63.452 178.872 63.236C179.172 63.02 179.322 62.726 179.322 62.354C179.322 62.114 179.256 61.922 179.124 61.778C178.992 61.622 178.824 61.496 178.62 61.4C178.428 61.304 178.23 61.232 178.026 61.184L176.496 60.752C175.656 60.512 175.026 60.152 174.606 59.672C174.198 59.18 173.994 58.61 173.994 57.962C173.994 57.374 174.144 56.864 174.444 56.432C174.744 55.988 175.158 55.646 175.686 55.406C176.214 55.166 176.808 55.046 177.468 55.046C178.356 55.046 179.148 55.268 179.844 55.712C180.54 56.144 181.032 56.75 181.32 57.53L179.754 58.268C179.562 57.8 179.256 57.428 178.836 57.152C178.428 56.876 177.966 56.738 177.45 56.738C177.006 56.738 176.652 56.846 176.388 57.062C176.124 57.266 175.992 57.536 175.992 57.872C175.992 58.1 176.052 58.292 176.172 58.448C176.292 58.592 176.448 58.712 176.64 58.808C176.832 58.892 177.03 58.964 177.234 59.024L178.818 59.492C179.622 59.72 180.24 60.08 180.672 60.572C181.104 61.052 181.32 61.628 181.32 62.3C181.32 62.876 181.164 63.386 180.852 63.83C180.552 64.262 180.132 64.604 179.592 64.856C179.052 65.096 178.422 65.216 177.702 65.216Z" fill="#00070D"/>
<path d="M47.232 95V84.57H48.212L54.33 93.348H53.952V84.57H55.072V95H54.092L47.974 86.166H48.352V95H47.232ZM60.9006 95.168C60.1913 95.168 59.5473 95 58.9686 94.664C58.3899 94.3187 57.9279 93.852 57.5826 93.264C57.2466 92.6667 57.0786 91.99 57.0786 91.234C57.0786 90.4873 57.2466 89.82 57.5826 89.232C57.9186 88.644 58.3713 88.182 58.9406 87.846C59.5193 87.5007 60.1726 87.328 60.9006 87.328C61.6286 87.328 62.2773 87.496 62.8466 87.832C63.4253 88.168 63.8779 88.63 64.2046 89.218C64.5406 89.806 64.7086 90.478 64.7086 91.234C64.7086 91.9993 64.5359 92.6807 64.1906 93.278C63.8453 93.866 63.3833 94.328 62.8046 94.664C62.2353 95 61.6006 95.168 60.9006 95.168ZM60.9006 94.118C61.4046 94.118 61.8573 93.992 62.2586 93.74C62.6693 93.488 62.9913 93.1427 63.2246 92.704C63.4673 92.2653 63.5886 91.7753 63.5886 91.234C63.5886 90.6927 63.4673 90.2073 63.2246 89.778C62.9913 89.3487 62.6693 89.008 62.2586 88.756C61.8573 88.504 61.4046 88.378 60.9006 88.378C60.3966 88.378 59.9393 88.504 59.5286 88.756C59.1273 89.008 58.8053 89.3487 58.5626 89.778C58.3199 90.2073 58.1986 90.6927 58.1986 91.234C58.1986 91.7753 58.3199 92.2653 58.5626 92.704C58.8053 93.1427 59.1273 93.488 59.5286 93.74C59.9393 93.992 60.3966 94.118 60.9006 94.118ZM71.1093 95.168C70.6333 95.168 70.2087 95.0793 69.8353 94.902C69.462 94.7153 69.168 94.4633 68.9533 94.146C68.7387 93.8287 68.6313 93.4647 68.6313 93.054C68.6313 92.662 68.7153 92.3073 68.8833 91.99C69.0513 91.6633 69.3127 91.388 69.6673 91.164C70.022 90.94 70.4747 90.7813 71.0253 90.688L73.9653 90.198V91.15L71.2773 91.598C70.736 91.6913 70.344 91.864 70.1013 92.116C69.868 92.368 69.7513 92.6667 69.7513 93.012C69.7513 93.348 69.882 93.6327 70.1433 93.866C70.414 94.0993 70.7593 94.216 71.1793 94.216C71.6927 94.216 72.1407 94.1087 72.5233 93.894C72.906 93.67 73.2047 93.3713 73.4193 92.998C73.634 92.6247 73.7413 92.2093 73.7413 91.752V89.848C73.7413 89.4 73.578 89.036 73.2513 88.756C72.9247 88.476 72.5 88.336 71.9773 88.336C71.52 88.336 71.1187 88.4527 70.7733 88.686C70.428 88.91 70.1713 89.204 70.0033 89.568L69.0513 89.05C69.1913 88.7327 69.4107 88.4433 69.7093 88.182C70.0173 87.9207 70.3673 87.7153 70.7593 87.566C71.1513 87.4073 71.5573 87.328 71.9773 87.328C72.528 87.328 73.0133 87.4353 73.4333 87.65C73.8627 87.8647 74.194 88.1633 74.4273 88.546C74.67 88.9193 74.7913 89.3533 74.7913 89.848V95H73.7413V93.502L73.8953 93.656C73.7647 93.936 73.5593 94.1927 73.2793 94.426C73.0087 94.65 72.6867 94.832 72.3133 94.972C71.9493 95.1027 71.548 95.168 71.1093 95.168ZM79.611 95.168C79.0884 95.168 78.6124 95.0467 78.183 94.804C77.7537 94.552 77.413 94.2067 77.161 93.768C76.9184 93.32 76.797 92.8067 76.797 92.228V87.496H77.847V92.102C77.847 92.5033 77.9264 92.858 78.085 93.166C78.253 93.4647 78.4817 93.698 78.771 93.866C79.0697 94.034 79.4104 94.118 79.793 94.118C80.1757 94.118 80.5164 94.034 80.815 93.866C81.1137 93.6887 81.347 93.4413 81.515 93.124C81.683 92.7973 81.767 92.41 81.767 91.962V87.496H82.817V95H81.767V93.544L82.005 93.6C81.8277 94.0853 81.5244 94.468 81.095 94.748C80.6657 95.028 80.171 95.168 79.611 95.168ZM87.8464 95.084C87.1744 95.084 86.6564 94.888 86.2924 94.496C85.9284 94.104 85.7464 93.544 85.7464 92.816V88.546H84.3604V87.496H84.7104C85.0278 87.496 85.2798 87.3933 85.4664 87.188C85.6531 86.9733 85.7464 86.7073 85.7464 86.39V85.76H86.7964V87.496H88.4484V88.546H86.7964V92.816C86.7964 93.068 86.8338 93.292 86.9084 93.488C86.9831 93.6747 87.1091 93.824 87.2864 93.936C87.4731 94.048 87.7204 94.104 88.0284 94.104C88.1031 94.104 88.1918 94.0993 88.2944 94.09C88.3971 94.0807 88.4858 94.0713 88.5604 94.062V95C88.4484 95.028 88.3224 95.0467 88.1824 95.056C88.0424 95.0747 87.9304 95.084 87.8464 95.084ZM93.6447 95.168C92.9354 95.168 92.2914 95 91.7127 94.664C91.1341 94.3187 90.6721 93.852 90.3267 93.264C89.9907 92.6667 89.8227 91.99 89.8227 91.234C89.8227 90.4873 89.9907 89.82 90.3267 89.232C90.6627 88.644 91.1154 88.182 91.6847 87.846C92.2634 87.5007 92.9167 87.328 93.6447 87.328C94.3727 87.328 95.0214 87.496 95.5907 87.832C96.1694 88.168 96.6221 88.63 96.9487 89.218C97.2847 89.806 97.4527 90.478 97.4527 91.234C97.4527 91.9993 97.2801 92.6807 96.9347 93.278C96.5894 93.866 96.1274 94.328 95.5487 94.664C94.9794 95 94.3447 95.168 93.6447 95.168ZM93.6447 94.118C94.1487 94.118 94.6014 93.992 95.0027 93.74C95.4134 93.488 95.7354 93.1427 95.9687 92.704C96.2114 92.2653 96.3327 91.7753 96.3327 91.234C96.3327 90.6927 96.2114 90.2073 95.9687 89.778C95.7354 89.3487 95.4134 89.008 95.0027 88.756C94.6014 88.504 94.1487 88.378 93.6447 88.378C93.1407 88.378 92.6834 88.504 92.2727 88.756C91.8714 89.008 91.5494 89.3487 91.3067 89.778C91.0641 90.2073 90.9427 90.6927 90.9427 91.234C90.9427 91.7753 91.0641 92.2653 91.3067 92.704C91.5494 93.1427 91.8714 93.488 92.2727 93.74C92.6834 93.992 93.1407 94.118 93.6447 94.118ZM99.2626 91.738V90.758H104.163V91.738H99.2626ZM109.707 95.168C108.97 95.168 108.321 94.9953 107.761 94.65C107.201 94.3047 106.763 93.838 106.445 93.25C106.128 92.6527 105.969 91.9807 105.969 91.234C105.969 90.4873 106.128 89.82 106.445 89.232C106.763 88.644 107.201 88.182 107.761 87.846C108.321 87.5007 108.97 87.328 109.707 87.328C110.174 87.328 110.613 87.412 111.023 87.58C111.434 87.748 111.798 87.9767 112.115 88.266C112.433 88.546 112.671 88.8727 112.829 89.246L111.877 89.736C111.691 89.3347 111.406 89.008 111.023 88.756C110.641 88.504 110.202 88.378 109.707 88.378C109.213 88.378 108.765 88.504 108.363 88.756C107.971 88.9987 107.659 89.3393 107.425 89.778C107.201 90.2073 107.089 90.6973 107.089 91.248C107.089 91.7893 107.201 92.2793 107.425 92.718C107.659 93.1473 107.971 93.488 108.363 93.74C108.765 93.992 109.213 94.118 109.707 94.118C110.202 94.118 110.636 93.992 111.009 93.74C111.392 93.488 111.681 93.152 111.877 92.732L112.829 93.25C112.671 93.614 112.433 93.9407 112.115 94.23C111.798 94.5193 111.434 94.748 111.023 94.916C110.613 95.084 110.174 95.168 109.707 95.168ZM114.672 95V84.402H115.722V95H114.672ZM120.041 95.168C119.565 95.168 119.14 95.0793 118.767 94.902C118.394 94.7153 118.1 94.4633 117.885 94.146C117.67 93.8287 117.563 93.4647 117.563 93.054C117.563 92.662 117.647 92.3073 117.815 91.99C117.983 91.6633 118.244 91.388 118.599 91.164C118.954 90.94 119.406 90.7813 119.957 90.688L122.897 90.198V91.15L120.209 91.598C119.668 91.6913 119.276 91.864 119.033 92.116C118.8 92.368 118.683 92.6667 118.683 93.012C118.683 93.348 118.814 93.6327 119.075 93.866C119.346 94.0993 119.691 94.216 120.111 94.216C120.624 94.216 121.072 94.1087 121.455 93.894C121.838 93.67 122.136 93.3713 122.351 92.998C122.566 92.6247 122.673 92.2093 122.673 91.752V89.848C122.673 89.4 122.51 89.036 122.183 88.756C121.856 88.476 121.432 88.336 120.909 88.336C120.452 88.336 120.05 88.4527 119.705 88.686C119.36 88.91 119.103 89.204 118.935 89.568L117.983 89.05C118.123 88.7327 118.342 88.4433 118.641 88.182C118.949 87.9207 119.299 87.7153 119.691 87.566C120.083 87.4073 120.489 87.328 120.909 87.328C121.46 87.328 121.945 87.4353 122.365 87.65C122.794 87.8647 123.126 88.1633 123.359 88.546C123.602 88.9193 123.723 89.3533 123.723 89.848V95H122.673V93.502L122.827 93.656C122.696 93.936 122.491 94.1927 122.211 94.426C121.94 94.65 121.618 94.832 121.245 94.972C120.881 95.1027 120.48 95.168 120.041 95.168ZM125.883 95V87.496H126.933V95H125.883ZM125.883 86.11V84.57H126.933V86.11H125.883ZM129.082 95V87.496H130.132V88.924L129.964 88.714C130.169 88.2753 130.473 87.9347 130.874 87.692C131.285 87.4493 131.733 87.328 132.218 87.328C132.797 87.328 133.319 87.4913 133.786 87.818C134.253 88.1447 134.584 88.5693 134.78 89.092L134.486 89.106C134.673 88.5273 134.995 88.0887 135.452 87.79C135.919 87.482 136.432 87.328 136.992 87.328C137.496 87.328 137.958 87.4493 138.378 87.692C138.807 87.9347 139.148 88.2707 139.4 88.7C139.661 89.12 139.792 89.596 139.792 90.128V95H138.742V90.534C138.742 90.0767 138.658 89.6893 138.49 89.372C138.331 89.0547 138.112 88.812 137.832 88.644C137.552 88.4667 137.23 88.378 136.866 88.378C136.511 88.378 136.189 88.4667 135.9 88.644C135.611 88.812 135.382 89.0593 135.214 89.386C135.046 89.7033 134.962 90.086 134.962 90.534V95H133.912V90.534C133.912 90.0767 133.828 89.6893 133.66 89.372C133.501 89.0547 133.282 88.812 133.002 88.644C132.722 88.4667 132.4 88.378 132.036 88.378C131.672 88.378 131.345 88.4667 131.056 88.644C130.776 88.812 130.552 89.0593 130.384 89.386C130.216 89.7033 130.132 90.086 130.132 90.534V95H129.082ZM141.839 96.82V96.33C142.119 96.2553 142.324 96.1107 142.455 95.896C142.585 95.6813 142.651 95.3827 142.651 95H142.119V93.46H143.239V94.636C143.239 95.2427 143.122 95.728 142.889 96.092C142.655 96.4653 142.305 96.708 141.839 96.82ZM147.949 95V87.496H148.999V88.952L148.761 88.896C148.948 88.4107 149.251 88.028 149.671 87.748C150.1 87.468 150.595 87.328 151.155 87.328C151.687 87.328 152.163 87.4493 152.583 87.692C153.012 87.9347 153.348 88.2707 153.591 88.7C153.843 89.12 153.969 89.596 153.969 90.128V95H152.919V90.534C152.919 90.0767 152.835 89.6893 152.667 89.372C152.508 89.0547 152.28 88.812 151.981 88.644C151.692 88.4667 151.356 88.378 150.973 88.378C150.59 88.378 150.25 88.4667 149.951 88.644C149.652 88.812 149.419 89.0593 149.251 89.386C149.083 89.7033 148.999 90.086 148.999 90.534V95H147.949ZM159.488 95.168C158.779 95.168 158.135 95 157.556 94.664C156.978 94.3187 156.516 93.852 156.17 93.264C155.834 92.6667 155.666 91.99 155.666 91.234C155.666 90.4873 155.834 89.82 156.17 89.232C156.506 88.644 156.959 88.182 157.528 87.846C158.107 87.5007 158.76 87.328 159.488 87.328C160.216 87.328 160.865 87.496 161.434 87.832C162.013 88.168 162.466 88.63 162.792 89.218C163.128 89.806 163.296 90.478 163.296 91.234C163.296 91.9993 163.124 92.6807 162.778 93.278C162.433 93.866 161.971 94.328 161.392 94.664C160.823 95 160.188 95.168 159.488 95.168ZM159.488 94.118C159.992 94.118 160.445 93.992 160.846 93.74C161.257 93.488 161.579 93.1427 161.812 92.704C162.055 92.2653 162.176 91.7753 162.176 91.234C162.176 90.6927 162.055 90.2073 161.812 89.778C161.579 89.3487 161.257 89.008 160.846 88.756C160.445 88.504 159.992 88.378 159.488 88.378C158.984 88.378 158.527 88.504 158.116 88.756C157.715 89.008 157.393 89.3487 157.15 89.778C156.908 90.2073 156.786 90.6927 156.786 91.234C156.786 91.7753 156.908 92.2653 157.15 92.704C157.393 93.1427 157.715 93.488 158.116 93.74C158.527 93.992 158.984 94.118 159.488 94.118ZM47.078 119V111.496H48.128V112.728L47.988 112.546C48.1653 112.191 48.4313 111.911 48.786 111.706C49.15 111.501 49.5887 111.398 50.102 111.398H50.578V112.448H49.92C49.3787 112.448 48.9447 112.616 48.618 112.952C48.2913 113.288 48.128 113.764 48.128 114.38V119H47.078ZM55.3225 119.168C54.6131 119.168 53.9691 119 53.3905 118.664C52.8118 118.319 52.3498 117.852 52.0045 117.264C51.6685 116.667 51.5005 115.99 51.5005 115.234C51.5005 114.487 51.6685 113.82 52.0045 113.232C52.3405 112.644 52.7931 112.182 53.3625 111.846C53.9411 111.501 54.5945 111.328 55.3225 111.328C56.0505 111.328 56.6991 111.496 57.2685 111.832C57.8471 112.168 58.2998 112.63 58.6265 113.218C58.9625 113.806 59.1305 114.478 59.1305 115.234C59.1305 115.999 58.9578 116.681 58.6125 117.278C58.2671 117.866 57.8051 118.328 57.2265 118.664C56.6571 119 56.0225 119.168 55.3225 119.168ZM55.3225 118.118C55.8265 118.118 56.2791 117.992 56.6805 117.74C57.0911 117.488 57.4131 117.143 57.6465 116.704C57.8891 116.265 58.0105 115.775 58.0105 115.234C58.0105 114.693 57.8891 114.207 57.6465 113.778C57.4131 113.349 57.0911 113.008 56.6805 112.756C56.2791 112.504 55.8265 112.378 55.3225 112.378C54.8185 112.378 54.3611 112.504 53.9505 112.756C53.5491 113.008 53.2271 113.349 52.9845 113.778C52.7418 114.207 52.6205 114.693 52.6205 115.234C52.6205 115.775 52.7418 116.265 52.9845 116.704C53.2271 117.143 53.5491 117.488 53.9505 117.74C54.3611 117.992 54.8185 118.118 55.3225 118.118ZM60.9823 119V108.402H62.0323V119H60.9823ZM64.1815 119V108.402H65.2315V119H64.1815ZM70.8947 119.168C70.1854 119.168 69.5414 119 68.9627 118.664C68.3841 118.319 67.9221 117.852 67.5767 117.264C67.2407 116.667 67.0727 115.99 67.0727 115.234C67.0727 114.487 67.2407 113.82 67.5767 113.232C67.9127 112.644 68.3654 112.182 68.9347 111.846C69.5134 111.501 70.1667 111.328 70.8947 111.328C71.6227 111.328 72.2714 111.496 72.8407 111.832C73.4194 112.168 73.8721 112.63 74.1987 113.218C74.5347 113.806 74.7027 114.478 74.7027 115.234C74.7027 115.999 74.5301 116.681 74.1847 117.278C73.8394 117.866 73.3774 118.328 72.7987 118.664C72.2294 119 71.5947 119.168 70.8947 119.168ZM70.8947 118.118C71.3987 118.118 71.8514 117.992 72.2527 117.74C72.6634 117.488 72.9854 117.143 73.2187 116.704C73.4614 116.265 73.5827 115.775 73.5827 115.234C73.5827 114.693 73.4614 114.207 73.2187 113.778C72.9854 113.349 72.6634 113.008 72.2527 112.756C71.8514 112.504 71.3987 112.378 70.8947 112.378C70.3907 112.378 69.9334 112.504 69.5227 112.756C69.1214 113.008 68.7994 113.349 68.5567 113.778C68.3141 114.207 68.1927 114.693 68.1927 115.234C68.1927 115.775 68.3141 116.265 68.5567 116.704C68.7994 117.143 69.1214 117.488 69.5227 117.74C69.9334 117.992 70.3907 118.118 70.8947 118.118ZM78.4198 119L75.4938 111.496H76.6698L79.1338 118.076H78.7558L81.2338 111.496H82.4238L79.4698 119H78.4198ZM86.9295 119.168C86.2295 119.168 85.5949 119 85.0255 118.664C84.4655 118.319 84.0222 117.847 83.6955 117.25C83.3689 116.653 83.2055 115.976 83.2055 115.22C83.2055 114.464 83.3642 113.797 83.6815 113.218C83.9989 112.63 84.4282 112.168 84.9695 111.832C85.5202 111.496 86.1362 111.328 86.8175 111.328C87.3589 111.328 87.8395 111.431 88.2595 111.636C88.6889 111.832 89.0529 112.103 89.3515 112.448C89.6502 112.784 89.8789 113.167 90.0375 113.596C90.1962 114.016 90.2755 114.45 90.2755 114.898C90.2755 114.991 90.2709 115.099 90.2615 115.22C90.2522 115.332 90.2382 115.449 90.2195 115.57H83.8775V114.59H89.6175L89.1135 115.01C89.1975 114.497 89.1369 114.039 88.9315 113.638C88.7355 113.227 88.4509 112.905 88.0775 112.672C87.7042 112.429 87.2842 112.308 86.8175 112.308C86.3509 112.308 85.9169 112.429 85.5155 112.672C85.1235 112.915 84.8155 113.255 84.5915 113.694C84.3675 114.123 84.2789 114.637 84.3255 115.234C84.2789 115.831 84.3722 116.354 84.6055 116.802C84.8482 117.241 85.1749 117.581 85.5855 117.824C86.0055 118.067 86.4535 118.188 86.9295 118.188C87.4802 118.188 87.9422 118.057 88.3155 117.796C88.6889 117.535 88.9922 117.208 89.2255 116.816L90.1215 117.292C89.9722 117.628 89.7435 117.941 89.4355 118.23C89.1275 118.51 88.7589 118.739 88.3295 118.916C87.9095 119.084 87.4429 119.168 86.9295 119.168ZM92.1268 119V111.496H93.1768V112.728L93.0368 112.546C93.2142 112.191 93.4802 111.911 93.8348 111.706C94.1988 111.501 94.6375 111.398 95.1508 111.398H95.6268V112.448H94.9688C94.4275 112.448 93.9935 112.616 93.6668 112.952C93.3402 113.288 93.1768 113.764 93.1768 114.38V119H92.1268Z" fill="#596E7F"/>
</g>
</g>
<defs>
<filter id="filter0_d_293_918" x="0" y="0" width="259" height="184" filterUnits="userSpaceOnUse" color-interpolation-filters="sRGB">
<feFlood flood-opacity="0" result="BackgroundImageFix"/>
<feColorMatrix in="SourceAlpha" type="matrix" values="0 0 0 0 0 0 0 0 0 0 0 0 0 0 0 0 0 0 127 0" result="hardAlpha"/>
<feOffset/>
<feGaussianBlur stdDeviation="11"/>
<feComposite in2="hardAlpha" operator="out"/>
<feColorMatrix type="matrix" values="0 0 0 0 0 0 0 0 0 0 0 0 0 0 0 0 0 0 0.1 0"/>
<feBlend mode="normal" in2="BackgroundImageFix" result="effect1_dropShadow_293_918"/>
<feBlend mode="normal" in="SourceGraphic" in2="effect1_dropShadow_293_918" result="shape"/>
</filter>
<clipPath id="clip0_293_918">
<rect x="22" y="22" width="215" height="140" rx="10" fill="white"/>
</clipPath>
</defs>
</svg>
