<svg width="259" height="184" viewBox="0 0 259 184" fill="none" xmlns="http://www.w3.org/2000/svg">
<g filter="url(#filter0_d_293_914)">
<g clip-path="url(#clip0_293_914)">
<rect x="22" y="22" width="215" height="140" rx="10" fill="white"/>
<path opacity="0.5" d="M190.302 168.68C184.795 168.68 179.475 167.653 174.342 165.6C169.209 163.453 164.822 160.467 161.182 156.64C157.542 152.72 155.162 148.053 154.042 142.64L173.222 136.2C174.622 140.68 176.862 143.947 179.942 146C183.022 148.053 186.475 149.08 190.302 149.08C193.569 149.08 196.415 148.427 198.842 147.12C201.269 145.72 203.135 143.807 204.442 141.38C205.842 138.86 206.542 135.967 206.542 132.7C206.542 129.433 205.842 126.587 204.442 124.16C203.135 121.733 201.269 119.867 198.842 118.56C196.415 117.16 193.569 116.46 190.302 116.46C186.942 116.46 183.955 117.207 181.342 118.7C178.729 120.1 176.815 122.293 175.602 125.28L157.822 121.08L166.222 62.7H224.462V80.9H175.042L183.162 71.1L177.422 114.5L171.542 109.32C173.875 105.493 176.815 102.693 180.362 100.92C184.002 99.1467 188.669 98.26 194.362 98.26C201.362 98.26 207.382 99.7533 212.422 102.74C217.462 105.633 221.335 109.647 224.042 114.78C226.842 119.913 228.242 125.887 228.242 132.7C228.242 139.513 226.562 145.673 223.202 151.18C219.935 156.593 215.455 160.887 209.762 164.06C204.069 167.14 197.582 168.68 190.302 168.68Z" fill="#CCEAFF"/>
<path d="M47.386 65V51.59H52.264C53.164 51.59 53.956 51.758 54.64 52.094C55.324 52.418 55.858 52.898 56.242 53.534C56.638 54.158 56.836 54.908 56.836 55.784C56.836 56.708 56.602 57.5 56.134 58.16C55.678 58.82 55.06 59.3 54.28 59.6L57.376 65H54.964L51.67 59.15L53.056 59.96H49.51V65H47.386ZM49.51 58.07H52.3C52.792 58.07 53.218 57.974 53.578 57.782C53.938 57.59 54.214 57.326 54.406 56.99C54.61 56.642 54.712 56.234 54.712 55.766C54.712 55.298 54.61 54.896 54.406 54.56C54.214 54.212 53.938 53.948 53.578 53.768C53.218 53.576 52.792 53.48 52.3 53.48H49.51V58.07ZM62.9924 65.216C62.0204 65.216 61.1564 64.994 60.4004 64.55C59.6564 64.094 59.0744 63.482 58.6544 62.714C58.2344 61.934 58.0244 61.064 58.0244 60.104C58.0244 59.12 58.2344 58.25 58.6544 57.494C59.0864 56.738 59.6624 56.144 60.3824 55.712C61.1024 55.268 61.9184 55.046 62.8304 55.046C63.5624 55.046 64.2164 55.172 64.7924 55.424C65.3684 55.676 65.8544 56.024 66.2504 56.468C66.6464 56.9 66.9464 57.398 67.1504 57.962C67.3664 58.526 67.4744 59.126 67.4744 59.762C67.4744 59.918 67.4684 60.08 67.4564 60.248C67.4444 60.416 67.4204 60.572 67.3844 60.716H59.6264V59.096H66.2324L65.2604 59.834C65.3804 59.246 65.3384 58.724 65.1344 58.268C64.9424 57.8 64.6424 57.434 64.2344 57.17C63.8384 56.894 63.3704 56.756 62.8304 56.756C62.2904 56.756 61.8104 56.894 61.3904 57.17C60.9704 57.434 60.6464 57.818 60.4184 58.322C60.1904 58.814 60.1004 59.414 60.1484 60.122C60.0884 60.782 60.1784 61.358 60.4184 61.85C60.6704 62.342 61.0184 62.726 61.4624 63.002C61.9184 63.278 62.4344 63.416 63.0104 63.416C63.5984 63.416 64.0964 63.284 64.5044 63.02C64.9244 62.756 65.2544 62.414 65.4944 61.994L67.1504 62.804C66.9584 63.26 66.6584 63.674 66.2504 64.046C65.8544 64.406 65.3744 64.694 64.8104 64.91C64.2584 65.114 63.6524 65.216 62.9924 65.216ZM70.5575 65V57.098H68.7575V55.262H70.5575V54.758C70.5575 54.026 70.7075 53.414 71.0075 52.922C71.3075 52.418 71.7215 52.034 72.2495 51.77C72.7895 51.506 73.4075 51.374 74.1035 51.374C74.2355 51.374 74.3855 51.386 74.5535 51.41C74.7215 51.422 74.8595 51.44 74.9675 51.464V53.228C74.8715 53.204 74.7635 53.192 74.6435 53.192C74.5235 53.18 74.4275 53.174 74.3555 53.174C73.8155 53.174 73.3835 53.3 73.0595 53.552C72.7355 53.792 72.5735 54.194 72.5735 54.758V55.262H74.8055V57.098H72.5735V65H70.5575ZM80.9045 65.216C79.9325 65.216 79.0685 64.994 78.3125 64.55C77.5685 64.094 76.9865 63.482 76.5665 62.714C76.1465 61.934 75.9365 61.064 75.9365 60.104C75.9365 59.12 76.1465 58.25 76.5665 57.494C76.9985 56.738 77.5745 56.144 78.2945 55.712C79.0145 55.268 79.8305 55.046 80.7425 55.046C81.4745 55.046 82.1285 55.172 82.7045 55.424C83.2805 55.676 83.7665 56.024 84.1625 56.468C84.5585 56.9 84.8585 57.398 85.0625 57.962C85.2785 58.526 85.3865 59.126 85.3865 59.762C85.3865 59.918 85.3805 60.08 85.3685 60.248C85.3565 60.416 85.3325 60.572 85.2965 60.716H77.5385V59.096H84.1445L83.1725 59.834C83.2925 59.246 83.2505 58.724 83.0465 58.268C82.8545 57.8 82.5545 57.434 82.1465 57.17C81.7505 56.894 81.2825 56.756 80.7425 56.756C80.2025 56.756 79.7225 56.894 79.3025 57.17C78.8825 57.434 78.5585 57.818 78.3305 58.322C78.1025 58.814 78.0125 59.414 78.0605 60.122C78.0005 60.782 78.0905 61.358 78.3305 61.85C78.5825 62.342 78.9305 62.726 79.3745 63.002C79.8305 63.278 80.3465 63.416 80.9225 63.416C81.5105 63.416 82.0085 63.284 82.4165 63.02C82.8365 62.756 83.1665 62.414 83.4065 61.994L85.0625 62.804C84.8705 63.26 84.5705 63.674 84.1625 64.046C83.7665 64.406 83.2865 64.694 82.7225 64.91C82.1705 65.114 81.5645 65.216 80.9045 65.216ZM87.3716 65V55.262H89.3156V57.224L89.1356 56.936C89.3516 56.3 89.6996 55.844 90.1796 55.568C90.6596 55.28 91.2356 55.136 91.9076 55.136H92.5016V56.99H91.6556C90.9836 56.99 90.4376 57.2 90.0176 57.62C89.6096 58.028 89.4056 58.616 89.4056 59.384V65H87.3716ZM97.2376 65V51.59H105.968V53.48H99.3616V57.512H105.248V59.402H99.3616V65H97.2376ZM107.006 65V55.262H108.95V57.224L108.77 56.936C108.986 56.3 109.334 55.844 109.814 55.568C110.294 55.28 110.87 55.136 111.542 55.136H112.136V56.99H111.29C110.618 56.99 110.072 57.2 109.652 57.62C109.244 58.028 109.04 58.616 109.04 59.384V65H107.006ZM113.528 65V55.262H115.562V65H113.528ZM113.528 53.93V51.59H115.562V53.93H113.528ZM122.512 65.216C121.54 65.216 120.676 64.994 119.92 64.55C119.176 64.094 118.594 63.482 118.174 62.714C117.754 61.934 117.544 61.064 117.544 60.104C117.544 59.12 117.754 58.25 118.174 57.494C118.606 56.738 119.182 56.144 119.902 55.712C120.622 55.268 121.438 55.046 122.35 55.046C123.082 55.046 123.736 55.172 124.312 55.424C124.888 55.676 125.374 56.024 125.77 56.468C126.166 56.9 126.466 57.398 126.67 57.962C126.886 58.526 126.994 59.126 126.994 59.762C126.994 59.918 126.988 60.08 126.976 60.248C126.964 60.416 126.94 60.572 126.904 60.716H119.146V59.096H125.752L124.78 59.834C124.9 59.246 124.858 58.724 124.654 58.268C124.462 57.8 124.162 57.434 123.754 57.17C123.358 56.894 122.89 56.756 122.35 56.756C121.81 56.756 121.33 56.894 120.91 57.17C120.49 57.434 120.166 57.818 119.938 58.322C119.71 58.814 119.62 59.414 119.668 60.122C119.608 60.782 119.698 61.358 119.938 61.85C120.19 62.342 120.538 62.726 120.982 63.002C121.438 63.278 121.954 63.416 122.53 63.416C123.118 63.416 123.616 63.284 124.024 63.02C124.444 62.756 124.774 62.414 125.014 61.994L126.67 62.804C126.478 63.26 126.178 63.674 125.77 64.046C125.374 64.406 124.894 64.694 124.33 64.91C123.778 65.114 123.172 65.216 122.512 65.216ZM128.979 65V55.262H130.923V57.17L130.689 56.918C130.929 56.306 131.313 55.844 131.841 55.532C132.369 55.208 132.981 55.046 133.677 55.046C134.397 55.046 135.033 55.202 135.585 55.514C136.137 55.826 136.569 56.258 136.881 56.81C137.193 57.362 137.349 57.998 137.349 58.718V65H135.333V59.258C135.333 58.766 135.243 58.352 135.063 58.016C134.883 57.668 134.625 57.404 134.289 57.224C133.965 57.032 133.593 56.936 133.173 56.936C132.753 56.936 132.375 57.032 132.039 57.224C131.715 57.404 131.463 57.668 131.283 58.016C131.103 58.364 131.013 58.778 131.013 59.258V65H128.979ZM144.026 65.216C143.09 65.216 142.25 64.994 141.506 64.55C140.774 64.094 140.192 63.482 139.76 62.714C139.34 61.946 139.13 61.082 139.13 60.122C139.13 59.162 139.346 58.298 139.778 57.53C140.21 56.762 140.792 56.156 141.524 55.712C142.256 55.268 143.084 55.046 144.008 55.046C144.788 55.046 145.478 55.202 146.078 55.514C146.678 55.826 147.152 56.258 147.5 56.81L147.194 57.278V51.374H149.21V65H147.284V63.02L147.518 63.398C147.182 63.986 146.702 64.436 146.078 64.748C145.454 65.06 144.77 65.216 144.026 65.216ZM144.224 63.326C144.788 63.326 145.292 63.188 145.736 62.912C146.192 62.636 146.546 62.258 146.798 61.778C147.062 61.286 147.194 60.734 147.194 60.122C147.194 59.51 147.062 58.964 146.798 58.484C146.546 58.004 146.192 57.626 145.736 57.35C145.292 57.074 144.788 56.936 144.224 56.936C143.66 56.936 143.15 57.074 142.694 57.35C142.238 57.626 141.884 58.004 141.632 58.484C141.38 58.964 141.254 59.51 141.254 60.122C141.254 60.734 141.38 61.286 141.632 61.778C141.884 62.258 142.232 62.636 142.676 62.912C143.132 63.188 143.648 63.326 144.224 63.326ZM155.184 65.216C154.188 65.216 153.312 64.97 152.556 64.478C151.812 63.986 151.29 63.326 150.99 62.498L152.556 61.76C152.82 62.312 153.18 62.75 153.636 63.074C154.104 63.398 154.62 63.56 155.184 63.56C155.664 63.56 156.054 63.452 156.354 63.236C156.654 63.02 156.804 62.726 156.804 62.354C156.804 62.114 156.738 61.922 156.606 61.778C156.474 61.622 156.306 61.496 156.102 61.4C155.91 61.304 155.712 61.232 155.508 61.184L153.978 60.752C153.138 60.512 152.508 60.152 152.088 59.672C151.68 59.18 151.476 58.61 151.476 57.962C151.476 57.374 151.626 56.864 151.926 56.432C152.226 55.988 152.64 55.646 153.168 55.406C153.696 55.166 154.29 55.046 154.95 55.046C155.838 55.046 156.63 55.268 157.326 55.712C158.022 56.144 158.514 56.75 158.802 57.53L157.236 58.268C157.044 57.8 156.738 57.428 156.318 57.152C155.91 56.876 155.448 56.738 154.932 56.738C154.488 56.738 154.134 56.846 153.87 57.062C153.606 57.266 153.474 57.536 153.474 57.872C153.474 58.1 153.534 58.292 153.654 58.448C153.774 58.592 153.93 58.712 154.122 58.808C154.314 58.892 154.512 58.964 154.716 59.024L156.3 59.492C157.104 59.72 157.722 60.08 158.154 60.572C158.586 61.052 158.802 61.628 158.802 62.3C158.802 62.876 158.646 63.386 158.334 63.83C158.034 64.262 157.614 64.604 157.074 64.856C156.534 65.096 155.904 65.216 155.184 65.216Z" fill="#00070D"/>
<path d="M47.232 95V84.57H53.952V85.62H48.352V89.246H53.672V90.296H48.352V93.95H53.952V95H47.232ZM57.8203 95.168C57.3443 95.168 56.9196 95.0793 56.5463 94.902C56.1729 94.7153 55.8789 94.4633 55.6643 94.146C55.4496 93.8287 55.3423 93.4647 55.3423 93.054C55.3423 92.662 55.4263 92.3073 55.5943 91.99C55.7623 91.6633 56.0236 91.388 56.3783 91.164C56.7329 90.94 57.1856 90.7813 57.7363 90.688L60.6763 90.198V91.15L57.9883 91.598C57.4469 91.6913 57.0549 91.864 56.8123 92.116C56.5789 92.368 56.4623 92.6667 56.4623 93.012C56.4623 93.348 56.5929 93.6327 56.8543 93.866C57.1249 94.0993 57.4703 94.216 57.8903 94.216C58.4036 94.216 58.8516 94.1087 59.2343 93.894C59.6169 93.67 59.9156 93.3713 60.1303 92.998C60.3449 92.6247 60.4523 92.2093 60.4523 91.752V89.848C60.4523 89.4 60.2889 89.036 59.9623 88.756C59.6356 88.476 59.2109 88.336 58.6883 88.336C58.2309 88.336 57.8296 88.4527 57.4843 88.686C57.1389 88.91 56.8823 89.204 56.7143 89.568L55.7623 89.05C55.9023 88.7327 56.1216 88.4433 56.4203 88.182C56.7283 87.9207 57.0783 87.7153 57.4703 87.566C57.8623 87.4073 58.2683 87.328 58.6883 87.328C59.2389 87.328 59.7243 87.4353 60.1443 87.65C60.5736 87.8647 60.9049 88.1633 61.1383 88.546C61.3809 88.9193 61.5023 89.3533 61.5023 89.848V95H60.4523V93.502L60.6063 93.656C60.4756 93.936 60.2703 94.1927 59.9903 94.426C59.7196 94.65 59.3976 94.832 59.0243 94.972C58.6603 95.1027 58.2589 95.168 57.8203 95.168ZM63.662 95V87.496H64.712V88.728L64.572 88.546C64.7493 88.1913 65.0153 87.9113 65.37 87.706C65.734 87.5007 66.1727 87.398 66.686 87.398H67.162V88.448H66.504C65.9627 88.448 65.5287 88.616 65.202 88.952C64.8753 89.288 64.712 89.764 64.712 90.38V95H63.662ZM68.3925 95V87.496H69.4425V88.952L69.2045 88.896C69.3911 88.4107 69.6945 88.028 70.1145 87.748C70.5438 87.468 71.0385 87.328 71.5985 87.328C72.1305 87.328 72.6065 87.4493 73.0265 87.692C73.4558 87.9347 73.7918 88.2707 74.0345 88.7C74.2865 89.12 74.4125 89.596 74.4125 90.128V95H73.3625V90.534C73.3625 90.0767 73.2785 89.6893 73.1105 89.372C72.9518 89.0547 72.7231 88.812 72.4245 88.644C72.1351 88.4667 71.7991 88.378 71.4165 88.378C71.0338 88.378 70.6931 88.4667 70.3945 88.644C70.0958 88.812 69.8625 89.0593 69.6945 89.386C69.5265 89.7033 69.4425 90.086 69.4425 90.534V95H68.3925ZM82.5908 95.168C81.9468 95.168 81.3634 95.0233 80.8408 94.734C80.3274 94.4353 79.9401 94.0153 79.6788 93.474L79.8468 93.32V95H78.7968V84.402H79.8468V89.176L79.6788 88.882C79.9774 88.406 80.3741 88.028 80.8688 87.748C81.3728 87.468 81.9468 87.328 82.5908 87.328C83.3001 87.328 83.9301 87.5007 84.4808 87.846C85.0408 88.182 85.4794 88.644 85.7968 89.232C86.1234 89.82 86.2868 90.492 86.2868 91.248C86.2868 91.9947 86.1234 92.6667 85.7968 93.264C85.4794 93.852 85.0408 94.3187 84.4808 94.664C83.9301 95 83.3001 95.168 82.5908 95.168ZM82.5348 94.118C83.0388 94.118 83.4868 93.992 83.8788 93.74C84.2801 93.488 84.5928 93.1473 84.8168 92.718C85.0501 92.2793 85.1668 91.7893 85.1668 91.248C85.1668 90.6973 85.0501 90.2073 84.8168 89.778C84.5928 89.3487 84.2801 89.008 83.8788 88.756C83.4868 88.504 83.0388 88.378 82.5348 88.378C82.0308 88.378 81.5734 88.504 81.1628 88.756C80.7614 89.008 80.4394 89.3533 80.1968 89.792C79.9634 90.2213 79.8468 90.7067 79.8468 91.248C79.8468 91.7893 79.9634 92.2793 80.1968 92.718C80.4394 93.1473 80.7614 93.488 81.1628 93.74C81.5734 93.992 82.0308 94.118 82.5348 94.118ZM91.6486 95.168C90.9393 95.168 90.2953 95 89.7166 94.664C89.138 94.3187 88.676 93.852 88.3306 93.264C87.9946 92.6667 87.8266 91.99 87.8266 91.234C87.8266 90.4873 87.9946 89.82 88.3306 89.232C88.6666 88.644 89.1193 88.182 89.6886 87.846C90.2673 87.5007 90.9206 87.328 91.6486 87.328C92.3766 87.328 93.0253 87.496 93.5946 87.832C94.1733 88.168 94.626 88.63 94.9526 89.218C95.2886 89.806 95.4566 90.478 95.4566 91.234C95.4566 91.9993 95.284 92.6807 94.9386 93.278C94.5933 93.866 94.1313 94.328 93.5526 94.664C92.9833 95 92.3486 95.168 91.6486 95.168ZM91.6486 94.118C92.1526 94.118 92.6053 93.992 93.0066 93.74C93.4173 93.488 93.7393 93.1427 93.9726 92.704C94.2153 92.2653 94.3366 91.7753 94.3366 91.234C94.3366 90.6927 94.2153 90.2073 93.9726 89.778C93.7393 89.3487 93.4173 89.008 93.0066 88.756C92.6053 88.504 92.1526 88.378 91.6486 88.378C91.1446 88.378 90.6873 88.504 90.2766 88.756C89.8753 89.008 89.5533 89.3487 89.3106 89.778C89.068 90.2073 88.9466 90.6927 88.9466 91.234C88.9466 91.7753 89.068 92.2653 89.3106 92.704C89.5533 93.1427 89.8753 93.488 90.2766 93.74C90.6873 93.992 91.1446 94.118 91.6486 94.118ZM97.3085 95V87.496H98.3585V88.952L98.1205 88.896C98.3071 88.4107 98.6105 88.028 99.0305 87.748C99.4598 87.468 99.9545 87.328 100.514 87.328C101.046 87.328 101.522 87.4493 101.942 87.692C102.372 87.9347 102.708 88.2707 102.95 88.7C103.202 89.12 103.328 89.596 103.328 90.128V95H102.278V90.534C102.278 90.0767 102.194 89.6893 102.026 89.372C101.868 89.0547 101.639 88.812 101.34 88.644C101.051 88.4667 100.715 88.378 100.332 88.378C99.9498 88.378 99.6091 88.4667 99.3105 88.644C99.0118 88.812 98.7785 89.0593 98.6105 89.386C98.4425 89.7033 98.3585 90.086 98.3585 90.534V95H97.3085ZM107.994 95.168C107.471 95.168 106.995 95.0467 106.566 94.804C106.137 94.552 105.796 94.2067 105.544 93.768C105.301 93.32 105.18 92.8067 105.18 92.228V87.496H106.23V92.102C106.23 92.5033 106.309 92.858 106.468 93.166C106.636 93.4647 106.865 93.698 107.154 93.866C107.453 94.034 107.793 94.118 108.176 94.118C108.559 94.118 108.899 94.034 109.198 93.866C109.497 93.6887 109.73 93.4413 109.898 93.124C110.066 92.7973 110.15 92.41 110.15 91.962V87.496H111.2V95H110.15V93.544L110.388 93.6C110.211 94.0853 109.907 94.468 109.478 94.748C109.049 95.028 108.554 95.168 107.994 95.168ZM115.963 95.168C115.245 95.168 114.615 94.986 114.073 94.622C113.532 94.258 113.14 93.7633 112.897 93.138L113.779 92.718C113.994 93.1753 114.293 93.5393 114.675 93.81C115.067 94.0807 115.497 94.216 115.963 94.216C116.411 94.216 116.789 94.1087 117.097 93.894C117.405 93.67 117.559 93.3807 117.559 93.026C117.559 92.7647 117.485 92.5593 117.335 92.41C117.186 92.2513 117.013 92.13 116.817 92.046C116.621 91.962 116.449 91.9013 116.299 91.864L115.221 91.556C114.531 91.36 114.031 91.0847 113.723 90.73C113.415 90.3753 113.261 89.9647 113.261 89.498C113.261 89.0593 113.373 88.6767 113.597 88.35C113.821 88.0233 114.125 87.7713 114.507 87.594C114.89 87.4167 115.315 87.328 115.781 87.328C116.416 87.328 116.99 87.496 117.503 87.832C118.026 88.1587 118.395 88.616 118.609 89.204L117.713 89.624C117.527 89.204 117.256 88.8773 116.901 88.644C116.556 88.4013 116.169 88.28 115.739 88.28C115.319 88.28 114.983 88.3873 114.731 88.602C114.479 88.8167 114.353 89.0873 114.353 89.414C114.353 89.666 114.419 89.8667 114.549 90.016C114.68 90.1653 114.829 90.2773 114.997 90.352C115.175 90.4267 115.329 90.4827 115.459 90.52L116.705 90.884C117.312 91.0613 117.783 91.3367 118.119 91.71C118.465 92.0833 118.637 92.522 118.637 93.026C118.637 93.4367 118.521 93.8053 118.287 94.132C118.063 94.4587 117.751 94.7153 117.349 94.902C116.948 95.0793 116.486 95.168 115.963 95.168ZM122.861 95V87.496H123.911V88.728L123.771 88.546C123.949 88.1913 124.215 87.9113 124.569 87.706C124.933 87.5007 125.372 87.398 125.885 87.398H126.361V88.448H125.703C125.162 88.448 124.728 88.616 124.401 88.952C124.075 89.288 123.911 89.764 123.911 90.38V95H122.861ZM131.008 95.168C130.308 95.168 129.673 95 129.104 94.664C128.544 94.3187 128.1 93.8473 127.774 93.25C127.447 92.6527 127.284 91.976 127.284 91.22C127.284 90.464 127.442 89.7967 127.76 89.218C128.077 88.63 128.506 88.168 129.048 87.832C129.598 87.496 130.214 87.328 130.896 87.328C131.437 87.328 131.918 87.4307 132.338 87.636C132.767 87.832 133.131 88.1027 133.43 88.448C133.728 88.784 133.957 89.1667 134.116 89.596C134.274 90.016 134.354 90.45 134.354 90.898C134.354 90.9913 134.349 91.0987 134.34 91.22C134.33 91.332 134.316 91.4487 134.298 91.57H127.956V90.59H133.696L133.192 91.01C133.276 90.4967 133.215 90.0393 133.01 89.638C132.814 89.2273 132.529 88.9053 132.156 88.672C131.782 88.4293 131.362 88.308 130.896 88.308C130.429 88.308 129.995 88.4293 129.594 88.672C129.202 88.9147 128.894 89.2553 128.67 89.694C128.446 90.1233 128.357 90.6367 128.404 91.234C128.357 91.8313 128.45 92.354 128.684 92.802C128.926 93.2407 129.253 93.5813 129.664 93.824C130.084 94.0667 130.532 94.188 131.008 94.188C131.558 94.188 132.02 94.0573 132.394 93.796C132.767 93.5347 133.07 93.208 133.304 92.816L134.2 93.292C134.05 93.628 133.822 93.9407 133.514 94.23C133.206 94.51 132.837 94.7387 132.408 94.916C131.988 95.084 131.521 95.168 131.008 95.168ZM137.857 95L135.281 87.496H136.471L138.599 94.062H138.179L140.181 87.496H141.231L143.233 94.062H142.813L144.955 87.496H146.131L143.555 95H142.505L140.559 88.574H140.853L138.907 95H137.857ZM149.258 95.168C148.782 95.168 148.357 95.0793 147.984 94.902C147.61 94.7153 147.316 94.4633 147.102 94.146C146.887 93.8287 146.78 93.4647 146.78 93.054C146.78 92.662 146.864 92.3073 147.032 91.99C147.2 91.6633 147.461 91.388 147.816 91.164C148.17 90.94 148.623 90.7813 149.174 90.688L152.114 90.198V91.15L149.426 91.598C148.884 91.6913 148.492 91.864 148.25 92.116C148.016 92.368 147.9 92.6667 147.9 93.012C147.9 93.348 148.03 93.6327 148.292 93.866C148.562 94.0993 148.908 94.216 149.328 94.216C149.841 94.216 150.289 94.1087 150.672 93.894C151.054 93.67 151.353 93.3713 151.568 92.998C151.782 92.6247 151.89 92.2093 151.89 91.752V89.848C151.89 89.4 151.726 89.036 151.4 88.756C151.073 88.476 150.648 88.336 150.126 88.336C149.668 88.336 149.267 88.4527 148.922 88.686C148.576 88.91 148.32 89.204 148.152 89.568L147.2 89.05C147.34 88.7327 147.559 88.4433 147.858 88.182C148.166 87.9207 148.516 87.7153 148.908 87.566C149.3 87.4073 149.706 87.328 150.126 87.328C150.676 87.328 151.162 87.4353 151.582 87.65C152.011 87.8647 152.342 88.1633 152.576 88.546C152.818 88.9193 152.94 89.3533 152.94 89.848V95H151.89V93.502L152.044 93.656C151.913 93.936 151.708 94.1927 151.428 94.426C151.157 94.65 150.835 94.832 150.462 94.972C150.098 95.1027 149.696 95.168 149.258 95.168ZM155.099 95V87.496H156.149V88.728L156.009 88.546C156.187 88.1913 156.453 87.9113 156.807 87.706C157.171 87.5007 157.61 87.398 158.123 87.398H158.599V88.448H157.941C157.4 88.448 156.966 88.616 156.639 88.952C156.313 89.288 156.149 89.764 156.149 90.38V95H155.099ZM163.218 95.168C162.518 95.168 161.888 95 161.328 94.664C160.768 94.3187 160.325 93.852 159.998 93.264C159.681 92.6667 159.522 91.9947 159.522 91.248C159.522 90.492 159.681 89.82 159.998 89.232C160.325 88.644 160.763 88.182 161.314 87.846C161.874 87.5007 162.509 87.328 163.218 87.328C163.862 87.328 164.436 87.468 164.94 87.748C165.444 88.028 165.841 88.406 166.13 88.882L165.962 89.176V84.402H167.012V95H165.962V93.32L166.13 93.474C165.869 94.0153 165.477 94.4353 164.954 94.734C164.441 95.0233 163.862 95.168 163.218 95.168ZM163.274 94.118C163.778 94.118 164.231 93.992 164.632 93.74C165.043 93.488 165.365 93.1473 165.598 92.718C165.841 92.2793 165.962 91.7893 165.962 91.248C165.962 90.7067 165.841 90.2213 165.598 89.792C165.365 89.3533 165.043 89.008 164.632 88.756C164.231 88.504 163.778 88.378 163.274 88.378C162.779 88.378 162.331 88.504 161.93 88.756C161.529 89.008 161.211 89.3487 160.978 89.778C160.754 90.2073 160.642 90.6973 160.642 91.248C160.642 91.7893 160.754 92.2793 160.978 92.718C161.211 93.1473 161.524 93.488 161.916 93.74C162.317 93.992 162.77 94.118 163.274 94.118ZM171.772 95.168C171.053 95.168 170.423 94.986 169.882 94.622C169.341 94.258 168.949 93.7633 168.706 93.138L169.588 92.718C169.803 93.1753 170.101 93.5393 170.484 93.81C170.876 94.0807 171.305 94.216 171.772 94.216C172.22 94.216 172.598 94.1087 172.906 93.894C173.214 93.67 173.368 93.3807 173.368 93.026C173.368 92.7647 173.293 92.5593 173.144 92.41C172.995 92.2513 172.822 92.13 172.626 92.046C172.43 91.962 172.257 91.9013 172.108 91.864L171.03 91.556C170.339 91.36 169.84 91.0847 169.532 90.73C169.224 90.3753 169.07 89.9647 169.07 89.498C169.07 89.0593 169.182 88.6767 169.406 88.35C169.63 88.0233 169.933 87.7713 170.316 87.594C170.699 87.4167 171.123 87.328 171.59 87.328C172.225 87.328 172.799 87.496 173.312 87.832C173.835 88.1587 174.203 88.616 174.418 89.204L173.522 89.624C173.335 89.204 173.065 88.8773 172.71 88.644C172.365 88.4013 171.977 88.28 171.548 88.28C171.128 88.28 170.792 88.3873 170.54 88.602C170.288 88.8167 170.162 89.0873 170.162 89.414C170.162 89.666 170.227 89.8667 170.358 90.016C170.489 90.1653 170.638 90.2773 170.806 90.352C170.983 90.4267 171.137 90.4827 171.268 90.52L172.514 90.884C173.121 91.0613 173.592 91.3367 173.928 91.71C174.273 92.0833 174.446 92.522 174.446 93.026C174.446 93.4367 174.329 93.8053 174.096 94.132C173.872 94.4587 173.559 94.7153 173.158 94.902C172.757 95.0793 172.295 95.168 171.772 95.168Z" fill="#596E7F"/>
</g>
</g>
<defs>
<filter id="filter0_d_293_914" x="0" y="0" width="259" height="184" filterUnits="userSpaceOnUse" color-interpolation-filters="sRGB">
<feFlood flood-opacity="0" result="BackgroundImageFix"/>
<feColorMatrix in="SourceAlpha" type="matrix" values="0 0 0 0 0 0 0 0 0 0 0 0 0 0 0 0 0 0 127 0" result="hardAlpha"/>
<feOffset/>
<feGaussianBlur stdDeviation="11"/>
<feComposite in2="hardAlpha" operator="out"/>
<feColorMatrix type="matrix" values="0 0 0 0 0 0 0 0 0 0 0 0 0 0 0 0 0 0 0.1 0"/>
<feBlend mode="normal" in2="BackgroundImageFix" result="effect1_dropShadow_293_914"/>
<feBlend mode="normal" in="SourceGraphic" in2="effect1_dropShadow_293_914" result="shape"/>
</filter>
<clipPath id="clip0_293_914">
<rect x="22" y="22" width="215" height="140" rx="10" fill="white"/>
</clipPath>
</defs>
</svg>
